<svg width="48" height="48" viewBox="0 0 48 48" fill="none" xmlns="http://www.w3.org/2000/svg">
<path d="M6 4V6C6 8 10 8 10 10C10 12 6 12 6 14C6 16 10 16 10 18C10 20 6 20 6 22C6 24 10 24 10 26" stroke="#23242F" stroke-width="2" stroke-linecap="round" stroke-linejoin="round"/>
<path d="M41.66 17.6601C42.4033 16.9168 42.9929 16.0344 43.3951 15.0632C43.7974 14.0921 44.0044 13.0512 44.0044 12.0001C44.0044 10.9489 43.7974 9.90803 43.3951 8.93688C42.9929 7.96574 42.4033 7.08334 41.66 6.34005C40.9167 5.59677 40.0343 5.00717 39.0632 4.60491C38.092 4.20265 37.0512 3.99561 36 3.99561C34.9488 3.99561 33.908 4.20265 32.9368 4.60491C31.9657 5.00717 31.0833 5.59677 30.34 6.34005L6.33999 30.3401C4.83887 31.8412 3.99554 33.8771 3.99554 36.0001C3.99554 37.0512 4.20259 38.0921 4.60485 39.0632C5.00711 40.0344 5.59671 40.9168 6.33999 41.6601C7.08328 42.4033 7.96568 42.9929 8.93682 43.3952C9.90797 43.7975 10.9488 44.0045 12 44.0045C14.1229 44.0045 16.1589 43.1612 17.66 41.6601L41.66 17.6601Z" fill="#23242F" stroke="#23242F" stroke-width="2" stroke-linecap="round" stroke-linejoin="round"/>
<path d="M36 12H36.02" stroke="#FAF8F5" stroke-width="2" stroke-linecap="round" stroke-linejoin="round"/>
<path d="M12 36H12.02" stroke="#FAF8F5" stroke-width="2" stroke-linecap="round" stroke-linejoin="round"/>
<path d="M36 23.32V44C38.1217 44 40.1566 43.1571 41.6569 41.6569C43.1571 40.1566 44 38.1217 44 36V12" stroke="#23242F" stroke-width="2" stroke-linecap="round" stroke-linejoin="round"/>
</svg>
