<svg width="48" height="48" viewBox="0 0 48 48" fill="none" xmlns="http://www.w3.org/2000/svg">
<path d="M9 15.9999L30.16 5.87995C30.3999 5.76514 30.6602 5.69932 30.9259 5.68634C31.1915 5.67337 31.457 5.71349 31.7069 5.80437C31.9569 5.89525 32.1861 6.03507 32.3814 6.21563C32.5766 6.39619 32.7339 6.61388 32.844 6.85595L37 15.9999" stroke="#23242F" stroke-width="2.33333" stroke-linecap="round" stroke-linejoin="round"/>
<path d="M38.9143 15.4286H7.37145C5.19387 15.4286 3.42859 17.1998 3.42859 19.3846V37.1868C3.42859 39.3717 5.19387 41.1429 7.37145 41.1429H38.9143C41.0919 41.1429 42.8572 39.3717 42.8572 37.1868V19.3846C42.8572 17.1998 41.0919 15.4286 38.9143 15.4286Z" fill="#23242F" stroke="#23242F" stroke-width="2.33333" stroke-linecap="round" stroke-linejoin="round"/>
<path d="M21 34H23.454C24.4488 33.9999 25.4079 33.6291 26.144 32.96L36 24" stroke="#F6F3EF" stroke-width="2.33333" stroke-linecap="round" stroke-linejoin="round"/>
<path d="M24 27L31.5 28" stroke="#F6F3EF" stroke-width="2.33333" stroke-linecap="round" stroke-linejoin="round"/>
<path d="M12 20.5714L12 13.7142" stroke="#F6F3EF" stroke-width="2" stroke-linejoin="round"/>
<path d="M12 25.7142L12 32.5714" stroke="#F6F3EF" stroke-width="2" stroke-linejoin="round"/>
<path d="M12 37.7142L12 44.5714" stroke="#F6F3EF" stroke-width="2" stroke-linejoin="round"/>
</svg>
