<svg width="16" height="13" viewBox="0 0 16 13" fill="none" xmlns="http://www.w3.org/2000/svg">
<path fill-rule="evenodd" clip-rule="evenodd" d="M12.0799 7.00001L9.18944 10.2517C8.91426 10.5613 8.94214 11.0354 9.25173 11.3106C9.56132 11.5858 10.0354 11.5579 10.3106 11.2483L14.3083 6.75079C14.4275 6.618 14.5 6.44247 14.5 6.25001C14.5 6.05759 14.4275 5.8821 14.3084 5.74933L10.3106 1.25174C10.0354 0.942148 9.56131 0.914263 9.25173 1.18945C8.94214 1.46464 8.91425 1.93869 9.18944 2.24828L12.0799 5.50001H1.75C1.33579 5.50001 1 5.83579 1 6.25001C1 6.66422 1.33579 7.00001 1.75 7.00001H12.0799Z" fill="#13172E"/>
</svg>
