<svg width="40" height="40" viewBox="0 0 40 40" fill="none" xmlns="http://www.w3.org/2000/svg">
<path d="M36.2449 19.9022L36.2448 19.9022V19.9115C36.2448 28.9592 28.8703 36.3337 19.8226 36.3337C10.7749 36.3337 3.40039 28.9592 3.40039 19.9115C3.40039 10.8638 10.7749 3.48926 19.8226 3.48926C28.9644 3.48926 36.3285 10.8669 36.2449 19.9022Z" fill="#6478F0" stroke="#6478F0" stroke-width="2"/>
<path fill-rule="evenodd" clip-rule="evenodd" d="M27.7336 12.8887L24.178 23.7331C24.0891 23.9998 23.8225 24.2664 23.5558 24.3553L12.7114 27.9109C12.4447 27.9998 12.0891 27.9998 12.0002 27.822C11.8225 27.6442 11.7336 27.3775 11.9114 27.1109L15.4669 16.2664C15.5558 15.9998 15.8225 15.7331 16.0891 15.6442L26.9336 12.0887C27.2002 11.9998 27.5558 11.9998 27.6447 12.1775C27.8225 12.3553 27.9114 12.622 27.7336 12.8887ZM17.1553 19.9108C17.1553 18.3997 18.3997 17.2441 19.8219 17.2441C21.3331 17.2441 22.4886 18.4886 22.4886 19.9108C22.4886 21.4219 21.3331 22.5775 19.8219 22.5775C18.3108 22.5775 17.1553 21.333 17.1553 19.9108Z" fill="#EDECFF"/>
</svg>
