<svg width="33" height="34" viewBox="0 0 33 34" fill="none" xmlns="http://www.w3.org/2000/svg">
<path d="M14.3813 30.4142V26.4067C14.1828 26.4067 14.0063 26.4067 13.8278 26.4067C11.0618 26.4067 8.29385 26.4067 5.52789 26.4067C2.27454 26.4067 0.0200577 24.1663 0.0140404 20.9209C0.0060173 15.7701 0 10.6193 0 5.47051C0 2.24925 2.24646 0.00881204 5.47374 0.00480051C6.49066 0.00480051 7.50758 -0.0072341 8.52451 0.00680627C10.6366 0.0388985 12.189 1.00167 12.9693 2.9613C13.3123 3.82177 13.7475 4.0404 14.6301 4.03037C18.6797 3.97822 22.7293 4.0063 26.779 4.0063C29.8939 4.0063 31.9739 6.08227 31.984 9.21127C31.996 13.1285 32 17.0438 32.002 20.9611C32.002 24.1482 29.7455 26.4027 26.5563 26.4067C23.7563 26.4107 20.9562 26.4067 18.1562 26.4067C17.9917 26.4067 17.8293 26.4067 17.6307 26.4067V30.4122C17.8172 30.4122 17.9957 30.4122 18.1743 30.4122C20.6413 30.4122 23.1084 30.4082 25.5735 30.4162C26.3558 30.4182 26.9555 30.8996 27.1501 31.6317C27.3226 32.2796 27.0458 33.0137 26.436 33.3507C26.1712 33.4971 25.8403 33.5954 25.5394 33.5974C19.1892 33.6114 12.8389 33.6094 6.49066 33.6054C5.51586 33.6054 4.80181 32.9154 4.80181 32.0068C4.80181 31.0942 5.50984 30.4182 6.49467 30.4142C8.91162 30.4082 11.3286 30.4142 13.7435 30.4142C13.9401 30.4142 14.1386 30.4142 14.3813 30.4142ZM15.986 23.2115C19.486 23.2115 22.9881 23.2115 26.4882 23.2115C28.0025 23.2115 28.8068 22.4132 28.8048 20.9069C28.8028 17.0057 28.7968 13.1045 28.7908 9.20325C28.7908 7.85938 28.1369 7.20149 26.8011 7.20149C22.0674 7.20149 17.3318 7.19547 12.5982 7.2035C11.7478 7.2035 11.1721 6.84447 10.8512 6.0562C10.6005 5.44043 10.3297 4.83068 10.0669 4.21892C9.7741 3.53294 9.26464 3.18795 8.50846 3.19598C7.47549 3.206 6.44052 3.19598 5.40755 3.19999C4.02357 3.204 3.19318 4.02436 3.19318 5.40432C3.19318 10.5892 3.1992 15.7741 3.20722 20.959C3.20923 22.3992 4.0336 23.2095 5.48377 23.2115C8.98383 23.2135 12.4859 23.2115 15.986 23.2115Z" fill="black"/>
</svg>
