<svg width="18" height="19" viewBox="0 0 18 19" fill="none" xmlns="http://www.w3.org/2000/svg">
<path d="M10.1925 5.28458H15.0513C15.2125 5.28458 15.367 5.22058 15.4809 5.10665C15.5948 4.99272 15.6588 4.8382 15.6588 4.67708C15.6588 4.51596 15.5948 4.36144 15.4809 4.24751C15.367 4.13358 15.2125 4.06958 15.0513 4.06958H10.1925C10.0313 4.06958 9.87682 4.13358 9.76289 4.24751C9.64896 4.36144 9.58496 4.51596 9.58496 4.67708C9.58496 4.8382 9.64896 4.99272 9.76289 5.10665C9.87682 5.22058 10.0313 5.28458 10.1925 5.28458Z" fill="black"/>
<path d="M15.0514 5.93691H8.76375C8.6513 5.57298 8.55298 5.20483 8.469 4.83329C8.1585 3.54629 8.00325 2.89941 7.38225 2.89941H2.90138C1.9215 2.89941 1.125 3.83316 1.125 4.98179V14.0932C1.125 15.2418 1.9215 16.1755 2.90138 16.1755H15.0514C16.0312 16.1755 16.8289 15.2418 16.8289 14.092V8.01704C16.8289 6.87066 16.0312 5.93691 15.0514 5.93691ZM15.7039 14.0932C15.7039 14.6118 15.4046 15.0517 15.0514 15.0517H2.90138C2.54813 15.0505 2.25 14.6118 2.25 14.0932V4.98179C2.25 4.46316 2.54813 4.02441 2.90138 4.02441H7.08975C7.17975 4.28879 7.29338 4.75904 7.37437 5.09654C7.68937 6.40491 7.848 7.06191 8.47575 7.06191H15.0503C15.4035 7.06191 15.7028 7.49954 15.7028 8.01816V14.0932H15.7039Z" fill="black"/>
</svg>
