<svg width="101" height="101" viewBox="0 0 101 101" fill="none" xmlns="http://www.w3.org/2000/svg">
<g filter="url(#filter0_d_88_1691)">
<path d="M12.8431 38.5282C12.0787 33.7286 15.3498 29.218 20.1495 28.4536L72.2923 20.1492C77.0919 19.3848 81.6024 22.656 82.3668 27.4556L87.9031 62.2175C88.6675 67.0171 85.3964 71.5276 80.5967 72.292L28.4539 80.5965C23.6543 81.3609 19.1438 78.0897 18.3793 73.2901L12.8431 38.5282Z" fill="url(#paint0_linear_88_1691)"/>
<path d="M19.0149 35.3175L47.627 49.0544C49.2791 49.8476 51.2498 49.5337 52.5737 48.2666L75.503 26.321M28.4539 80.5965L80.5967 72.292C85.3964 71.5276 88.6675 67.0171 87.9031 62.2175L82.3668 27.4556C81.6024 22.656 77.0919 19.3848 72.2923 20.1492L20.1495 28.4536C15.3498 29.218 12.0787 33.7286 12.8431 38.5282L18.3793 73.2901C19.1438 78.0897 23.6543 81.3609 28.4539 80.5965Z" stroke="white" stroke-width="3" stroke-linecap="round" stroke-linejoin="round"/>
</g>
<defs>
<filter id="filter0_d_88_1691" x="-4" y="6.10352e-05" width="108.745" height="108.745" filterUnits="userSpaceOnUse" color-interpolation-filters="sRGB">
<feFlood flood-opacity="0" result="BackgroundImageFix"/>
<feColorMatrix in="SourceAlpha" type="matrix" values="0 0 0 0 0 0 0 0 0 0 0 0 0 0 0 0 0 0 127 0" result="hardAlpha"/>
<feOffset dy="4"/>
<feGaussianBlur stdDeviation="2"/>
<feComposite in2="hardAlpha" operator="out"/>
<feColorMatrix type="matrix" values="0 0 0 0 0.686275 0 0 0 0 0.921569 0 0 0 0 0.72549 0 0 0 0.4 0"/>
<feBlend mode="normal" in2="BackgroundImageFix" result="effect1_dropShadow_88_1691"/>
<feBlend mode="normal" in="SourceGraphic" in2="effect1_dropShadow_88_1691" result="shape"/>
</filter>
<linearGradient id="paint0_linear_88_1691" x1="46.2209" y1="24.3014" x2="54.5253" y2="76.4443" gradientUnits="userSpaceOnUse">
<stop stop-color="#AFEBB9"/>
<stop offset="1" stop-color="white"/>
</linearGradient>
</defs>
</svg>
