<svg width="20" height="23" viewBox="0 0 20 23" fill="none" xmlns="http://www.w3.org/2000/svg">
<path d="M1 3C1 1.89543 1.89543 1 3 1H17C18.1046 1 19 1.89543 19 3V20C19 21.1046 18.1046 22 17 22H3C1.89543 22 1 21.1046 1 20V3Z" fill="#E7E7F5" stroke="#6478F0" stroke-width="2"/>
<path d="M9.5 2C9.5 1.72386 9.72386 1.5 10 1.5H14C14.2761 1.5 14.5 1.72386 14.5 2V9.38197C14.5 9.75366 14.1088 9.99541 13.7764 9.82918L12.6708 9.27639C12.2485 9.06525 11.7515 9.06525 11.3292 9.27639L10.2236 9.82918C9.89116 9.99541 9.5 9.75366 9.5 9.38197V2Z" fill="#6478F0" stroke="#6478F0"/>
</svg>
