<svg width="40" height="30" viewBox="0 0 40 30" fill="none" xmlns="http://www.w3.org/2000/svg">
<path fill-rule="evenodd" clip-rule="evenodd" d="M19.8711 23.3334C19.9085 23.2787 19.9502 23.2176 19.9975 23.1471L19.9996 23.1511C20.061 23.244 20.114 23.3224 20.1612 23.392C20.2401 23.5085 20.3025 23.6007 20.3601 23.696C20.5075 23.9388 20.6514 24.184 20.7954 24.4292C21.0897 24.9305 21.3841 25.432 21.7083 25.9136C23.2769 28.2434 25.4805 29.4814 28.287 29.5636C30.016 29.6151 31.7468 29.5939 33.476 29.5727C33.5619 29.5717 33.6479 29.5706 33.7339 29.5696C37.1114 29.5275 39.946 26.7269 39.98 23.3494C40.0141 19.7877 39.9981 16.2239 39.98 12.6621C39.972 11.2538 39.5233 9.9657 38.6238 8.88194C36.7327 6.60023 34.8337 4.32453 32.8865 2.0929C31.6785 0.706649 30.0839 0.0195317 28.243 0.013522C22.744 -0.00450733 17.2471 -0.00450733 11.7501 0.013522C9.86909 0.0195317 8.27249 0.752723 7.03849 2.16702C5.82492 3.56022 4.63201 4.96937 3.43919 6.37842C2.88943 7.02784 2.33969 7.67723 1.78795 8.32503C0.684159 9.62114 0.0050556 11.0795 0.0050556 12.8143C0.0057233 13.9734 0.00416555 15.1328 0.0026076 16.2923C-0.000508717 18.6115 -0.00362583 20.9314 0.0110654 23.2513C0.0331012 26.7109 2.8637 29.5355 6.31531 29.5696C6.46612 29.5709 6.61694 29.5723 6.76777 29.5738C8.38212 29.5889 9.99786 29.604 11.6119 29.5656C14.4786 29.4974 16.7282 28.2594 18.3148 25.8635C18.6329 25.3857 18.9254 24.8911 19.2181 24.3961C19.3659 24.1461 19.5138 23.896 19.665 23.6479C19.7222 23.5516 19.7853 23.4592 19.8711 23.3334ZM15.528 9.5942C17.0213 9.59465 18.5145 9.5951 20.0076 9.5951V9.5971H33.2972C35.4647 9.5971 36.7888 10.9132 36.7888 13.0707C36.7888 14.1692 36.7893 15.2676 36.7897 16.3661C36.7906 18.563 36.7915 20.7599 36.7888 22.9568C36.7868 25.0482 35.4467 26.3764 33.3432 26.3784C32.8684 26.3784 32.3934 26.3792 31.9183 26.3801C30.7779 26.3822 29.6371 26.3843 28.4974 26.3744C26.6944 26.3583 25.2922 25.5911 24.3226 24.0686C24.0502 23.6423 23.7924 23.2067 23.5347 22.7714C23.3431 22.4478 23.1516 22.1244 22.9544 21.8049C21.504 19.4551 18.5171 19.4431 17.0568 21.7809C16.8351 22.1357 16.6216 22.4956 16.408 22.8554C16.1719 23.2533 15.9358 23.6513 15.6885 24.0426C14.725 25.5691 13.3287 26.3503 11.5258 26.3704C10.0566 26.388 8.58583 26.3823 7.11627 26.3766C6.92071 26.3758 6.72517 26.3751 6.52966 26.3744C4.56847 26.3664 3.20826 25.0001 3.20626 23.0329C3.20225 19.6695 3.20225 16.308 3.20626 12.9465C3.20826 10.9553 4.56847 9.5951 6.56772 9.5951C9.55398 9.59242 12.5411 9.59332 15.528 9.5942ZM32.3556 6.36184H7.60341C7.85185 6.09019 8.09044 5.82227 8.32456 5.55937C8.85873 4.95952 9.36962 4.38582 9.92117 3.85376C10.422 3.37098 11.1111 3.20471 11.8163 3.20471C13.1815 3.20471 14.5469 3.20458 15.9123 3.20446C20.0085 3.20408 24.1052 3.20371 28.2009 3.20671C29.0162 3.20671 29.7614 3.46914 30.3263 4.05409C30.8039 4.54973 31.2517 5.07424 31.719 5.62162C31.9259 5.86405 32.1367 6.11096 32.3556 6.36184ZM29.1845 20.7809C27.2113 20.7769 25.5987 19.1602 25.5987 17.187C25.5987 15.1918 27.2294 13.5751 29.2306 13.5912C31.2018 13.6052 32.8024 15.2298 32.7924 17.2071C32.7844 19.1763 31.1598 20.7849 29.1845 20.7809ZM10.7926 13.5913C12.7739 13.5913 14.3885 15.1919 14.3965 17.1651C14.4065 19.1623 12.7819 20.7869 10.7826 20.7809C8.81343 20.7749 7.20081 19.1543 7.20281 17.1811C7.20481 15.2079 8.81944 13.5933 10.7906 13.5913H10.7926Z" fill="black"/>
</svg>
