<svg width="40" height="40" viewBox="0 0 40 40" fill="none" xmlns="http://www.w3.org/2000/svg">
<path d="M30.8098 38.6842C30.8098 36.7671 30.444 34.7319 30.9013 32.9062C31.473 30.6271 32.4335 28.325 33.7408 26.3774C38.2763 19.6161 35.2691 11.2273 30.989 8.00674C22.5126 1.62656 10.4306 5.89907 7.88082 16.1211C7.38153 18.1259 5.98658 19.9248 4.90035 21.7581C3.50921 24.1058 3.63879 24.7309 5.93322 26.1754C6.3982 26.4689 6.94704 27.0025 7.01564 27.4865C7.89987 33.9048 8.38391 34.427 14.6193 35.1892C14.6193 36.2945 14.6193 37.4189 14.6193 38.688" fill="#6478F0"/>
<g clip-path="url(#clip0_6_1188)">
<path d="M37.7788 16.1306C37.3514 15.9623 36.9847 15.669 36.7268 15.2889C36.4689 14.9088 36.3318 14.4597 36.3334 14.0003V13.9876C36.3311 13.5282 36.4674 13.0789 36.7247 12.6983C36.9819 12.3178 37.3481 12.0237 37.7752 11.8548C38.3514 11.6246 38.6386 10.9647 38.4153 10.3838C38.0318 9.38626 37.4918 8.45621 36.8156 7.62863C36.6258 7.39653 36.3524 7.24825 36.0543 7.21572C35.7563 7.1832 35.4574 7.26904 35.222 7.45475C34.862 7.739 34.4251 7.9087 33.9676 7.9419C33.5102 7.97509 33.0533 7.87025 32.656 7.64095C32.2593 7.4137 31.94 7.07255 31.7394 6.66171C31.5388 6.25087 31.4662 5.78926 31.531 5.33668C31.5738 5.0378 31.4973 4.73406 31.3179 4.4912C31.1384 4.24834 30.8706 4.08589 30.5723 4.03902C29.5195 3.8746 28.4473 3.87634 27.3949 4.04418C27.247 4.0676 27.1053 4.12018 26.9778 4.19886C26.8504 4.27755 26.7399 4.38076 26.6527 4.50251C26.4768 4.7454 26.4027 5.04738 26.4461 5.34413C26.4923 5.66903 26.4684 6.00008 26.3758 6.31492C26.2832 6.62977 26.1241 6.92107 25.9092 7.16915C25.6944 7.41723 25.4288 7.61632 25.1304 7.75296C24.832 7.8896 24.5078 7.96062 24.1796 7.96121C23.6656 7.96058 23.1665 7.78822 22.7616 7.47151C22.5257 7.28622 22.2264 7.20104 21.9283 7.23435C21.6301 7.26765 21.357 7.41676 21.1678 7.64954C20.4938 8.47877 19.9564 9.41013 19.5756 10.4086C19.3539 10.9898 19.6428 11.6489 20.2202 11.8777C20.6468 12.0469 21.0128 12.3403 21.2708 12.7199C21.5288 13.0995 21.6669 13.5477 21.6673 14.0067C21.6677 14.4657 21.5303 14.9142 21.2729 15.2942C21.0156 15.6742 20.6501 15.9682 20.2237 16.1382C19.6474 16.3673 19.3596 17.0275 19.5824 17.6086C19.965 18.6065 20.5042 19.537 21.1798 20.3651C21.2739 20.4812 21.3901 20.5775 21.5217 20.6484C21.6532 20.7193 21.7975 20.7633 21.9462 20.7781C22.2439 20.8088 22.5419 20.7224 22.7769 20.5372C23.1368 20.2549 23.5729 20.0867 24.0291 20.0542C24.4853 20.0218 24.9408 20.1265 25.337 20.3549C25.7332 20.5834 26.052 20.9251 26.2525 21.3362C26.4529 21.7473 26.5258 22.209 26.4618 22.6618C26.4187 22.9607 26.4951 23.2645 26.6743 23.5076C26.8536 23.7506 27.1213 23.9132 27.4196 23.9603C28.47 24.1252 29.5397 24.1248 30.59 23.9589C30.8882 23.9115 31.1558 23.7486 31.3349 23.5054C31.5139 23.2622 31.59 22.9583 31.5467 22.6594C31.481 22.2068 31.5527 21.745 31.7526 21.3337C31.9524 20.9224 32.2712 20.5805 32.6676 20.3525C33.0633 20.1219 33.5192 20.0156 33.9761 20.0475C34.433 20.0795 34.8697 20.2481 35.2294 20.5316C35.4648 20.7169 35.7631 20.8031 36.061 20.7718C36.2097 20.7569 36.354 20.7127 36.4854 20.6417C36.6169 20.5707 36.733 20.4743 36.827 20.3581C37.5017 19.5295 38.04 18.5987 38.4216 17.6007C38.6437 17.0192 38.3554 16.3599 37.7788 16.1306ZM31.7501 14.0003C31.7501 15.5167 30.5165 16.7503 29.0001 16.7503C27.4837 16.7503 26.2501 15.5167 26.2501 14.0003C26.2501 12.484 27.4837 11.2503 29.0001 11.2503C30.5165 11.2503 31.7501 12.484 31.7501 14.0003Z" fill="#FBFAF9" stroke="#6478F0" stroke-width="2"/>
</g>
<defs>
<clipPath id="clip0_6_1188">
<rect width="22" height="22" fill="white" transform="translate(18 3)"/>
</clipPath>
</defs>
</svg>
