<svg width="32" height="40" viewBox="0 0 32 40" fill="none" xmlns="http://www.w3.org/2000/svg">
<g clip-path="url(#clip0_1159_2862)">
<path d="M31.5752 34.6572C30.9059 33.4189 30.149 32.2261 29.4067 31.0297C28.9526 30.3002 28.2778 29.8133 27.4224 29.7221C26.5671 29.6309 25.3342 29.6582 24.4716 29.6509C24.3713 29.6509 24.2472 29.733 24.1725 29.8133C23.339 30.6923 22.5128 31.5805 21.5973 32.5562H22.1572C23.4922 32.5562 25.1901 32.5672 26.5233 32.5471C26.8425 32.5416 27.0139 32.6565 27.1689 32.921C27.7252 33.8766 28.2979 34.8232 28.8705 35.7697C29.0328 36.0378 29.2225 36.3406 28.9727 36.5977C28.7976 36.7764 28.4894 36.9023 28.2358 36.9096C27.054 36.9406 25.8704 36.9242 24.6886 36.9242C17.7291 36.9242 10.7714 36.9278 3.81182 36.9114C3.54555 36.9114 3.2118 36.7856 3.02942 36.5995C2.75768 36.326 2.98382 36.0123 3.15161 35.7351C3.72245 34.7885 4.29512 33.842 4.8532 32.8863C4.98998 32.6529 5.14135 32.5471 5.42586 32.5489C7.82048 32.5617 10.2169 32.5489 12.6115 32.5653L14.5593 34.4037C14.8566 34.6791 15.236 34.8159 15.6117 34.8159C16.022 34.8159 16.4305 34.6536 16.7351 34.3344C17.2184 33.8256 17.7017 33.3259 18.1795 32.8316C19.2683 31.7045 20.2969 30.6413 21.311 29.5032C24.2381 26.2149 26.2735 23.2312 27.7142 20.1126C29.0401 17.242 29.518 14.5464 29.1751 11.8728C28.7082 8.23797 26.6747 4.87858 23.5962 2.65357C20.4957 0.413969 16.6293 -0.466915 12.9909 0.237063C8.9494 1.02129 5.48422 3.55634 3.48354 7.19113C1.52115 10.7566 1.26583 14.8328 2.76862 18.6682C3.86106 21.4585 5.50064 24.1978 7.92991 27.2873C8.55364 28.0807 9.2102 28.8631 9.89594 29.6418C8.32202 29.6418 6.7481 29.6345 5.17418 29.6455C4.1018 29.6528 3.2118 30.085 2.63001 30.9859C1.85126 32.1951 1.0871 33.4207 0.410474 34.6882C-0.822399 37.0026 0.864595 39.8203 3.48719 39.8276C11.8255 39.8459 20.1638 39.844 28.5021 39.8276C31.1484 39.8222 32.8318 36.9844 31.5752 34.6572ZM5.65566 17.5392C4.49574 14.5756 4.68906 11.4332 6.20097 8.68662C7.73294 5.90172 10.4923 3.88097 13.5818 3.28095C14.211 3.15875 14.8475 3.09857 15.4858 3.09857C17.6944 3.09857 19.9121 3.81531 21.7833 5.16673C24.1706 6.89203 25.7446 9.47997 26.1038 12.2685C26.3738 14.375 25.9926 16.4541 24.9038 18.8122C23.5962 21.6446 21.7195 24.3875 19.0002 27.4405C18.03 28.5311 17.0233 29.5725 15.9564 30.6759C15.8269 30.8109 15.6956 30.9458 15.5642 31.0808C13.5946 29.1768 11.8857 27.2983 10.3683 25.3687C8.13235 22.5254 6.63503 20.036 5.65748 17.5356L5.65566 17.5392Z" fill="black"/>
<path d="M15.6355 17.645C17.751 17.645 19.4672 15.9288 19.4672 13.8132C19.4672 11.6976 17.751 9.98145 15.6355 9.98145C13.5199 9.98145 11.8037 11.6976 11.8037 13.8132C11.8037 15.9288 13.5199 17.645 15.6355 17.645Z" fill="black"/>
</g>
<defs>
<clipPath id="clip0_1159_2862">
<rect width="32" height="39.8422" fill="white"/>
</clipPath>
</defs>
</svg>
