<svg width="131" height="60" viewBox="0 0 131 60" fill="none" xmlns="http://www.w3.org/2000/svg">
    <path d="M72.083 59.2778V5.72205e-05H130.72C130.72 0.210384 130.73 0.420712 130.73 0.631039C130.73 33.0213 104.473 59.2778 72.083 59.2778Z" fill="url(#paint0_linear_1678_4882)"/>
    <path d="M24.0264 59.2778V5.72205e-05H72.0786C72.0786 0.210384 72.0835 0.420712 72.0835 0.631039C72.0835 33.0213 50.5715 59.2778 24.0264 59.2778Z" fill="url(#paint1_linear_1678_4882)"/>
    <path d="M0 59.2778V5.72205e-05H24.0261C24.0261 0.210384 24.0261 0.420712 24.0261 0.631039C24.0261 33.0213 13.2701 59.2778 0 59.2778Z" fill="url(#paint2_linear_1678_4882)"/>
    <defs>
        <linearGradient id="paint0_linear_1678_4882" x1="101.406" y1="59.2778" x2="101.406" y2="5.72205e-05" gradientUnits="userSpaceOnUse">
            <stop stop-color="#6478F0" stop-opacity="0.2"/>
            <stop offset="1" stop-color="white" stop-opacity="0"/>
        </linearGradient>
        <linearGradient id="paint1_linear_1678_4882" x1="48.0549" y1="59.2778" x2="48.0549" y2="5.72205e-05" gradientUnits="userSpaceOnUse">
            <stop stop-color="#6478F0" stop-opacity="0.2"/>
            <stop offset="1" stop-color="white" stop-opacity="0"/>
        </linearGradient>
        <linearGradient id="paint2_linear_1678_4882" x1="12.0131" y1="59.2778" x2="12.0131" y2="5.72205e-05" gradientUnits="userSpaceOnUse">
            <stop stop-color="#6478F0" stop-opacity="0.2"/>
            <stop offset="1" stop-color="white" stop-opacity="0"/>
        </linearGradient>
    </defs>
</svg>
