<svg width="20" height="20" viewBox="0 0 20 20" fill="none" xmlns="http://www.w3.org/2000/svg">
<path d="M18.3334 10.8333V4.99992C18.3334 4.55789 18.1578 4.13397 17.8453 3.82141C17.5327 3.50885 17.1088 3.33325 16.6667 3.33325H3.33341C2.89139 3.33325 2.46746 3.50885 2.1549 3.82141C1.84234 4.13397 1.66675 4.55789 1.66675 4.99992V14.9999C1.66675 15.9166 2.41675 16.6666 3.33341 16.6666H10.0001" stroke="#F38B64" stroke-width="1.66667" stroke-linecap="round" stroke-linejoin="round"/>
<path d="M18.3334 5.83325L10.8584 10.5833C10.6011 10.7444 10.3037 10.8299 10.0001 10.8299C9.69648 10.8299 9.39902 10.7444 9.14175 10.5833L1.66675 5.83325" stroke="#F38B64" stroke-width="1.66667" stroke-linecap="round" stroke-linejoin="round"/>
<path d="M13.3333 15.8334L14.9999 17.5001L18.3333 14.1667" stroke="#F38B64" stroke-width="1.66667" stroke-linecap="round" stroke-linejoin="round"/>
</svg>
