<svg width="17" height="19" viewBox="0 0 17 19" fill="none" xmlns="http://www.w3.org/2000/svg">
<path d="M14.4844 11.3369C14.4844 12.1598 14.4884 12.923 14.4844 13.6861C14.4804 14.4951 14.1935 14.9056 13.4264 15.1745C12.8326 15.3838 12.2348 15.577 11.6371 15.7743C10.7823 16.0552 10.5033 16.4398 10.5013 17.3504C10.5013 17.5955 10.5013 17.8425 10.5013 18.1175C8.27767 18.1175 6.09784 18.1175 3.84629 18.1175C3.84629 17.4082 3.8164 16.7148 3.85226 16.0273C3.91005 14.9574 3.51354 14.1464 2.75239 13.3833C0.596474 11.2254 -0.0451196 8.60916 0.969077 5.74789C1.96733 2.92647 4.08539 1.28861 7.06223 0.935936C10.4894 0.52946 13.3586 2.48214 14.1277 5.88338C14.4386 7.25623 15.0562 8.30231 15.9409 9.30057C16.7937 10.265 16.6941 10.5718 15.4886 10.9882C15.1599 11.1018 14.8351 11.2154 14.4844 11.3369ZM6.65974 6.87765C6.7235 6.70032 6.76335 6.53892 6.83906 6.39347C7.09212 5.90132 7.52649 5.75586 8.04654 5.79173C8.51279 5.82361 8.8834 6.00692 9.03084 6.48313C9.18825 6.98924 9.00295 7.39571 8.60444 7.70854C8.39722 7.87193 8.16808 8.00941 7.9489 8.15486C7.24753 8.62311 7.03234 9.28264 7.17381 10.1215C7.57829 10.1215 7.96883 10.1215 8.42711 10.1215C8.28165 9.28662 8.81565 8.88214 9.42935 8.52747C9.55687 8.45374 9.67842 8.36209 9.79 8.26445C10.9397 7.2642 10.7006 5.53071 9.31179 4.90107C8.43707 4.50455 7.54043 4.50854 6.66173 4.90306C5.8687 5.25972 5.41441 6.02087 5.47219 6.85175C5.56783 6.85972 5.66547 6.87566 5.7631 6.87566C6.05999 6.87965 6.35687 6.87765 6.65974 6.87765ZM7.8433 11.6996C7.29735 11.6996 6.91478 12.0742 6.92873 12.5962C6.94268 13.0983 7.31528 13.447 7.84131 13.449C8.39324 13.451 8.75787 13.0884 8.74591 12.5504C8.73197 12.0283 8.38128 11.6996 7.8433 11.6996Z" fill="black"/>
</svg>
