<svg width="18" height="22" viewBox="0 0 18 22" fill="none" xmlns="http://www.w3.org/2000/svg">
<path d="M9.60433 0C10.2479 0.378703 10.8385 0.698797 11.402 1.06172C13.5875 2.47058 15.4134 4.23223 16.616 6.56756C17.8152 8.89839 18.2852 11.3678 17.8276 13.9703C17.2145 17.4541 14.3043 20.3237 10.8069 20.9256C8.6542 21.2964 6.56006 21.1014 4.59216 20.1208C2.15201 18.9047 0.776955 16.8714 0.202138 14.2408C-0.68601 10.1878 1.50055 6.93387 3.8742 5.34692C3.91365 5.321 3.95197 5.29507 3.99255 5.27028C4.28334 5.09333 4.36787 5.13728 4.38703 5.47428C4.43662 6.3444 4.63837 7.18295 5.02271 7.96064C5.41944 8.76313 5.32815 8.61098 5.98186 8.34498C8.12108 7.47487 9.25606 5.82143 9.62011 3.58753C9.79481 2.51454 9.7486 1.44042 9.60659 0.368559C9.59419 0.27501 9.60546 0.179208 9.60546 0L9.60433 0Z" fill="#F34108"/>
</svg>
