<svg width="16" height="16" viewBox="0 0 16 16" fill="none" xmlns="http://www.w3.org/2000/svg">
<g clip-path="url(#clip0_1159_2718)">
<path d="M11.4304 10.8738C11.6011 10.8738 11.8013 10.8714 12.0008 10.8738C13.0534 10.8866 13.9538 10.4965 14.7197 9.80036C15.9549 8.67724 16.3331 6.90125 15.6914 5.35115C15.0409 3.77943 13.5237 2.81333 11.8021 2.88382C11.6547 2.89023 11.5818 2.84938 11.5057 2.722C10.6358 1.26163 9.34522 0.448534 7.65173 0.331576C5.46398 0.180973 3.47089 1.55403 2.80038 3.64565C2.67942 4.02296 2.62094 4.4203 2.53202 4.81683C0.747213 5.18693 -0.0674871 6.70658 0.00380917 7.99552C0.060686 9.0185 0.889805 10.3171 1.61078 10.4605C1.56752 10.0006 1.67006 9.57445 1.91359 9.18032C1.53708 8.84146 1.31598 8.43291 1.28714 7.93704C1.22786 6.90846 2.03455 6.06812 3.06875 6.07373C3.64392 6.07693 3.85381 5.85023 3.8474 5.27185C3.84419 5.00028 3.85621 4.7231 3.90908 4.45795C4.2215 2.88622 5.44475 1.76631 7.05092 1.61491C8.54334 1.47392 9.97807 2.29102 10.5973 3.7546C10.7784 4.18237 11.0139 4.30254 11.4673 4.21121C13.462 3.81227 15.1771 5.6836 14.6051 7.63423C14.2807 8.74213 13.3218 9.51037 12.1642 9.59608C12.1057 9.60009 12.0232 9.63934 11.9992 9.68661C11.8045 10.0759 11.6211 10.4717 11.4304 10.8738ZM6.14089 10.8738C6.98043 10.8738 7.81996 10.8834 8.65949 10.8714C10.1367 10.8498 11.1765 9.46551 10.7952 8.04199C10.5573 7.15439 9.76018 6.48709 8.83653 6.40297C7.90808 6.31886 6.99645 6.84517 6.61033 7.68711C6.48936 7.95066 6.53102 8.23344 6.72008 8.42811C6.90272 8.61716 7.18711 8.69887 7.41381 8.56509C7.56922 8.47377 7.6982 8.31435 7.80154 8.16055C8.01703 7.84011 8.30141 7.66147 8.68593 7.6799C9.07125 7.69752 9.35323 7.89619 9.51425 8.24706C9.80664 8.88632 9.3332 9.59128 8.60742 9.59288C6.94838 9.59608 5.28934 9.59368 3.63111 9.59448C3.54539 9.59448 3.45647 9.59448 3.37316 9.61371C3.05833 9.68901 2.85326 9.98301 2.8861 10.2994C2.91894 10.6199 3.18731 10.869 3.52536 10.8706C4.39774 10.8754 5.27092 10.8722 6.1433 10.8722L6.14089 10.8738ZM8.55856 11.8343C7.53317 11.8343 6.50699 11.8327 5.4816 11.8343C5.17719 11.8343 4.94969 11.9809 4.84715 12.2324C4.67011 12.669 4.98894 13.112 5.48801 13.112C7.21995 13.1136 8.95189 13.112 10.683 13.112C10.9698 13.112 11.2558 13.1056 11.5418 13.1144C11.871 13.1248 12.1346 13.3908 12.1538 13.7136C12.1722 14.0277 11.9495 14.3177 11.6363 14.3793C11.4256 14.421 11.2478 14.3481 11.078 14.2239C10.7727 13.9996 10.3882 14.0541 10.1735 14.3393C9.96125 14.6213 10.0061 15.0002 10.2969 15.2285C10.9033 15.7059 11.5786 15.8133 12.2844 15.5017C12.9974 15.1868 13.3891 14.6117 13.4275 13.8322C13.482 12.7443 12.6264 11.8463 11.5346 11.8343C10.542 11.8231 9.5495 11.8319 8.55696 11.8319L8.55856 11.8343Z" fill="white"/>
<path d="M11.4304 10.8738C11.6219 10.4717 11.8045 10.0759 11.9992 9.68661C12.0224 9.63934 12.1058 9.60089 12.1642 9.59608C13.3218 9.50957 14.2799 8.74213 14.6051 7.63424C15.1771 5.6828 13.462 3.81228 11.4673 4.21121C11.0131 4.30174 10.7784 4.18237 10.5973 3.7546C9.97888 2.29102 8.54334 1.47392 7.05093 1.61491C5.44556 1.76711 4.22151 2.88623 3.90909 4.45795C3.85621 4.7231 3.845 5.00028 3.8474 5.27185C3.85381 5.85023 3.64393 6.07693 3.06875 6.07373C2.03455 6.06812 1.22787 6.90846 1.28715 7.93704C1.31598 8.43291 1.53628 8.84146 1.91359 9.18032C1.67006 9.57365 1.56752 10.0006 1.61078 10.4605C0.889809 10.3171 0.0606897 9.0185 0.00381295 7.99552C-0.0674833 6.70658 0.746415 5.18693 2.53123 4.81683C2.62015 4.4203 2.67862 4.02296 2.79959 3.64565C3.47089 1.55403 5.46318 0.180973 7.65174 0.331576C9.34522 0.448534 10.6358 1.26163 11.5065 2.72361C11.5818 2.85098 11.6555 2.89103 11.8029 2.88542C13.5237 2.81413 15.0417 3.78023 15.6922 5.35276C16.3339 6.90285 15.9557 8.67805 14.7205 9.80196C13.9546 10.4981 13.0542 10.8882 12.0016 10.8754C11.8021 10.873 11.6027 10.8754 11.4312 10.8754L11.4304 10.8738Z" fill="black"/>
<path d="M6.14184 10.8735C5.26947 10.8735 4.39629 10.8767 3.52391 10.8719C3.18665 10.8703 2.91749 10.6212 2.88465 10.3008C2.8526 9.98354 3.05688 9.69035 3.3717 9.61505C3.45422 9.59502 3.54314 9.59582 3.62965 9.59582C5.28869 9.59502 6.94773 9.59742 8.60597 9.59422C9.33095 9.59261 9.80519 8.88766 9.51279 8.2484C9.35258 7.89833 9.0706 7.69886 8.68448 7.68123C8.29996 7.66361 8.01477 7.84145 7.80008 8.16188C7.69674 8.31569 7.56777 8.47511 7.41236 8.56643C7.18565 8.69941 6.90127 8.6185 6.71862 8.42945C6.52957 8.23398 6.48791 7.9512 6.60887 7.68844C6.9958 6.84571 7.90743 6.3202 8.83508 6.40431C9.75873 6.48762 10.5558 7.15492 10.7937 8.04332C11.175 9.46685 10.1352 10.8511 8.65804 10.8727C7.81851 10.8848 6.97897 10.8751 6.13944 10.8751L6.14184 10.8735Z" fill="black"/>
<path d="M8.55936 11.8343C9.5519 11.8343 10.5444 11.8255 11.537 11.8367C12.6289 11.8488 13.4844 12.7468 13.4299 13.8346C13.3907 14.6141 12.999 15.1893 12.2868 15.5041C11.581 15.8157 10.9065 15.7084 10.2993 15.2309C10.0085 15.0018 9.96365 14.6237 10.1759 14.3417C10.3906 14.0565 10.7751 14.0021 11.0804 14.2264C11.2502 14.3505 11.428 14.4234 11.6387 14.3818C11.9519 14.3201 12.1746 14.0301 12.1562 13.7161C12.137 13.3933 11.8734 13.1281 11.5442 13.1169C11.2582 13.1073 10.9714 13.1145 10.6854 13.1145C8.95349 13.1145 7.22155 13.1161 5.49041 13.1145C4.99054 13.1145 4.67171 12.6715 4.84955 12.2349C4.95209 11.9825 5.17879 11.8367 5.48401 11.8367C6.50939 11.8351 7.53558 11.8367 8.56096 11.8367L8.55936 11.8343Z" fill="black"/>
</g>
<defs>
<clipPath id="clip0_1159_2718">
<rect width="16" height="15.3599" fill="white" transform="translate(0 0.320312)"/>
</clipPath>
</defs>
</svg>
