<svg width="14" height="16" viewBox="0 0 14 16" fill="none" xmlns="http://www.w3.org/2000/svg">
<path d="M10.7739 10.3677C11.268 9.8781 11.6601 9.29543 11.9278 8.65339C12.1954 8.01136 12.3332 7.32266 12.3332 6.62708C12.3332 5.9315 12.1954 5.24281 11.9278 4.60077C11.6601 3.95873 11.268 3.37607 10.7739 2.88642C8.69062 0.815083 5.30928 0.815083 3.22595 2.88642C2.73191 3.37607 2.33976 3.95873 2.07214 4.60077C1.80452 5.24281 1.66673 5.9315 1.66673 6.62708C1.66673 7.32266 1.80452 8.01136 2.07214 8.65339C2.33976 9.29543 2.73191 9.8781 3.22595 10.3677L6.99995 14.1197L10.7739 10.3677ZM2.28595 11.3137C1.66714 10.7002 1.17597 9.97012 0.840775 9.16572C0.505583 8.36133 0.333008 7.49852 0.333008 6.62708C0.333008 5.75565 0.505583 4.89283 0.840775 4.08844C1.17597 3.28405 1.66714 2.554 2.28595 1.94042C4.88928 -0.646917 9.11061 -0.646917 11.7133 1.94108C12.3321 2.55466 12.8233 3.28471 13.1585 4.08911C13.4936 4.8935 13.6662 5.75631 13.6662 6.62775C13.6662 7.49919 13.4936 8.362 13.1585 9.16639C12.8233 9.97079 12.3321 10.7008 11.7133 11.3144L6.99995 15.9997L2.28595 11.3131V11.3137ZM6.99995 7.99975C7.35357 7.99975 7.69271 7.85927 7.94276 7.60923C8.19281 7.35918 8.33328 7.02004 8.33328 6.66642C8.33328 6.31279 8.19281 5.97366 7.94276 5.72361C7.69271 5.47356 7.35357 5.33308 6.99995 5.33308C6.64633 5.33308 6.30719 5.47356 6.05714 5.72361C5.80709 5.97366 5.66662 6.31279 5.66662 6.66642C5.66662 7.02004 5.80709 7.35918 6.05714 7.60923C6.30719 7.85927 6.64633 7.99975 6.99995 7.99975ZM6.99995 9.33308C6.64974 9.33311 6.30296 9.26415 5.9794 9.13015C5.65584 8.99615 5.36184 8.79973 5.1142 8.55211C4.86655 8.30448 4.67011 8.0105 4.53609 7.68695C4.40206 7.3634 4.33308 7.01662 4.33308 6.66642C4.33308 6.31621 4.40206 5.96943 4.53609 5.64588C4.67011 5.32233 4.86655 5.02835 5.1142 4.78073C5.36184 4.5331 5.65584 4.33668 5.9794 4.20268C6.30296 4.06868 6.64974 3.99972 6.99995 3.99975C7.70716 3.9998 8.38538 4.28078 8.88544 4.78087C9.38549 5.28096 9.66641 5.95921 9.66641 6.66642C9.66641 7.37362 9.38549 8.05187 8.88544 8.55196C8.38538 9.05205 7.70716 9.33303 6.99995 9.33308Z" fill="#333333"/>
</svg>
