<svg width="16" height="16" viewBox="0 0 16 16" fill="none" xmlns="http://www.w3.org/2000/svg">
<g clip-path="url(#clip0_1159_2696)">
<path d="M6.38974 7.54075C6.24064 7.55598 6.10357 7.5672 5.9665 7.58403C4.68313 7.73634 3.43343 8.0153 2.26229 8.58043C1.54004 8.92912 0.880324 9.36279 0.415394 10.0361C0.0899435 10.5075 -0.0655675 11.0269 0.0250136 11.6049C0.145254 12.3736 0.60297 12.9251 1.19455 13.3764C2.29195 14.2133 3.57371 14.6077 4.90517 14.8634C6.31359 15.1343 7.73483 15.1985 9.16489 15.1055C10.4402 15.0221 11.6915 14.8161 12.898 14.3816C13.7573 14.0722 14.5653 13.669 15.2186 13.0125C16.2615 11.9648 16.2583 10.6438 15.2186 9.59445C14.8202 9.19205 14.3537 8.88503 13.8511 8.63333C12.7489 8.08263 11.5697 7.79085 10.3561 7.62331C10.1092 7.58964 9.86149 7.5656 9.61219 7.53674V8.80888C10.0667 8.88263 10.51 8.94034 10.9469 9.02852C11.8976 9.2193 12.825 9.48864 13.6579 10.0009C13.9432 10.1764 14.2126 10.3985 14.4378 10.6462C14.8258 11.0726 14.8194 11.5191 14.4418 11.9584C14.2751 12.1532 14.0747 12.3279 13.8631 12.4746C13.1865 12.9444 12.421 13.2185 11.6314 13.4197C9.58734 13.9407 7.5208 13.9937 5.44465 13.6514C4.39616 13.4782 3.3685 13.2113 2.44586 12.663C2.10838 12.4618 1.78934 12.2021 1.52561 11.9119C1.17131 11.5223 1.19215 11.0886 1.52722 10.679C1.6691 10.5059 1.83664 10.3448 2.0178 10.2133C2.87632 9.59044 3.8679 9.28503 4.88834 9.06539C5.38133 8.95878 5.88313 8.89145 6.38894 8.80487V7.53994L6.38974 7.54075ZM7.35968 4.14756C7.35968 4.24135 7.35968 4.31269 7.35968 4.38483C7.35968 5.87181 7.35968 7.35798 7.35968 8.84495C7.35968 9.99846 7.35808 11.1512 7.35968 12.3047C7.35968 12.7399 7.67872 13.0341 8.08674 12.986C8.4202 12.9468 8.63904 12.6638 8.63904 12.2694C8.63904 9.64976 8.63904 7.02932 8.63904 4.40968C8.63904 4.32632 8.63904 4.24295 8.63904 4.14756C8.98854 4.14756 9.30758 4.14756 9.62662 4.14756C9.87672 4.14756 10.0643 4.03854 10.1749 3.81489C10.2823 3.59846 10.2599 3.38443 10.1116 3.19445C9.56409 2.48904 9.0174 1.78283 8.46028 1.08543C8.20858 0.770404 7.77892 0.77842 7.52722 1.09666C6.98052 1.78604 6.44105 2.48103 5.89996 3.17441C5.74686 3.37 5.70998 3.58483 5.8206 3.81089C5.93363 4.04415 6.12842 4.14996 6.38654 4.14916C6.69916 4.14756 7.01259 4.14916 7.35968 4.14916V4.14756Z" fill="#333333"/>
<path d="M6.38943 7.54129V8.80622C5.88362 8.8928 5.38262 8.96093 4.88883 9.06674C3.86839 9.28638 2.87761 9.59179 2.01829 10.2146C1.83713 10.3461 1.66959 10.5072 1.52771 10.6804C1.19264 11.09 1.17179 11.5237 1.5261 11.9132C1.78983 12.2042 2.10887 12.4639 2.44634 12.6643C3.36899 13.2126 4.39664 13.4796 5.44514 13.6527C7.52129 13.995 9.58702 13.9421 11.6319 13.4211C12.4223 13.2199 13.1878 12.9457 13.8636 12.476C14.0744 12.3293 14.2748 12.1545 14.4423 11.9597C14.8191 11.5196 14.8263 11.074 14.4383 10.6475C14.2131 10.3998 13.9437 10.1778 13.6584 10.0022C12.8255 9.48999 11.898 9.22065 10.9473 9.02987C10.5105 8.94249 10.0672 8.88398 9.61268 8.81023V7.53809C9.86197 7.56694 10.1097 7.59099 10.3566 7.62466C11.5702 7.79219 12.7485 8.08318 13.8516 8.63468C14.355 8.88638 14.8207 9.1934 15.2191 9.5958C16.2588 10.6443 16.262 11.9653 15.2191 13.0138C14.5658 13.6704 13.757 14.0736 12.8984 14.383C11.692 14.8174 10.4407 15.0235 9.16538 15.1068C7.73532 15.2006 6.31408 15.1357 4.90566 14.8647C3.5742 14.609 2.29324 14.2138 1.19504 13.3778C0.602656 12.9265 0.144941 12.375 0.0255019 11.6062C-0.0650792 11.0283 0.0904318 10.5088 0.415883 10.0375C0.880813 9.36414 1.54053 8.93047 2.26278 8.58177C3.43392 8.01664 4.68362 7.73769 5.96699 7.58538C6.10406 7.56935 6.24113 7.55732 6.39023 7.54209L6.38943 7.54129Z" fill="#333333"/>
<path d="M7.35981 4.14819C7.01272 4.14819 6.70009 4.14738 6.38666 4.14819C6.12935 4.14979 5.93456 4.04318 5.82073 3.80991C5.71091 3.58386 5.74779 3.36903 5.90009 3.17344C6.44197 2.48005 6.98065 1.78506 7.52734 1.09568C7.77985 0.777444 8.20871 0.769428 8.46041 1.08446C9.01753 1.78185 9.56422 2.48807 10.1117 3.19348C10.2592 3.38346 10.2825 3.59748 10.175 3.81392C10.0644 4.03756 9.87684 4.14658 9.62674 4.14658C9.30771 4.14658 8.98867 4.14658 8.63917 4.14658C8.63917 4.24197 8.63917 4.32534 8.63917 4.40871C8.63917 7.02835 8.63917 9.64879 8.63917 12.2684C8.63917 12.6628 8.42033 12.945 8.08686 12.9851C7.67885 13.0332 7.36061 12.739 7.35981 12.3037C7.35821 11.1502 7.35981 9.99748 7.35981 8.84398C7.35981 7.357 7.35981 5.87083 7.35981 4.38386C7.35981 4.31251 7.35981 4.24037 7.35981 4.14658V4.14819Z" fill="#333333"/>
</g>
<defs>
<clipPath id="clip0_1159_2696">
<rect width="16" height="14.2934" fill="white" transform="translate(0 0.853516)"/>
</clipPath>
</defs>
</svg>
