<svg width="16" height="16" viewBox="0 0 16 16" fill="none" xmlns="http://www.w3.org/2000/svg">
<g clip-path="url(#clip0_1159_2741)">
<path d="M12.86 12.86C12.0624 13.655 11.0818 14.242 10.0043 14.5695C8.92686 14.897 7.78548 14.9551 6.68035 14.7385C5.57523 14.522 4.54016 14.0374 3.666 13.3275C2.79183 12.6175 2.1053 11.7039 1.66667 10.6667C0.961673 8.98674 0.951782 7.09576 1.63917 5.40855C2.32655 3.72133 3.65508 2.37564 5.33334 1.66667C7.01327 0.961669 8.90424 0.951778 10.5915 1.63916C12.2787 2.32655 13.6244 3.65508 14.3333 5.33333C14.8659 6.59298 15.0101 7.98294 14.7476 9.3251C14.4851 10.6673 13.8278 11.9005 12.86 12.8667V12.86ZM8 0C6.41775 0 4.87103 0.469192 3.55544 1.34824C2.23985 2.22729 1.21447 3.47672 0.608967 4.93853C0.00346625 6.40034 -0.15496 8.00887 0.153721 9.56072C0.462403 11.1126 1.22433 12.538 2.34315 13.6569C3.46197 14.7757 4.88743 15.5376 6.43928 15.8463C7.99113 16.155 9.59966 15.9965 11.0615 15.391C12.5233 14.7855 13.7727 13.7602 14.6518 12.4446C15.5308 11.129 16 9.58225 16 8C16 5.87827 15.1571 3.84344 13.6569 2.34315C12.1566 0.842855 10.1217 0 8 0Z" fill="#333333"/>
<path d="M10.9601 6.32694H8.35348L10.2001 4.48693C10.2522 4.43484 10.2936 4.373 10.3218 4.30494C10.3499 4.23688 10.3645 4.16394 10.3645 4.09027C10.3645 4.0166 10.3499 3.94365 10.3218 3.87559C10.2936 3.80753 10.2522 3.74569 10.2001 3.6936C10.1481 3.64151 10.0862 3.60019 10.0182 3.572C9.9501 3.54381 9.87715 3.5293 9.80348 3.5293C9.72982 3.5293 9.65687 3.54381 9.58881 3.572C9.52075 3.60019 9.45891 3.64151 9.40682 3.6936L8.00015 5.12693L6.54682 3.6736C6.43879 3.5776 6.29817 3.5265 6.15371 3.53075C6.00926 3.535 5.87188 3.59429 5.76969 3.69648C5.6675 3.79867 5.60822 3.93604 5.60397 4.0805C5.59971 4.22495 5.65081 4.36558 5.74682 4.4736L7.59348 6.32027H5.02015C4.87809 6.32202 4.74245 6.37969 4.64261 6.48077C4.54278 6.58185 4.48681 6.7182 4.48682 6.86027V6.9136C4.48857 7.05389 4.54553 7.18784 4.64536 7.28642C4.74519 7.385 4.87985 7.44028 5.02015 7.44027H7.43348V8.44027H5.52015C5.37809 8.44376 5.24314 8.50311 5.14455 8.60545C5.04597 8.70778 4.99169 8.84485 4.99348 8.98693V9.04694C4.99252 9.11575 5.00559 9.18403 5.03189 9.24763C5.05819 9.31122 5.09717 9.36879 5.14646 9.41683C5.19574 9.46486 5.25429 9.50235 5.31854 9.52702C5.38279 9.55168 5.45138 9.56299 5.52015 9.56027H7.43348V11.8936C7.43348 12.043 7.49283 12.1863 7.59848 12.2919C7.70413 12.3976 7.84741 12.4569 7.99682 12.4569C8.14622 12.4569 8.28951 12.3976 8.39515 12.2919C8.5008 12.1863 8.56015 12.043 8.56015 11.8936V9.56027H10.4601C10.6005 9.56388 10.7366 9.512 10.8389 9.4159C10.9413 9.3198 11.0016 9.18723 11.0068 9.04694V8.98693C11.0034 8.84302 10.9447 8.70593 10.843 8.60413C10.7412 8.50234 10.6041 8.44366 10.4601 8.44027H8.56015V7.46693H10.9601C11.0302 7.46871 11.0999 7.45666 11.1653 7.43148C11.2307 7.40631 11.2905 7.36849 11.3412 7.3202C11.392 7.27191 11.4327 7.21409 11.4612 7.15004C11.4896 7.086 11.5051 7.01698 11.5068 6.94693V6.88693C11.5036 6.7417 11.4454 6.60311 11.3439 6.49916C11.2424 6.39521 11.1053 6.33366 10.9601 6.32694Z" fill="#333333"/>
</g>
<defs>
<clipPath id="clip0_1159_2741">
<rect width="16" height="16" fill="white"/>
</clipPath>
</defs>
</svg>
