<svg width="40" height="40" viewBox="0 0 40 40" fill="none" xmlns="http://www.w3.org/2000/svg">
<g clip-path="url(#clip0_6_1219)">
<path d="M37.4102 16.055C37.1485 12.1214 36.3165 8.2698 34.9219 4.55886C34.8492 4.36336 34.7284 4.18933 34.5707 4.0528C34.413 3.91626 34.2235 3.82163 34.0196 3.77761C33.6055 3.68776 33.1758 3.81276 32.875 4.10964C30.5782 6.37526 27.9688 8.18386 25.1094 9.48855C23.4727 10.2346 21.6094 10.8557 19.7266 11.2815C19.4024 11.3557 19.0782 11.4221 18.754 11.4846V11.4807C18.754 11.0081 18.3711 10.6253 17.8985 10.6253H8.19927C3.71489 10.6253 -0.0155761 14.2932 4.89062e-05 18.7776C0.00786141 21.0003 0.918018 23.0237 2.38677 24.4885C3.26567 25.3675 4.3438 26.0471 5.54302 26.4534C6.17974 26.6682 6.61724 27.2542 6.64849 27.93C6.67583 28.5784 6.77349 29.2229 6.93755 29.8518C7.48833 31.969 8.66411 33.4534 9.69927 34.4104C10.2579 34.926 11.1485 34.8245 11.5782 34.1956L12.293 33.1487C12.6329 32.6487 12.5743 31.9729 12.1407 31.551C11.5547 30.9807 10.8829 30.1057 10.5704 28.9065C10.5704 28.8987 10.5665 28.8909 10.5625 28.8831C10.3008 27.8675 11.0782 26.8792 12.129 26.8792H17.8985C18.3711 26.8792 18.754 26.4964 18.754 26.0237C19.0821 26.0862 19.4063 26.1526 19.7305 26.2229C21.5977 26.6409 23.4571 27.262 25.1094 28.0159C27.9649 29.3206 30.5782 31.1292 32.875 33.3948C33.1094 33.6292 33.4258 33.7542 33.754 33.7542C33.8438 33.7542 33.9336 33.7464 34.0235 33.7229C34.4375 33.6331 34.7774 33.3401 34.9258 32.9417C36.3204 29.2346 37.1563 25.3792 37.418 21.4495C38.1915 21.1057 38.7579 20.0276 38.7579 18.7542C38.7579 17.4807 38.1836 16.3987 37.4102 16.055Z" fill="#6478F0"/>
<path d="M26.1445 25.7383C28.6914 26.8984 31.0547 28.4219 33.1992 30.2852C34.3945 26.5547 35 22.6836 35 18.75C35 14.8164 34.3945 10.9453 33.1992 7.21484C31.0547 9.07422 28.6914 10.6016 26.1445 11.7617C24.4297 12.5234 20.55 14.0422 18.75 14.0234V23.4805C20.5964 23.924 24.6602 24.9966 26.1445 25.7383Z" fill="#FBFAF9"/>
</g>
<defs>
<clipPath id="clip0_6_1219">
<rect width="40" height="40" fill="white"/>
</clipPath>
</defs>
</svg>
