<svg width="15" height="12" viewBox="0 0 15 12" fill="none" xmlns="http://www.w3.org/2000/svg">
<path fill-rule="evenodd" clip-rule="evenodd" d="M9.8737 1.16782L13.8723 5.66619C13.9517 5.75471 14 5.87172 14 6.00001C14 6.12834 13.9516 6.24539 13.8722 6.33392L9.87371 10.8322C9.69025 11.0386 9.37421 11.0572 9.16782 10.8737C8.96143 10.6903 8.94284 10.3742 9.1263 10.1678L12.3866 6.50001H1.5C1.22386 6.50001 1 6.27615 1 6.00001C1 5.72386 1.22386 5.50001 1.5 5.50001H12.3866L9.1263 1.83219C8.94284 1.6258 8.96143 1.30976 9.16782 1.1263C9.37421 0.942842 9.69025 0.961432 9.8737 1.16782Z" fill="black"/>
</svg>
