<svg width="28" height="18" viewBox="0 0 28 18" fill="none" xmlns="http://www.w3.org/2000/svg">
<path d="M27.7455 4.62857C27.4909 2.7 27.2364 1.28571 26.4727 0.771428C25.7091 0.128571 19.0909 0 14 0C8.90909 0 2.29091 0.128571 1.52727 0.771428C0.763636 1.28571 0.509091 2.7 0.254546 4.62857C5.96046e-08 6.55714 0 7.71429 0 9C0 10.2857 5.96046e-08 11.4429 0.254546 13.3714C0.509091 15.3 0.763636 16.7143 1.52727 17.2286C2.29091 17.8714 8.90909 18 14 18C19.0909 18 25.7091 17.8714 26.4727 17.2286C27.2364 16.7143 27.4909 15.3 27.7455 13.3714C28 11.4429 28 10.2857 28 9C28 7.71429 28 6.55714 27.7455 4.62857ZM11.4545 13.6286V4.37143L19.0909 9L11.4545 13.6286Z" fill="black"/>
</svg>
