<svg width="29" height="20" viewBox="0 0 29 20" fill="none" xmlns="http://www.w3.org/2000/svg">
<path d="M18.9998 2.46245e-07C17.6225 0.000374119 16.2604 0.287109 14.9998 0.842C13.478 0.175462 11.8141 -0.101381 10.1585 0.0364893C8.50284 0.174359 6.90765 0.722597 5.51705 1.63166C4.12645 2.54072 2.98428 3.78196 2.19375 5.2432C1.40323 6.70444 0.989258 8.33963 0.989258 10.001C0.989258 11.6624 1.40323 13.2976 2.19375 14.7588C2.98428 16.22 4.12645 17.4613 5.51705 18.3703C6.90765 19.2794 8.50284 19.8276 10.1585 19.9655C11.8141 20.1034 13.478 19.8265 14.9998 19.16C16.362 19.7551 17.8398 20.0389 19.3255 19.9908C20.8113 19.9427 22.2676 19.5639 23.5885 18.882C24.9093 18.2001 26.0615 17.2322 26.9612 16.0488C27.8608 14.8654 28.4853 13.4964 28.789 12.0412C29.0928 10.5861 29.0683 9.08151 28.7173 7.63703C28.3663 6.19256 27.6975 4.84455 26.7598 3.69111C25.8221 2.53768 24.639 1.60786 23.2966 0.969338C21.9542 0.330818 20.4863 -0.00032965 18.9998 2.46245e-07ZM10.9998 18C9.8722 18.0041 8.75643 17.7698 7.72572 17.3124C6.69501 16.855 5.77264 16.1849 5.0191 15.346C4.26557 14.5071 3.6979 13.5183 3.35332 12.4446C3.00874 11.3709 2.89505 10.2365 3.01969 9.11577C3.14434 7.99504 3.5045 6.91332 4.07657 5.94156C4.64863 4.9698 5.41967 4.12996 6.33912 3.47712C7.25856 2.82428 8.30563 2.37319 9.41165 2.15343C10.5177 1.93368 11.6577 1.95023 12.7568 2.202C11.5848 3.13611 10.6384 4.32236 9.98791 5.67258C9.33743 7.0228 8.99964 8.50226 8.99964 10.001C8.99964 11.4997 9.33743 12.9792 9.98791 14.3294C10.6384 15.6796 11.5848 16.8659 12.7568 17.8C12.1804 17.9315 11.5911 17.9985 10.9998 18ZM18.9998 18C18.4086 17.9985 17.8193 17.9315 17.2428 17.8C18.415 16.8659 19.3616 15.6796 20.0122 14.3293C20.6628 12.979 21.0006 11.4994 21.0006 10.0005C21.0006 8.50163 20.6628 7.02204 20.0122 5.67172C19.3616 4.3214 18.415 3.1351 17.2428 2.201C18.34 1.95417 19.4769 1.94152 20.5793 2.16389C21.6817 2.38627 22.7248 2.83866 23.6405 3.49152C24.5562 4.14439 25.3239 4.98305 25.8935 5.95276C26.4631 6.92246 26.8218 8.00139 26.9461 9.11911C27.0704 10.2368 26.9575 11.3682 26.6149 12.4393C26.2723 13.5105 25.7076 14.4973 24.9577 15.3354C24.2078 16.1735 23.2896 16.844 22.263 17.3032C21.2363 17.7623 20.1244 17.9997 18.9998 18Z" fill="black"/>
</svg>
