<svg width="40" height="40" viewBox="0 0 40 40" fill="none" xmlns="http://www.w3.org/2000/svg">
<path d="M31.3176 12.2504C30.9861 12.2504 30.6682 12.382 30.4337 12.6165C30.1993 12.8509 30.0676 13.1688 30.0676 13.5004V17.0704C30.0676 22.1204 25.5501 26.2279 20.0001 26.2279C14.4501 26.2279 9.93262 22.1179 9.93262 17.0704V13.3604C9.93262 13.0288 9.80092 12.7109 9.5665 12.4765C9.33208 12.242 9.01414 12.1104 8.68262 12.1104C8.3511 12.1104 8.03315 12.242 7.79873 12.4765C7.56431 12.7109 7.43262 13.0288 7.43262 13.3604V17.0704C7.43262 23.2379 12.6376 28.2504 19.1776 28.6504V33.0054H13.9701C13.3401 33.0054 12.8301 33.5654 12.8301 34.2579C12.8301 34.9479 13.3401 35.5054 13.9701 35.5054H26.4326C27.0601 35.5054 27.5726 34.9479 27.5726 34.2579C27.5726 33.5654 27.0601 33.0054 26.4326 33.0054H21.6776V28.5729C27.8101 27.8004 32.5676 22.9679 32.5676 17.0704V13.5004C32.5676 12.8079 32.0101 12.2504 31.3176 12.2504Z" fill="#6478F0"/>
<path d="M15.4181 3.71558C16.6864 2.44692 18.406 1.73303 20.1999 1.73047C21.9945 1.73187 23.7152 2.44525 24.9845 3.71405C26.2539 4.98307 26.9678 6.70398 26.9696 8.49893L26.9696 16.7417C26.9696 16.7419 26.9696 16.7422 26.9696 16.7424C26.9671 18.537 26.2529 20.2574 24.9837 21.5262C23.7147 22.7948 21.9943 23.5084 20.1999 23.5105C18.406 23.5079 16.6864 22.794 15.4181 21.5254C14.1498 20.2566 13.4364 18.5365 13.4346 16.7425V8.49846C13.4364 6.70443 14.1498 4.98437 15.4181 3.71558Z" fill="#FBFAF9" stroke="#6478F0" stroke-width="2"/>
<path d="M13 12H27V13.9181C26.9974 16.3265 26.2586 18.6351 24.9457 20.3377C23.6328 22.0403 21.853 22.9977 19.9967 23C16.1395 23 13 18.9267 13 13.9181V12Z" fill="#6478F0"/>
</svg>
