<svg width="14" height="10" viewBox="0 0 14 10" fill="none" xmlns="http://www.w3.org/2000/svg">
    <path fill-rule="evenodd" clip-rule="evenodd" d="M10.6629 5.5L8.37037 8.1746C8.19066 8.38426 8.21494 8.69991 8.42461 8.87962C8.63427 9.05933 8.94992 9.03505 9.12963 8.82539L12.1271 5.3283C12.2037 5.24046 12.25 5.12565 12.25 5C12.25 5 12.25 5 12.25 4.99999C12.25 4.99275 12.2498 4.98551 12.2495 4.97827C12.2446 4.86206 12.1999 4.75612 12.1288 4.67366L9.12963 1.1746C8.94992 0.964935 8.63427 0.940654 8.4246 1.12037C8.21494 1.30008 8.19066 1.61573 8.37037 1.82539L10.6629 4.5H2.25C1.97386 4.5 1.75 4.72386 1.75 5C1.75 5.27615 1.97386 5.5 2.25 5.5H10.6629Z" fill="white"/>
</svg>
