<svg width="36" height="36" viewBox="0 0 36 36" fill="none" xmlns="http://www.w3.org/2000/svg">
<path d="M10.8001 9.18011V10.1801C11.1558 10.1801 11.4847 9.9912 11.6639 9.68398L10.8001 9.18011ZM13.3201 4.86011V3.86011C12.9644 3.86011 12.6355 4.04902 12.4563 4.35624L13.3201 4.86011ZM22.6801 4.86011L23.5439 4.35624C23.3647 4.04902 23.0358 3.86011 22.6801 3.86011V4.86011ZM25.2001 9.18011L24.3363 9.68398C24.5155 9.9912 24.8444 10.1801 25.2001 10.1801V9.18011ZM4.6001 27.5401V12.7801H2.6001V27.5401H4.6001ZM7.2001 10.1801H10.8001V8.18011H7.2001V10.1801ZM11.6639 9.68398L14.1839 5.36398L12.4563 4.35624L9.93632 8.67624L11.6639 9.68398ZM13.3201 5.86011H22.6801V3.86011H13.3201V5.86011ZM21.8163 5.36398L24.3363 9.68398L26.0639 8.67624L23.5439 4.35624L21.8163 5.36398ZM25.2001 10.1801H28.8001V8.18011H25.2001V10.1801ZM31.4001 12.7801V27.5401H33.4001V12.7801H31.4001ZM31.4001 27.5401C31.4001 28.976 30.236 30.1401 28.8001 30.1401V32.1401C31.3406 32.1401 33.4001 30.0806 33.4001 27.5401H31.4001ZM28.8001 10.1801C30.236 10.1801 31.4001 11.3442 31.4001 12.7801H33.4001C33.4001 10.2396 31.3406 8.18011 28.8001 8.18011V10.1801ZM4.6001 12.7801C4.6001 11.3442 5.76416 10.1801 7.2001 10.1801V8.18011C4.65959 8.18011 2.6001 10.2396 2.6001 12.7801H4.6001ZM7.2001 30.1401C5.76416 30.1401 4.6001 28.976 4.6001 27.5401H2.6001C2.6001 30.0806 4.65959 32.1401 7.2001 32.1401V30.1401ZM22.4001 19.2601C22.4001 21.6902 20.4301 23.6601 18.0001 23.6601V25.6601C21.5347 25.6601 24.4001 22.7947 24.4001 19.2601H22.4001ZM18.0001 23.6601C15.57 23.6601 13.6001 21.6902 13.6001 19.2601H11.6001C11.6001 22.7947 14.4655 25.6601 18.0001 25.6601V23.6601ZM13.6001 19.2601C13.6001 16.8301 15.57 14.8601 18.0001 14.8601V12.8601C14.4655 12.8601 11.6001 15.7255 11.6001 19.2601H13.6001ZM18.0001 14.8601C20.4301 14.8601 22.4001 16.8301 22.4001 19.2601H24.4001C24.4001 15.7255 21.5347 12.8601 18.0001 12.8601V14.8601ZM28.8001 30.1401H7.2001V32.1401H28.8001V30.1401Z" fill="#13172E"/>
</svg>
