<svg width="112" height="112" viewBox="0 0 112 112" fill="none" xmlns="http://www.w3.org/2000/svg">
<path d="M66.6855 35.8888C66.6855 35.9007 66.6862 35.9126 66.6862 35.9248V35.9142C66.6863 35.9058 66.6855 35.8973 66.6855 35.8888ZM66.579 34.1168C66.5884 34.199 66.595 34.2829 66.6033 34.3653C66.5958 34.2829 66.5885 34.199 66.579 34.1168ZM66.4212 33.1028C66.443 33.2178 66.4646 33.3325 66.4836 33.4478C66.465 33.3321 66.443 33.2178 66.4212 33.1028ZM65.0518 38.4955V35.2895C65.0518 29.2678 61.6117 23.9595 56.6791 20.8287C60.811 22.8358 64.1551 26.3306 65.7221 30.5714C63.2383 23.8317 56.2734 18.9692 48.7826 18.9692C39.4241 18.9692 30.5586 26.5556 30.5586 35.9143V58.8803H34.6254V36.861C34.6254 29.6921 40.1081 23.8811 47.2762 23.8811C49.5843 23.8811 51.1216 24.4867 52.9886 25.5432C57.8897 27.2756 61.4022 31.9472 61.4022 37.4415V39.7949C61.4022 40.5746 61.8295 41.2643 62.4857 41.6925C63.9152 41.5993 65.0518 40.2061 65.0518 38.4955ZM66.6492 34.8984C66.6552 34.9845 66.6603 35.0705 66.6648 35.1569C66.6603 35.0705 66.6547 34.9845 66.6492 34.8984ZM66.2643 32.3564C66.2945 32.4832 66.3211 32.611 66.3491 32.7388C66.3218 32.611 66.2945 32.4831 66.2643 32.3564Z" fill="#ECECEC"/>
<path d="M34.625 36.861V58.8906H36.4828V37.4521C36.4828 30.4829 41.8128 24.8331 48.7821 24.8331C50.2752 24.8331 51.707 25.0941 53.0361 25.57L52.988 25.5432C51.1211 24.4867 49.5838 23.8811 47.2757 23.8811C40.1077 23.8811 34.625 29.6921 34.625 36.861ZM66.6644 35.1569C66.6599 35.0705 66.6548 34.9845 66.6488 34.8984C66.6368 34.7205 66.6215 34.5427 66.6029 34.3653C66.5946 34.2828 66.5881 34.199 66.5786 34.1168C66.5516 33.8931 66.5198 33.6701 66.4832 33.4478C66.4642 33.3325 66.4424 33.2178 66.4208 33.1028C66.3981 32.9812 66.3741 32.8599 66.3487 32.7388C66.3207 32.611 66.294 32.4832 66.2639 32.3564C66.2415 32.2646 66.2168 32.1731 66.193 32.0815C66.1263 31.8221 66.0527 31.5646 65.9723 31.3091C65.953 31.2474 65.9347 31.1861 65.9146 31.1247C65.8614 30.9622 65.8055 30.8007 65.7471 30.64C65.739 30.6169 65.73 30.5942 65.7217 30.5714C64.1546 26.3307 60.8106 22.8358 56.6787 20.8287C61.6113 23.9595 65.0514 29.2678 65.0514 35.2895V38.4955C65.0514 40.206 63.9148 41.5992 62.4852 41.6925C62.4808 41.6927 62.4763 41.6937 62.4716 41.6942C62.9111 41.9851 63.4539 42.1592 64.0439 42.1592C65.5031 42.1592 66.6859 40.7636 66.6859 39.042V35.9248C66.6859 35.9126 66.6852 35.9007 66.6852 35.8887C66.6842 35.6447 66.6772 35.4007 66.6644 35.1569Z" fill="#A7A7A7"/>
<path d="M64.5193 42.6203C62.5736 42.6203 60.9908 41.1686 60.9908 39.3843V36.9922C60.9908 30.3879 55.6174 25.0148 49.013 25.0148C43.0449 25.0148 38.3038 29.5331 37.7398 35.758C37.6976 36.2225 37.2869 36.5642 36.8228 36.5227C36.7124 36.5127 36.605 36.4811 36.5068 36.4296C36.4086 36.3781 36.3215 36.3078 36.2505 36.2226C36.1795 36.1375 36.126 36.0392 36.093 35.9334C36.06 35.8275 36.0481 35.7162 36.0581 35.6058C36.703 28.4905 42.1511 23.3262 49.0131 23.3262C56.5488 23.3262 62.6796 29.4567 62.6796 36.9922V39.3843C62.6796 40.2375 63.505 40.9316 64.5194 40.9316C65.5348 40.9316 66.3607 39.8891 66.3607 38.6079V35.441C66.3607 34.0074 66.1501 32.5786 65.735 31.194C65.7032 31.0878 65.6926 30.9763 65.7038 30.866C65.715 30.7557 65.7479 30.6487 65.8005 30.551C65.853 30.4534 65.9244 30.3671 66.0103 30.2971C66.0962 30.227 66.1951 30.1746 66.3014 30.1427C66.7483 30.0084 67.2184 30.2627 67.3525 30.7089C67.8138 32.244 68.0486 33.8382 68.0494 35.4411V38.608C68.0493 40.8202 66.4658 42.6203 64.5193 42.6203Z" fill="black"/>
<path d="M37.6853 59.6207H30.3125V35.4409C30.3125 28.3965 35.037 21.6943 42.0691 18.7633C42.2752 18.6803 42.5057 18.6818 42.7106 18.7676C42.9156 18.8534 43.0785 19.0165 43.164 19.2216C43.2495 19.4267 43.2507 19.6572 43.1674 19.8632C43.084 20.0692 42.9229 20.234 42.7188 20.3219C36.3083 22.9938 32.0012 29.0697 32.0012 35.4409V57.932H35.9968V40.4251C36.0004 40.2036 36.0909 39.9924 36.2488 39.837C36.4068 39.6816 36.6195 39.5945 36.841 39.5945C37.0626 39.5945 37.2753 39.6816 37.4332 39.837C37.5912 39.9924 37.6817 40.2036 37.6853 40.4251V59.6207ZM60.3764 23.0108C60.1898 23.0109 60.0085 22.949 59.8609 22.8347C56.7162 20.4055 52.8637 19.0677 49.0136 19.0677C48.1846 19.0677 47.3542 19.1298 46.5454 19.2526C46.0862 19.322 45.6541 19.0055 45.584 18.5444C45.5504 18.323 45.6062 18.0973 45.739 17.917C45.8718 17.7367 46.0708 17.6165 46.2922 17.5829C47.193 17.4469 48.1027 17.3787 49.0136 17.3789C53.2352 17.3789 57.4542 18.8419 60.8932 21.4981C61.0327 21.6059 61.1349 21.7546 61.1855 21.9234C61.2362 22.0922 61.2328 22.2726 61.1759 22.4393C61.1189 22.6061 61.0112 22.7508 60.8678 22.8533C60.7245 22.9558 60.5526 23.0108 60.3764 23.0108ZM64.504 27.4437C64.3638 27.4438 64.2258 27.4091 64.1025 27.3425C63.9792 27.276 63.8743 27.1799 63.7974 27.0627C63.7032 26.919 63.6095 26.7751 63.5161 26.6309C62.9919 25.8229 62.8155 25.5507 62.0046 24.784C61.8426 24.6299 61.7482 24.4179 61.7423 24.1944C61.7363 23.9709 61.8192 23.7542 61.9729 23.5917C62.1265 23.4293 62.3383 23.3344 62.5618 23.3279C62.7853 23.3214 63.0022 23.4038 63.165 23.557C64.1224 24.4624 64.3764 24.8541 64.9329 25.712C65.0157 25.84 65.1067 25.9801 65.2089 26.1357C65.2698 26.2283 65.3118 26.3321 65.3325 26.441C65.3533 26.5499 65.3524 26.6619 65.3299 26.7705C65.3074 26.879 65.2637 26.9821 65.2013 27.0738C65.139 27.1655 65.0592 27.244 64.9665 27.3048C64.8293 27.3955 64.6684 27.4438 64.504 27.4437Z" fill="black"/>
<path d="M74.395 89.6163C74.395 91.5014 72.987 93.0301 71.2503 93.0301H30.8875C29.1505 93.0301 27.7422 91.5015 27.7422 89.6163V52.6346C27.7422 50.7492 29.1505 49.2211 30.8875 49.2211H71.2503C72.987 49.2211 74.395 50.7492 74.395 52.6346V89.6163Z" fill="#FDD72C"/>
<path d="M70.9825 49.2211H62.1641C64.0491 49.2211 65.5777 50.7492 65.5777 52.6346V89.6163C65.5777 91.5014 64.0493 93.0301 62.1641 93.0301H70.9825C72.8676 93.0301 74.3961 91.5015 74.3961 89.6163V52.6346C74.3961 50.7492 72.8677 49.2211 70.9825 49.2211Z" fill="#F97C21"/>
<path d="M40.1328 73.0455C40.1328 73.4982 40.3126 73.9323 40.6327 74.2524C40.9528 74.5725 41.3869 74.7523 41.8396 74.7523C42.2923 74.7523 42.7264 74.5725 43.0465 74.2524C43.3666 73.9323 43.5464 73.4982 43.5464 73.0455C43.5464 72.5928 43.3666 72.1587 43.0465 71.8386C42.7264 71.5185 42.2923 71.3387 41.8396 71.3387C41.3869 71.3387 40.9528 71.5185 40.6327 71.8386C40.3126 72.1587 40.1328 72.5928 40.1328 73.0455Z" fill="black"/>
<path d="M56.6328 73.0455C56.6328 73.4982 56.8126 73.9323 57.1327 74.2524C57.4528 74.5725 57.8869 74.7523 58.3396 74.7523C58.7923 74.7523 59.2264 74.5725 59.5465 74.2524C59.8666 73.9323 60.0464 73.4982 60.0464 73.0455C60.0464 72.5928 59.8666 72.1587 59.5465 71.8386C59.2264 71.5185 58.7923 71.3387 58.3396 71.3387C57.8869 71.3387 57.4528 71.5185 57.1327 71.8386C56.8126 72.1587 56.6328 72.5928 56.6328 73.0455Z" fill="black"/>
<path d="M53.7575 75.6864C53.7855 75.4338 53.5769 75.227 53.3225 75.227H45.9606C45.7067 75.227 45.4983 75.4338 45.5259 75.6864C45.7545 77.7571 47.5099 79.3681 49.642 79.3681C51.7739 79.3679 53.5293 77.7571 53.7575 75.6864Z" fill="black"/>
<path d="M50.9754 78.1133C50.9754 78.4866 50.3531 78.7901 49.5856 78.7901C48.8178 78.7901 48.1953 78.4867 48.1953 78.1133C48.1953 77.7394 48.8178 77.4364 49.5856 77.4364C50.3531 77.4365 50.9754 77.7394 50.9754 78.1133Z" fill="#FD631F"/>
<path d="M94.1146 35.4697C92.9822 35.4697 92.0609 34.5488 92.0609 33.417C92.0609 32.2849 92.9822 31.3638 94.1146 31.3638C95.2466 31.3638 96.1677 32.2849 96.1677 33.417C96.1678 34.5488 95.2466 35.4697 94.1146 35.4697ZM94.1146 31.8462C93.2482 31.8462 92.5433 32.5509 92.5433 33.417C92.5433 34.2828 93.2482 34.9872 94.1146 34.9872C94.9806 34.9872 95.6852 34.2828 95.6852 33.417C95.6852 32.5509 94.9806 31.8462 94.1146 31.8462ZM85.421 32.4437C85.3126 32.4436 85.2086 32.4005 85.1319 32.3239C85.0552 32.2472 85.0121 32.1432 85.0121 32.0348V31.625C85.0121 31.3786 84.8125 31.1792 84.5653 31.1792C84.4471 31.1792 84.3336 31.2261 84.2499 31.3097C84.1663 31.3933 84.1192 31.5067 84.1192 31.625V32.0348C84.1192 32.0885 84.1086 32.1417 84.088 32.1913C84.0675 32.2409 84.0374 32.286 83.9994 32.3239C83.9614 32.3619 83.9163 32.392 83.8667 32.4126C83.8171 32.4331 83.7639 32.4437 83.7102 32.4437H83.3012C83.242 32.4427 83.1832 32.4536 83.1282 32.4756C83.0732 32.4976 83.0232 32.5303 82.9809 32.5719C82.9387 32.6134 82.9052 32.663 82.8823 32.7176C82.8594 32.7722 82.8477 32.8309 82.8477 32.8901C82.8477 32.9493 82.8594 33.008 82.8823 33.0626C82.9052 33.1172 82.9387 33.1667 82.9809 33.2083C83.0232 33.2498 83.0732 33.2826 83.1282 33.3046C83.1832 33.3266 83.242 33.3375 83.3012 33.3365H83.7102C83.7639 33.3365 83.8171 33.3471 83.8667 33.3677C83.9163 33.3882 83.9614 33.4183 83.9994 33.4563C84.0374 33.4943 84.0675 33.5394 84.0881 33.589C84.1086 33.6386 84.1192 33.6918 84.1192 33.7455V34.1545C84.1192 34.4009 84.3192 34.6006 84.5653 34.6006C84.624 34.6007 84.6821 34.5892 84.7363 34.5668C84.7904 34.5445 84.8397 34.5116 84.8812 34.4702C84.9227 34.4287 84.9556 34.3795 84.978 34.3253C85.0005 34.2712 85.0121 34.2131 85.0121 34.1545V33.7455C85.0121 33.637 85.0552 33.533 85.1319 33.4563C85.2086 33.3797 85.3126 33.3366 85.421 33.3365H85.8305C85.9489 33.3364 86.0624 33.2893 86.1461 33.2055C86.2298 33.1218 86.2768 33.0082 86.2768 32.8898C86.2768 32.6434 86.0764 32.4437 85.8305 32.4437H85.421Z" fill="#FD5C1E"/>
<path d="M102.855 25.1494C102.765 25.1494 102.676 25.1318 102.593 25.0975C102.51 25.0631 102.435 25.0128 102.371 24.9493C102.308 24.8858 102.258 24.8105 102.223 24.7275C102.189 24.6446 102.171 24.5557 102.171 24.4659V23.7821C102.171 23.5843 102.092 23.3947 101.953 23.2549C101.813 23.1151 101.623 23.0365 101.425 23.0365C101.228 23.0366 101.038 23.1152 100.898 23.255C100.758 23.3948 100.68 23.5844 100.68 23.7821V24.4659C100.68 24.5557 100.662 24.6446 100.628 24.7275C100.593 24.8105 100.543 24.8858 100.479 24.9493C100.416 25.0128 100.341 25.0631 100.258 25.0974C100.175 25.1318 100.086 25.1494 99.9959 25.1494H99.312C99.2141 25.1494 99.1171 25.1687 99.0266 25.2062C98.9361 25.2438 98.8539 25.2988 98.7846 25.3681C98.7154 25.4374 98.6605 25.5196 98.623 25.6101C98.5856 25.7007 98.5663 25.7977 98.5664 25.8957C98.5664 25.9936 98.5857 26.0905 98.6232 26.181C98.6606 26.2714 98.7156 26.3536 98.7848 26.4228C98.854 26.492 98.9362 26.5469 99.0267 26.5844C99.1172 26.6218 99.2141 26.6411 99.312 26.641H99.9959C100.086 26.641 100.175 26.6586 100.258 26.693C100.341 26.7273 100.416 26.7777 100.479 26.8411C100.543 26.9046 100.593 26.98 100.628 27.063C100.662 27.1459 100.68 27.2348 100.68 27.3246V28.0089C100.68 28.2065 100.758 28.396 100.898 28.5357C101.038 28.6754 101.228 28.7539 101.425 28.7539C101.623 28.754 101.813 28.6756 101.953 28.5358C102.092 28.3961 102.171 28.2066 102.171 28.0089V27.3246C102.171 27.2348 102.189 27.1459 102.223 27.063C102.257 26.98 102.308 26.9046 102.371 26.8411C102.435 26.7776 102.51 26.7273 102.593 26.693C102.676 26.6586 102.765 26.641 102.855 26.641H103.538C103.636 26.6411 103.733 26.6219 103.824 26.5845C103.914 26.5471 103.996 26.4922 104.066 26.4229C104.135 26.3537 104.19 26.2715 104.227 26.181C104.265 26.0905 104.284 25.9936 104.284 25.8957C104.284 25.7977 104.265 25.7007 104.227 25.6101C104.19 25.5196 104.135 25.4373 104.066 25.368C103.997 25.2987 103.914 25.2437 103.824 25.2062C103.733 25.1687 103.636 25.1494 103.538 25.1494H102.855Z" fill="#FED62C"/>
<path d="M74.9295 37.9872C74.8817 37.9872 74.8343 37.9966 74.7901 38.0149C74.7459 38.0333 74.7058 38.0601 74.672 38.094C74.6382 38.1279 74.6114 38.1681 74.5932 38.2123C74.575 38.2566 74.5657 38.304 74.5658 38.3518L74.5649 39.954C74.5649 40.1547 74.7286 40.3178 74.9303 40.3182C75.0268 40.3179 75.1192 40.2794 75.1874 40.2112C75.2556 40.143 75.294 40.0505 75.2943 39.954V38.3518C75.2943 38.2551 75.2558 38.1624 75.1874 38.094C75.119 38.0256 75.0263 37.9872 74.9295 37.9872ZM74.9295 43.5233C74.8329 43.5234 74.7403 43.5618 74.672 43.63C74.6036 43.6983 74.5651 43.7909 74.5649 43.8875L74.5658 45.4901C74.5658 45.5867 74.6042 45.6793 74.6725 45.7476C74.7408 45.8159 74.8334 45.8543 74.93 45.8543C75.0266 45.8543 75.1192 45.8159 75.1875 45.7476C75.2558 45.6793 75.2942 45.5867 75.2942 45.4901V43.8875C75.2941 43.8396 75.2847 43.7922 75.2664 43.748C75.248 43.7038 75.2211 43.6637 75.1873 43.6299C75.1534 43.596 75.1132 43.5692 75.069 43.5509C75.0248 43.5326 74.9774 43.5233 74.9295 43.5233ZM73.2816 40.7874C73.3154 40.8213 73.3556 40.8482 73.3998 40.8665C73.4439 40.8849 73.4913 40.8943 73.5392 40.8943C73.587 40.8943 73.6344 40.8849 73.6786 40.8665C73.7228 40.8482 73.7629 40.8213 73.7967 40.7874C73.8306 40.7536 73.8574 40.7135 73.8758 40.6693C73.8941 40.6251 73.9036 40.5778 73.9036 40.5299C73.9036 40.4821 73.8941 40.4347 73.8758 40.3905C73.8574 40.3463 73.8306 40.3062 73.7967 40.2724L72.6635 39.1393C72.5947 39.0732 72.5028 39.0368 72.4075 39.0377C72.3121 39.0386 72.221 39.0769 72.1535 39.1443C72.0861 39.2117 72.0478 39.3028 72.0468 39.3982C72.0458 39.4935 72.0822 39.5854 72.1482 39.6542L73.2816 40.7874ZM76.5774 43.0541C76.5437 43.0202 76.5037 42.9933 76.4595 42.9749C76.4154 42.9566 76.3681 42.9471 76.3203 42.9471C76.2725 42.9471 76.2252 42.9566 76.1811 42.9749C76.137 42.9933 76.0969 43.0202 76.0632 43.0541C76.0293 43.0879 76.0025 43.128 75.9842 43.1722C75.9659 43.2164 75.9564 43.2637 75.9564 43.3116C75.9564 43.3594 75.9659 43.4068 75.9842 43.451C76.0025 43.4951 76.0293 43.5353 76.0632 43.5691L77.1966 44.7022C77.2655 44.7675 77.3572 44.8034 77.4522 44.8021C77.5471 44.8008 77.6378 44.7625 77.7049 44.6953C77.772 44.628 77.8102 44.5373 77.8114 44.4423C77.8125 44.3474 77.7765 44.2557 77.7111 44.1869L76.5774 43.0541ZM73.3269 41.9209C73.3269 41.873 73.3176 41.8257 73.2993 41.7815C73.281 41.7373 73.2542 41.6972 73.2204 41.6634C73.1866 41.6296 73.1464 41.6028 73.1023 41.5845C73.0581 41.5662 73.0107 41.5568 72.9629 41.5569H71.3605C71.3127 41.5568 71.2653 41.5662 71.2211 41.5844C71.1768 41.6027 71.1366 41.6295 71.1028 41.6633C71.0689 41.6971 71.0421 41.7372 71.0238 41.7814C71.0055 41.8256 70.9961 41.873 70.9961 41.9209C70.9962 42.0175 71.0346 42.1101 71.1029 42.1783C71.1713 42.2466 71.2639 42.285 71.3605 42.285H72.9629C73.0108 42.2851 73.0581 42.2757 73.1023 42.2574C73.1465 42.2391 73.1866 42.2122 73.2204 42.1784C73.2542 42.1446 73.281 42.1044 73.2993 42.0602C73.3176 42.016 73.3269 41.9687 73.3269 41.9209ZM78.4988 41.5569H76.8962C76.8484 41.5569 76.801 41.5663 76.7569 41.5847C76.7127 41.603 76.6726 41.6298 76.6388 41.6636C76.605 41.6974 76.5783 41.7376 76.56 41.7818C76.5417 41.8259 76.5324 41.8733 76.5324 41.9211C76.5324 41.9689 76.5418 42.0163 76.5601 42.0605C76.5783 42.1047 76.6052 42.1448 76.639 42.1786C76.6728 42.2124 76.713 42.2392 76.7572 42.2575C76.8014 42.2757 76.8488 42.2851 76.8966 42.285H78.4988C78.5467 42.2851 78.594 42.2757 78.6382 42.2574C78.6825 42.2391 78.7226 42.2123 78.7565 42.1785C78.7903 42.1446 78.8172 42.1045 78.8355 42.0603C78.8538 42.0161 78.8632 41.9687 78.8632 41.9209C78.8634 41.873 78.854 41.8255 78.8358 41.7813C78.8175 41.737 78.7907 41.6968 78.7568 41.663C78.7229 41.6292 78.6827 41.6024 78.6384 41.5842C78.5941 41.566 78.5467 41.5567 78.4988 41.5569ZM73.2816 43.0541L72.1482 44.1869C72.08 44.2553 72.0416 44.3479 72.0416 44.4445C72.0416 44.5412 72.08 44.6338 72.1482 44.7022C72.182 44.7361 72.2222 44.7629 72.2664 44.7813C72.3106 44.7996 72.358 44.809 72.4059 44.809C72.4537 44.809 72.5011 44.7996 72.5453 44.7813C72.5895 44.7629 72.6297 44.7361 72.6635 44.7022L73.7967 43.5691C73.8306 43.5353 73.8574 43.4952 73.8758 43.451C73.8941 43.4068 73.9036 43.3594 73.9036 43.3116C73.9036 43.2637 73.8941 43.2163 73.8758 43.1722C73.8574 43.128 73.8306 43.0878 73.7967 43.0541C73.7629 43.0202 73.7228 42.9933 73.6786 42.9749C73.6344 42.9566 73.587 42.9472 73.5392 42.9472C73.4913 42.9472 73.4439 42.9566 73.3998 42.9749C73.3556 42.9933 73.3154 43.0202 73.2816 43.0541ZM76.5781 40.7874L77.711 39.6542C77.7792 39.5859 77.8175 39.4933 77.8175 39.3968C77.8175 39.3002 77.7792 39.2076 77.711 39.1393C77.6773 39.1054 77.6372 39.0785 77.593 39.0602C77.5489 39.0418 77.5015 39.0324 77.4537 39.0324C77.4059 39.0324 77.3586 39.0418 77.3144 39.0602C77.2703 39.0785 77.2302 39.1054 77.1965 39.1393L76.0631 40.2724C76.0292 40.3062 76.0024 40.3463 75.9841 40.3905C75.9658 40.4347 75.9563 40.4821 75.9563 40.5299C75.9563 40.5777 75.9658 40.6251 75.9841 40.6693C76.0024 40.7135 76.0292 40.7536 76.0631 40.7874C76.0968 40.8214 76.137 40.8483 76.1811 40.8667C76.2253 40.8851 76.2727 40.8945 76.3206 40.8945C76.3685 40.8945 76.4159 40.8851 76.46 40.8667C76.5042 40.8483 76.5444 40.8214 76.5781 40.7874Z" fill="#FED62C"/>
<path d="M99.9097 94.1156H94.7536C94.154 94.1156 93.668 93.6296 93.668 93.03C93.668 92.4304 94.154 91.9444 94.7536 91.9444H99.9097C100.509 91.9444 100.995 92.4304 100.995 93.03C100.995 93.6296 100.509 94.1156 99.9097 94.1156Z" fill="black"/>
<path d="M89.6319 94.1156H86.5739C85.9743 94.1156 85.4883 93.6296 85.4883 93.03C85.4883 92.4304 85.9743 91.9444 86.5739 91.9444H89.6319C90.2315 91.9444 90.7175 92.4304 90.7175 93.03C90.7175 93.6296 90.2315 94.1156 89.6319 94.1156Z" fill="black"/>
<path d="M81.1689 94.1156H19.9372C19.3376 94.1156 18.8516 93.6296 18.8516 93.03C18.8516 92.4304 19.3376 91.9444 19.9372 91.9444H81.1689C81.7685 91.9444 82.2545 92.4304 82.2545 93.03C82.2545 93.6296 81.7685 94.1156 81.1689 94.1156Z" fill="black"/>
<path d="M12.9309 94.1156H8.30826C7.70868 94.1156 7.22266 93.6296 7.22266 93.03C7.22266 92.4304 7.70868 91.9444 8.30826 91.9444H12.931C13.5306 91.9444 14.0166 92.4304 14.0166 93.03C14.0166 93.6296 13.5305 94.1156 12.9309 94.1156Z" fill="black"/>
<path d="M84.4814 47.7948C84.4814 47.8634 84.4679 47.9313 84.4417 47.9946C84.4155 48.058 84.377 48.1155 84.3285 48.164C84.2801 48.2125 84.2225 48.251 84.1591 48.2772C84.0958 48.3034 84.0279 48.3169 83.9593 48.3169C83.8209 48.3169 83.6882 48.2619 83.5903 48.164C83.4925 48.0662 83.4375 47.9335 83.4375 47.7951C83.4375 47.6567 83.4925 47.5239 83.5903 47.4261C83.6882 47.3282 83.8209 47.2733 83.9593 47.2733C84.0278 47.2732 84.0957 47.2866 84.159 47.3128C84.2224 47.339 84.2799 47.3774 84.3284 47.4258C84.3769 47.4743 84.4154 47.5318 84.4416 47.5951C84.4679 47.6584 84.4814 47.7263 84.4814 47.7948Z" fill="#FD5C1E"/>
<path d="M90.0172 41.768C90.0183 41.8464 90.0038 41.9243 89.9745 41.997C89.9452 42.0698 89.9018 42.136 89.8467 42.1919C89.7916 42.2477 89.726 42.292 89.6536 42.3223C89.5812 42.3526 89.5036 42.3681 89.4252 42.3681C89.3467 42.3681 89.2691 42.3525 89.1967 42.3223C89.1243 42.292 89.0587 42.2476 89.0036 42.1918C88.9486 42.1359 88.9051 42.0697 88.8759 41.9969C88.8466 41.9241 88.8321 41.8463 88.8332 41.7678C88.8353 41.6122 88.8987 41.4637 89.0095 41.3545C89.1203 41.2452 89.2696 41.184 89.4253 41.184C89.5809 41.184 89.7302 41.2453 89.841 41.3546C89.9518 41.4638 90.0151 41.6124 90.0172 41.768ZM80.1351 22.7648C80.1351 23.0006 80.0414 23.2266 79.8748 23.3934C79.7081 23.5601 79.482 23.6538 79.2463 23.6539C79.0122 23.6513 78.7887 23.5564 78.6241 23.39C78.4595 23.2236 78.3672 22.9989 78.3672 22.7649C78.3672 22.5308 78.4595 22.3062 78.6241 22.1397C78.7887 21.9733 79.0122 21.8785 79.2463 21.8759C79.7367 21.8759 80.1351 22.2743 80.1351 22.7648Z" fill="#FDD72C"/>
<path d="M88.3997 23.1492C87.1325 23.1492 86.1016 22.1183 86.1016 20.8513C86.1016 19.5837 87.1325 18.5526 88.3997 18.5526C89.6668 18.5526 90.698 19.5838 90.698 20.8513C90.698 22.1184 89.6669 23.1492 88.3997 23.1492ZM88.3997 19.2764C87.5315 19.2764 86.8252 19.9829 86.8252 20.8514C86.8252 21.7194 87.5315 22.4257 88.3997 22.4257C89.268 22.4257 89.9743 21.7194 89.9743 20.8514C89.9743 19.9828 89.268 19.2764 88.3997 19.2764Z" fill="#2BA9FC"/>
<path d="M69.2766 94.1156H28.8819C25.4599 94.1156 22.6758 91.3315 22.6758 87.9095V54.3413C22.6758 50.9193 25.4599 48.1354 28.8819 48.1354H69.2766C72.6986 48.1354 75.4825 50.9193 75.4825 54.3413V68.7063C75.4825 69.3059 74.9964 69.7919 74.3969 69.7919C73.7973 69.7919 73.3112 69.3059 73.3112 68.7063V54.3413C73.3112 52.1165 71.5013 50.3065 69.2764 50.3065H28.8819C26.6569 50.3065 24.8469 52.1165 24.8469 54.3413V87.9095C24.8469 90.1343 26.6569 91.9445 28.8819 91.9445H69.2766C71.5014 91.9445 73.3114 90.1343 73.3114 87.9095V82.93C73.3114 82.3305 73.7974 81.8444 74.397 81.8444C74.9965 81.8444 75.4826 82.3305 75.4826 82.93V87.9095C75.4825 91.3315 72.6987 94.1156 69.2766 94.1156Z" fill="black"/>
<path d="M74.3981 79.4639C74.1102 79.4639 73.8341 79.3495 73.6305 79.1459C73.4269 78.9423 73.3125 78.6662 73.3125 78.3783V73.4003C73.3125 72.8007 73.7985 72.3147 74.3981 72.3147C74.9977 72.3147 75.4837 72.8007 75.4837 73.4003V78.3784C75.4836 78.978 74.9977 79.4639 74.3981 79.4639Z" fill="black"/>
</svg>
