<svg width="32" height="12" viewBox="0 0 32 12" fill="none" xmlns="http://www.w3.org/2000/svg">
<rect width="32" height="12" rx="6" fill="#5A6CD8"/>
<path d="M8.29688 2L10.6719 8.73437H10.7656L13.1406 2H14.1563L11.2188 10H10.2188L7.28125 2H8.29688ZM16.3711 2V10H15.4023V2H16.3711ZM18.3135 10V2H21.0166C21.6442 2 22.1572 2.11328 22.5557 2.33984C22.9567 2.5638 23.2536 2.86719 23.4463 3.25C23.639 3.63281 23.7354 4.0599 23.7354 4.53125C23.7354 5.0026 23.639 5.43099 23.4463 5.81641C23.2562 6.20182 22.9619 6.50911 22.5635 6.73828C22.165 6.96484 21.6546 7.07812 21.0322 7.07812H19.0947V6.21875H21.001C21.4307 6.21875 21.7757 6.14453 22.0361 5.99609C22.2965 5.84766 22.4854 5.64714 22.6025 5.39453C22.7223 5.13932 22.7822 4.85156 22.7822 4.53125C22.7822 4.21094 22.7223 3.92448 22.6025 3.67187C22.4854 3.41927 22.2952 3.22135 22.0322 3.07812C21.7692 2.93229 21.4202 2.85937 20.9854 2.85937H19.2822V10H18.3135Z" fill="white"/>
</svg>
