<svg width="145" height="52" viewBox="0 0 145 52" fill="none" xmlns="http://www.w3.org/2000/svg">
    <path
        d="M8.16667 24.6656C6.56489 24.6656 5.14513 24.3137 3.91952 23.622C2.69392 22.9303 1.72313 21.9474 1.03146 20.6611C0.339779 19.3748 0 17.8702 0 16.1349C0 14.3996 0.339755 12.992 1.00716 11.6936C1.67457 10.3951 2.63323 9.37585 3.87097 8.61137C5.12085 7.85902 6.56487 7.4707 8.22732 7.4707C10.6907 7.4707 12.6565 8.21093 14.1248 9.67923L12.7293 11.7907C11.5765 10.7107 10.1203 10.1646 8.34868 10.1646C6.77117 10.1646 5.49701 10.7107 4.53837 11.7907C3.57972 12.8706 3.09433 14.3026 3.09433 16.0742C3.09433 17.8459 3.57972 19.2778 4.53837 20.3577C5.49701 21.4377 6.75903 21.9838 8.31228 21.9838C9.22238 21.9838 10.0961 21.8382 10.9576 21.5469C11.8192 21.2557 12.4866 20.8674 12.9841 20.3942L14.2097 22.6269C13.4695 23.2822 12.5837 23.7797 11.5158 24.1316C10.4601 24.4835 9.33157 24.6656 8.14237 24.6656H8.16667Z"
        fill="white" />
    <path
        d="M24.1722 24.671C22.5947 24.671 21.1628 24.3191 19.8887 23.6031C18.6146 22.8872 17.5952 21.88 16.8429 20.5694C16.0905 19.2589 15.7144 17.7664 15.7144 16.0797C15.7144 14.3929 16.0663 13.0338 16.7701 11.7354C17.4739 10.437 18.4689 9.40558 19.7552 8.64109C21.0415 7.87661 22.5219 7.48828 24.1844 7.48828C25.7376 7.48828 27.1574 7.84019 28.4315 8.55614C29.7056 9.27209 30.725 10.2793 31.4773 11.5898C32.2297 12.9004 32.618 14.3929 32.618 16.0797C32.618 17.6814 32.2661 19.1254 31.5623 20.4238C30.8585 21.7223 29.8634 22.7538 28.5771 23.5182C27.2908 24.2827 25.8225 24.671 24.1844 24.671H24.1722ZM24.1722 21.9771C25.1673 21.9771 26.0652 21.7344 26.8783 21.249C27.6913 20.7636 28.3344 20.072 28.8077 19.174C29.2809 18.276 29.5236 17.2446 29.5236 16.0797C29.5236 14.9754 29.3052 13.9803 28.8562 13.0945C28.4072 12.2087 27.7762 11.5049 26.9632 10.9709C26.1502 10.437 25.2158 10.1821 24.1722 10.1821C23.1287 10.1821 22.2792 10.4249 21.4662 10.9103C20.6532 11.3957 20.01 12.0873 19.5368 12.9853C19.0635 13.8832 18.8208 14.9147 18.8208 16.0797C18.8208 17.1839 19.0392 18.1789 19.4882 19.0648C19.9372 19.9506 20.5682 20.6544 21.3812 21.1883C22.2064 21.7223 23.1287 21.9771 24.1722 21.9771Z"
        fill="white" />
    <path d="M49.3404 14.6953V17.4499H40.5913V14.6953H49.3404Z" fill="white" />
    <path d="M61.4141 0.90918H64.4356V24.2199H61.4141V0.90918Z" fill="white" />
    <path
        d="M71.8628 4.98674C71.256 4.98674 70.7707 4.80468 70.3823 4.41637C70.0062 4.04019 69.812 3.5548 69.812 2.97234C69.812 2.38987 69.994 1.90448 70.3823 1.5283C70.7585 1.15213 71.256 0.958008 71.8628 0.958008C72.4695 0.958008 72.9549 1.15213 73.3432 1.5283C73.7194 1.90448 73.9135 2.38987 73.9135 2.97234C73.9135 3.5548 73.7315 4.04019 73.3432 4.41637C72.967 4.79254 72.4695 4.98674 71.8628 4.98674Z"
        fill="white" />
    <path d="M73.3683 7.91504H70.3589V24.2241H73.3683V7.91504Z" fill="white" />
    <path
        d="M76.9468 7.91504H80.1867L84.9193 20.9113L89.6882 7.91504H92.8675L86.2905 24.2241H83.5359L76.9589 7.91504H76.9468Z"
        fill="white" />
    <path
        d="M108.449 22.8453C107.782 23.4278 106.908 23.8769 105.828 24.1924C104.748 24.5079 103.559 24.6656 102.26 24.6656C99.6028 24.6656 97.5035 23.889 95.9745 22.3479C94.4456 20.8067 93.6689 18.6953 93.6689 16.0378C93.6689 14.436 93.9966 12.992 94.6397 11.6936C95.2828 10.3951 96.2172 9.37585 97.4307 8.61137C98.6442 7.85902 100.04 7.4707 101.617 7.4707C103.777 7.4707 105.488 8.18666 106.75 9.60642C108.012 11.0262 108.643 12.9556 108.643 15.3704V16.9236H96.6784C96.824 18.5618 97.3943 19.836 98.3772 20.7339C99.3601 21.6319 100.671 22.0809 102.321 22.0809C103.292 22.0809 104.25 21.9474 105.173 21.6926C106.107 21.4378 106.872 21.0737 107.478 20.6247L108.449 22.8332V22.8453ZM101.484 9.97045C100.21 9.97045 99.1538 10.3709 98.3044 11.1718C97.4671 11.9727 96.9332 13.0891 96.7148 14.5088H105.694C105.609 13.0648 105.197 11.9484 104.469 11.1476C103.729 10.3588 102.734 9.9583 101.484 9.9583V9.97045Z"
        fill="white" />
    <path
        d="M8.16667 51.9966C6.56489 51.9966 5.14513 51.6447 3.91952 50.953C2.69392 50.2614 1.72313 49.2784 1.03146 47.9922C0.339779 46.7059 0 45.2011 0 43.4659C0 41.7306 0.339755 40.323 1.00716 39.0246C1.67457 37.7262 2.63323 36.7069 3.87097 35.9424C5.12085 35.1901 6.56487 34.8018 8.22732 34.8018C10.6907 34.8018 12.6565 35.542 14.1248 37.0103L12.7293 39.1217C11.5765 38.0417 10.1203 37.4956 8.34868 37.4956C6.77117 37.4956 5.49701 38.0417 4.53837 39.1217C3.57972 40.2017 3.09433 41.6336 3.09433 43.4052C3.09433 45.1769 3.57972 46.6088 4.53837 47.6888C5.49701 48.7688 6.75903 49.3148 8.31228 49.3148C9.22238 49.3148 10.0961 49.1692 10.9576 48.878C11.8192 48.5867 12.4866 48.1984 12.9841 47.7252L14.2097 49.958C13.4695 50.6133 12.5837 51.1108 11.5158 51.4627C10.4601 51.8146 9.33157 51.9966 8.14237 51.9966H8.16667Z"
        fill="white" />
    <path
        d="M24.1722 51.9932C22.5947 51.9932 21.1628 51.6413 19.8887 50.9254C18.6146 50.2094 17.5952 49.2023 16.8429 47.8917C16.0905 46.5812 15.7144 45.0886 15.7144 43.4019C15.7144 41.7151 16.0663 40.3561 16.7701 39.0577C17.4739 37.7593 18.4689 36.7278 19.7552 35.9633C21.0415 35.1988 22.5219 34.8105 24.1844 34.8105C25.7376 34.8105 27.1574 35.1624 28.4315 35.8783C29.7056 36.5943 30.725 37.6015 31.4773 38.912C32.2297 40.2226 32.618 41.7151 32.618 43.4019C32.618 45.0036 32.2661 46.4477 31.5623 47.7461C30.8585 49.0445 29.8634 50.076 28.5771 50.8404C27.2908 51.6049 25.8225 51.9932 24.1844 51.9932H24.1722ZM24.1722 49.2994C25.1673 49.2994 26.0652 49.0566 26.8783 48.5713C27.6913 48.0859 28.3344 47.3942 28.8077 46.4962C29.2809 45.5982 29.5236 44.5668 29.5236 43.4019C29.5236 42.2976 29.3052 41.3026 28.8562 40.4168C28.4072 39.5309 27.7762 38.8271 26.9632 38.2932C26.138 37.7593 25.2158 37.5044 24.1722 37.5044C23.1287 37.5044 22.2792 37.7471 21.4662 38.2325C20.6532 38.7179 20.01 39.4096 19.5368 40.3075C19.0635 41.2055 18.8208 42.2369 18.8208 43.4019C18.8208 44.5061 19.0392 45.5012 19.4882 46.387C19.9372 47.2729 20.5682 47.9767 21.3812 48.5106C22.2064 49.0445 23.1287 49.2994 24.1722 49.2994Z"
        fill="white" />
    <path d="M49.3404 41.8555V44.61H40.5913V41.8555H49.3404Z" fill="white" />
    <path
        d="M64.6783 51.9966C63.0766 51.9966 61.6568 51.6447 60.4312 50.953C59.2056 50.2614 58.2349 49.2784 57.5432 47.9922C56.8515 46.7059 56.5117 45.2011 56.5117 43.4659C56.5117 41.7306 56.8515 40.323 57.5189 39.0246C58.1863 37.7262 59.145 36.7069 60.3827 35.9424C61.6326 35.1901 63.0766 34.8018 64.739 34.8018C67.2024 34.8018 69.1682 35.542 70.6365 37.0103L69.241 39.1217C68.0882 38.0417 66.6321 37.4956 64.8604 37.4956C63.2829 37.4956 62.0087 38.0417 61.0501 39.1217C60.0914 40.2017 59.6061 41.6336 59.6061 43.4052C59.6061 45.1769 60.0914 46.6088 61.0501 47.6888C62.0087 48.7688 63.2708 49.3148 64.824 49.3148C65.7341 49.3148 66.6078 49.1692 67.4694 48.878C68.3309 48.5867 68.9983 48.1984 69.4958 47.7252L70.7214 49.958C69.9812 50.6133 69.0954 51.1108 68.0275 51.4627C66.9718 51.8146 65.8433 51.9966 64.6541 51.9966H64.6783Z"
        fill="white" />
    <path
        d="M81.6059 35.0414C82.0184 35.0414 82.4795 35.1021 83.0013 35.2356V37.9902C82.6494 37.9052 82.1398 37.8566 81.4481 37.8566C79.9313 37.8566 78.7542 38.3178 77.8805 39.2521C77.0189 40.1865 76.5821 41.4607 76.5821 43.0746V51.5325H73.5605V35.2234H76.3758V38.2692C76.8733 37.2378 77.5771 36.4369 78.4872 35.8666C79.3973 35.3084 80.4288 35.0293 81.6059 35.0293V35.0414Z"
        fill="white" />
    <path
        d="M98.1829 50.1764C97.5155 50.7589 96.6418 51.2078 95.5618 51.5233C94.4818 51.8388 93.2926 51.9966 91.9942 51.9966C89.3367 51.9966 87.2374 51.22 85.7084 49.6789C84.1794 48.1378 83.4028 46.0264 83.4028 43.3689C83.4028 41.7671 83.7305 40.323 84.3736 39.0246C85.0167 37.7262 85.9511 36.7069 87.1646 35.9424C88.378 35.1901 89.7735 34.8018 91.351 34.8018C93.511 34.8018 95.222 35.5177 96.484 36.9375C97.746 38.3694 98.377 40.2867 98.377 42.7015V44.2547H86.4122C86.5578 45.8928 87.1282 47.167 88.1111 48.065C89.094 48.9629 90.4045 49.4119 92.0548 49.4119C93.0256 49.4119 93.9843 49.2784 94.9065 49.0236C95.8409 48.7688 96.6054 48.4047 97.2121 47.9557L98.1829 50.1643V50.1764ZM91.2176 37.3015C89.9434 37.3015 88.8877 37.7019 88.0383 38.5028C87.201 39.3037 86.667 40.4201 86.4486 41.8399H95.4283C95.3434 40.3958 94.9308 39.2794 94.2027 38.4785C93.4625 37.6898 92.4675 37.2894 91.2176 37.2894V37.3015Z"
        fill="white" />
    <path
        d="M113.678 51.5443C112.938 51.5443 112.392 51.3865 112.04 51.071C111.688 50.7555 111.482 50.258 111.433 49.5663C110.936 50.3429 110.22 50.9496 109.298 51.3622C108.375 51.7748 107.295 51.9932 106.094 51.9932C104.371 51.9932 102.988 51.5443 101.956 50.6463C100.925 49.7483 100.415 48.5349 100.415 46.9938C100.415 45.2706 101.058 43.9115 102.32 42.9407C103.594 41.97 105.366 41.4846 107.635 41.4846H111.069C111.009 38.6937 109.565 37.2981 106.761 37.2981C105.075 37.2981 103.558 37.7471 102.223 38.6329L101.252 36.5579C101.92 36.024 102.781 35.5871 103.825 35.2837C104.868 34.9682 105.948 34.8105 107.053 34.8105C109.261 34.8105 110.972 35.4173 112.21 36.6065C113.448 37.8078 114.054 39.4703 114.054 41.6181V48.9717H116.227V51.5321H113.666L113.678 51.5443ZM103.34 46.7147C103.34 47.6005 103.643 48.2921 104.25 48.7897C104.856 49.2872 105.694 49.5299 106.774 49.5299C108.023 49.5299 109.055 49.1659 109.868 48.4256C110.681 47.6976 111.081 46.751 111.081 45.6104V43.8873H107.878C106.325 43.8873 105.172 44.1178 104.444 44.579C103.704 45.0401 103.34 45.756 103.34 46.7025V46.7147Z"
        fill="white" />
    <path
        d="M124.867 52.0005C123.156 52.0005 121.869 51.503 120.996 50.5079C120.122 49.5129 119.685 48.0689 119.685 46.1637V37.8029H116.894V35.2425H118.641C119.115 35.2425 119.454 35.1454 119.649 34.9634C119.843 34.7814 119.94 34.4658 119.94 34.0047V31.1895H122.694V35.2425H127.815V37.8029H122.694V45.9088C122.694 47.098 122.925 47.9718 123.374 48.53C123.823 49.0882 124.527 49.3673 125.485 49.3673C125.922 49.3673 126.371 49.3187 126.832 49.2095C127.293 49.1003 127.706 48.9547 128.046 48.7848L128.604 51.0904C128.216 51.3695 127.694 51.5879 127.027 51.7578C126.371 51.9155 125.643 52.0005 124.867 52.0005Z"
        fill="white" />
    <path
        d="M144.21 50.1764C143.542 50.7589 142.669 51.2078 141.589 51.5233C140.509 51.8388 139.319 51.9966 138.021 51.9966C135.364 51.9966 133.264 51.22 131.735 49.6789C130.206 48.1378 129.43 46.0264 129.43 43.3689C129.43 41.7671 129.757 40.323 130.4 39.0246C131.044 37.7262 131.978 36.7069 133.191 35.9424C134.405 35.1901 135.8 34.8018 137.378 34.8018C139.538 34.8018 141.249 35.5177 142.511 36.9375C143.773 38.3572 144.404 40.2867 144.404 42.7015V44.2547H132.439C132.585 45.8928 133.155 47.167 134.138 48.065C135.121 48.9629 136.431 49.4119 138.082 49.4119C139.053 49.4119 140.011 49.2784 140.933 49.0236C141.868 48.7688 142.632 48.4047 143.239 47.9557L144.21 50.1643V50.1764ZM137.244 37.3015C135.97 37.3015 134.915 37.7019 134.065 38.5028C133.228 39.3037 132.694 40.4201 132.476 41.8399H141.455C141.37 40.3958 140.958 39.2794 140.23 38.4785C139.489 37.6898 138.494 37.2894 137.244 37.2894V37.3015Z"
        fill="white" />
</svg>