<?xml version="1.0" standalone="no"?><!DOCTYPE svg PUBLIC "-//W3C//DTD SVG 1.1//EN" "http://www.w3.org/Graphics/SVG/1.1/DTD/svg11.dtd"><svg t="1715905016229" class="icon" viewBox="0 0 1024 1024" version="1.1" xmlns="http://www.w3.org/2000/svg" p-id="1475" xmlns:xlink="http://www.w3.org/1999/xlink" width="200" height="200"><path d="M0.00256 511.622967C0.890018 227.772816 230.74174-0.986649 514.079895 0.003209 795.677267 0.993066 1024.880461 231.425049 1023.993003 512.646957c-0.887458 283.304022-231.387707 512.746148-513.804271 511.346694S-0.884898 792.708343 0.00256 511.622967z m518.821824-335.01554c-9.011116 15.325724-22.971519 17.646769-38.536173 15.905985-10.478836-1.194656-16.793443-14.745462-10.239905-23.039785 5.768479-7.304465 10.717767-15.73532 20.138479-19.489952a8.567387 8.567387 0 0 0 3.686366-3.413301 45.362777 45.362777 0 0 1 25.429096-18.841424 357.987059 357.987059 0 0 1 60.278904-13.858004 199.405072 199.405072 0 0 1 39.96976-3.95943 48.264083 48.264083 0 0 0 18.090498-2.389311c22.630189-7.748194 45.021446-16.281448 68.266029-21.810996 1.774917-0.443729 4.64209 0 4.881021-2.116247s-2.49171-2.525843-4.266627-3.413302a467.349238 467.349238 0 0 0-297.810553-30.719713 474.448905 474.448905 0 0 0-176.809017 80.485649c-4.744489 3.413301-5.358883 6.246342-3.17437 11.912422 6.45114 16.691044 9.011116 33.757552-2.15038 49.731802-5.393016 7.714061-11.43456 15.018526-17.373705 22.357125-12.287885 15.155059-25.36083 29.729856-33.040758 48.127551a39.048169 39.048169 0 0 1-10.990831 14.643063c-10.035106 8.430855-19.933681 5.051686-23.176317-7.645795a101.375054 101.375054 0 0 1-0.921591-36.010331 84.445079 84.445079 0 0 0 1.126389-17.44197c-3.925297 4.949287-6.621805 8.26019-9.215914 11.673491C119.024382 245.760915 107.931153 265.96766 95.575001 285.423478c-8.226057 12.936413-7.031401 23.89311 0 35.771399 0.887458 1.501853 1.843183 2.969572 2.696508 4.505558 8.703919 15.667054 18.397695 30.719713 21.333135 49.049143 1.365321 8.567387-0.716793 12.663348-8.362589 16.349714A407.514063 407.514063 0 0 0 50.314624 426.665893a13.175344 13.175344 0 0 0-5.734347 9.011116 457.382398 457.382398 0 0 0 5.597815 182.543363 9.523111 9.523111 0 0 0 4.846888 7.440997c16.110783 7.611662 30.34425 18.22703 44.748382 28.5352a18.090498 18.090498 0 0 1 6.417007 7.987126c8.840451 21.196602 17.749168 42.324938 26.145889 63.692205a14.574797 14.574797 0 0 0 9.966841 9.181781c17.851567 6.348741 36.79539 9.932707 52.735507 21.162469a157.796927 157.796927 0 0 0 20.001947 12.21962c5.939145 2.969572 6.143943 6.826603 4.64209 12.356151-3.413301 11.878289-6.212209 23.89311-9.011116 35.805533-3.140237 13.653206-6.314608 26.999215-16.042517 37.546316-3.993563 4.334893-2.594109 7.236199 1.433587 10.786032a471.376934 471.376934 0 0 0 263.609273 118.202631 473.459048 473.459048 0 0 0 351.570052-103.627833 472.81052 472.81052 0 0 0 171.859729-316.822643 335.459269 335.459269 0 0 0 2.662375-43.417195c0-1.604252 0.887458-3.754632-1.331187-4.607957-1.604252-0.614394-2.935439 0.614394-4.198361 1.46772a16.588645 16.588645 0 0 0-3.037838 2.525843c-16.315581 18.807291-35.225271 35.873799-42.393205 61.063963a43.178264 43.178264 0 0 1-2.013848 4.881021 3.993563 3.993563 0 0 1-5.188218 2.83304c-10.035106-3.003705-18.602493-8.089524-22.322992-18.46596a111.102963 111.102963 0 0 1-4.471425-30.514916 53.622966 53.622966 0 0 0-16.315581-36.863656c-8.464988-8.226057-18.261163-15.086793-26.214155-23.89311a35.157005 35.157005 0 0 0-24.575771-10.717767 97.82522 97.82522 0 0 0-18.431827 0 29.968787 29.968787 0 0 1-23.893111-8.669785 202.340511 202.340511 0 0 1-16.452113-16.008384 3.993563 3.993563 0 0 0-5.802612-0.887459c-2.047981 1.570119-0.887458 3.413301 0.204798 5.188219a81.577905 81.577905 0 0 1 7.850593 13.653206c5.461282 14.881994 14.984393 21.025937 31.334108 18.807291 12.185486-1.638385 27.067481 9.659643 31.811969 21.230735a11.400427 11.400427 0 0 1-4.812755 14.813728 45.192112 45.192112 0 0 1-8.328455 3.925297 160.425169 160.425169 0 0 0-45.533442 24.439238 97.688688 97.688688 0 0 1-39.62843 18.704893 7.065534 7.065534 0 0 1-8.908717-4.403159 427.584276 427.584276 0 0 1-19.558217-45.05558 175.819159 175.819159 0 0 0-28.125605-53.793631c-1.160523-1.501853-1.740784-3.6181-4.266626-3.208503a43.963323 43.963323 0 0 0 3.003705 27.716008c6.826603 14.916127 14.096935 29.593324 20.957671 44.372919 5.529548 12.014821 13.24361 23.517647 10.239904 37.921779-1.194656 5.802613-2.15038 11.639358-3.413301 17.476104-0.375463 1.911449-1.365321 4.061829 1.604252 4.710356 6.246342 1.297055 12.526816 3.17437 18.670759-0.273064a49.492871 49.492871 0 0 1 13.038811-4.437292 30.173585 30.173585 0 0 0 13.994536-6.826603 39.491898 39.491898 0 0 1 15.189192-7.679929c1.979715-0.614394 4.30076-1.911449 6.178076 0s0.34133 3.788765-0.170666 5.597815a439.803895 439.803895 0 0 1-15.803585 44.714249 42.359071 42.359071 0 0 1-14.574798 20.03608 191.895809 191.895809 0 0 0-29.627456 25.975224 78.23287 78.23287 0 0 1-11.229762 9.147648 12.629215 12.629215 0 0 0-6.007411 11.024964 127.418544 127.418544 0 0 0 1.877316 26.248288c3.208503 16.144916 0.273064 30.412516-11.09323 42.836934a294.226587 294.226587 0 0 1-29.627457 29.081328c-16.008384 13.24361-31.061043 27.306412-40.038026 46.591565a28.262136 28.262136 0 0 1-18.56836 15.530522c-5.461282 1.672518-10.922565 3.413301-16.452113 4.778622-9.045249 2.15038-18.192897 3.413301-27.306412 0-2.764774-1.02399-6.826603-1.058123-7.270332-4.710356-0.716793-8.123658-6.212209-13.346009-10.7519-19.114488-7.167933-9.079382-14.711329-17.680902-19.353419-28.671733-9.181781-21.674464-14.2676-43.075865-0.546128-64.852728 7.918859-12.424417 5.905012-23.89311-3.140238-34.440211a64.852728 64.852728 0 0 1-11.707624-24.644037c-4.369026-14.711329-8.840451-29.354393-18.465961-41.77881a21.74273 21.74273 0 0 0-11.946555-8.703919c-15.940118-3.822898-32.016768-4.744489-46.967028 3.106104a39.62843 39.62843 0 0 1-24.882968 3.583967c-15.086793-2.047981-29.627457-4.949287-40.276957-17.8857a92.363938 92.363938 0 0 0-25.463229-21.537932c-11.400427-6.417007-14.984393-16.349714-16.759311-27.989072-4.505558-29.047196-2.218646-58.026125 2.594109-86.629592 1.911449-11.298028 5.222351-21.981662 16.042517-28.19387a61.712491 61.712491 0 0 0 19.148622-18.56836c10.239904-14.096935 19.421685-29.559191 39.457765-31.675438 3.17437-0.307197 6.212209-2.355178 9.557244-1.160522 2.696508 0.989857 3.993563-0.853325 5.768479-2.116247 6.587672-4.812755 13.311876-9.420712 21.776864-10.239904q28.262136-2.559976 56.490139-4.983421c9.113515-0.785059 12.185486 1.46772 14.540664 10.239905 2.184513 8.226057 2.764774 16.861709 6.621805 24.678169a16.110783 16.110783 0 0 0 16.008384 10.239905 50.448596 50.448596 0 0 0 21.196602-4.130095c8.94285-4.369026 17.749168-3.788765 26.965082-2.15038 29.354393 5.188218 58.777051 7.714061 88.19971 0.682661 12.731615-3.071971 11.332161-2.252779 10.239905-13.653206-0.307197-3.720499-0.955724-7.406864-1.262922-11.127363-0.204798-2.559976-0.921591-4.369026-3.857031-4.095962-13.653206 1.194656-26.999215-3.686366-40.686553-3.413301a4.812755 4.812755 0 0 1-5.700214-4.027696c-1.877316-6.826603-4.471425-13.653206-6.519405-20.479809-2.969572-10.239904-0.887458-13.141211 9.62551-14.233467a151.755384 151.755384 0 0 1 38.126577 1.399453 175.102366 175.102366 0 0 0 34.849808 1.058124c5.495415-0.307197 10.239904-2.730641 10.239905-9.045249 0-7.509263-1.740784-14.95026-8.533254-19.012089-18.465961-11.024964-37.13672-21.367267-60.074106-19.455819a18.465961 18.465961 0 0 0-17.339571 12.595083 70.075079 70.075079 0 0 0-3.310903 21.333134c-0.273064 2.628242-0.750926 5.32475-3.720499 5.32475-12.11722 0-16.110783 7.918859-18.192896 18.022232a15.39399 15.39399 0 0 1-1.945582 4.164228 17.066507 17.066507 0 0 1-18.56836 8.260189c-6.826603-0.989857-9.796175-5.870879-11.707624-11.878289a18.943823 18.943823 0 0 1 0-11.673491 17.476104 17.476104 0 0 0-5.666081-19.524084 135.747 135.747 0 0 1-13.14121-11.707624c-6.10981-7.202066-14.301733-6.826603-22.288859-7.304465-3.413301-0.204798-4.881021 1.877316-2.525843 5.119952 0.887458 1.228789 2.116247 2.218646 3.037838 3.413301 9.181781 11.571092 21.196602 21.025937 25.906958 35.942065 1.570119 5.017553 0.409596 6.348741-4.027695 5.427149a13.448408 13.448408 0 0 0-13.92627 5.154085 18.739025 18.739025 0 0 1-4.505558 3.857031c-3.754632 2.389311-6.826603 2.252779-7.304466-3.071971-0.477862-3.925297-1.02399-7.850593-1.36532-11.810023-1.535986-17.066507-10.786033-28.057338-26.077623-34.849808a13.311876 13.311876 0 0 0-14.779596 0.921591 20.03608 20.03608 0 0 1-15.393989 4.471425c-10.035106-1.501853-17.066507 3.071971-22.220593 11.024964s-11.161496 16.213182-14.335866 25.770426a18.773158 18.773158 0 0 1-19.489952 13.653206 203.5693 203.5693 0 0 0-20.479809 0.68266 38.706839 38.706839 0 0 1-19.558217-4.881021 4.198361 4.198361 0 0 1-2.696508-4.095962c0-13.414275 0-26.82855 0.989857-40.208691 0.307197-4.164228 2.696508-6.143943 6.553539-5.529549 10.717767 1.638385 21.503799 0.853325 32.255699 1.774917s10.239904 0.921591 12.492683-9.318313c0-0.648527 0.34133-1.262922 0.546129-1.911449 2.457577-8.226057-1.331188-14.062802-9.830309-15.393989a126.906549 126.906549 0 0 1-12.902279-2.59411 8.157791 8.157791 0 0 1-5.939145-8.533253c0-4.164228 3.891164-3.413301 6.417007-4.130095s6.075677-0.921591 9.113515-1.365321c9.693776-1.365321 19.831282-1.433587 26.316554-10.854298 1.740784-2.525843 5.256484-2.969572 8.26019-3.754632s7.782327-0.819192 9.488978-3.95943c4.949287-8.94285 13.653206-10.239904 22.254726-12.151353A10.717767 10.717767 0 0 0 484.008709 242.347613a30.00292 30.00292 0 0 0 1.672518-17.44197 16.827576 16.827576 0 0 1 6.485273-16.315581c3.413301-2.935439 6.178076-3.413301 8.94285 1.126389s6.997268 9.523111 10.239904 14.540664a8.738052 8.738052 0 0 0 8.635653 4.437292c11.878289-0.409596 23.89311-1.365321 35.600734-0.648527 8.772185 0.546128 13.653206-3.003705 15.257458-10.683634 2.49171-11.059097 9.932707-16.520379 19.797148-19.93368a61.917289 61.917289 0 0 0 7.202066-3.242637 7.987125 7.987125 0 0 0 4.505558-6.826602c0.819192-7.884726-1.80905-10.478836-11.400426-11.468693-4.334893-0.477862-10.444703 1.194656-9.762043-6.826603 0-1.262922-1.194656-1.80905-2.286912-2.047981-8.976983-2.082114-16.281448-2.252779-17.919832 8.806318-0.546128 3.686366-1.297055 7.338598-1.843183 11.059096a24.644037 24.644037 0 0 1-16.042517 20.821139c-15.73532 6.212209-26.521352-1.297055-25.599761-17.919832 0.238931-4.437292 0.750926-8.874584 1.331187-13.175344z m270.196945 138.955503c-0.238931-2.935439-0.546128-5.768479-0.716793-8.60152-0.409596-6.212209-5.597814-6.587672-9.796175-7.987125s-5.939145 1.297055-7.91886 4.232494a51.711517 51.711517 0 0 1-8.806318 11.468693c-7.577529 6.246342-8.533254 14.165201-6.655937 22.630188a277.774474 277.774474 0 0 1 7.270332 46.728098 7.031401 7.031401 0 0 0 5.768479 7.031401 38.843371 38.843371 0 0 0 28.125604-3.242637 8.328456 8.328456 0 0 0 5.154086-8.362588 126.292155 126.292155 0 0 0-2.116247-19.626484 11.912422 11.912422 0 0 0-4.607957-8.976983 17.066507 17.066507 0 0 1-7.57753-17.646768c0.546128-5.905012 1.092256-11.810023 1.706651-17.646769z" p-id="1476"></path><path d="M416.971468 220.604883c-7.372731 0.511995-14.540664-3.003705-21.333134-7.714061a8.226057 8.226057 0 0 1-3.857031-6.519406 92.15914 92.15914 0 0 0-2.935439-18.773158 19.59235 19.59235 0 0 1 3.95943-20.343277 13.653206 13.653206 0 0 0 3.140237-10.239905c-0.238931-4.607957 0-9.215914 0-13.823871 0-9.318313 3.037838-13.653206 11.502826-17.066507 13.004679-5.256484 20.479809 0 21.776864 14.028669 1.194656 13.653206 4.710356 26.350687 17.066507 34.440212a9.591377 9.591377 0 0 1 3.993563 13.653206 18.090498 18.090498 0 0 0-1.638385 12.79988c0.511995 1.774917-0.204798 2.457577-1.638385 2.833041-4.778622 1.399454-7.338598 5.393016-10.239904 8.806317-6.690071 7.065534-9.318313 8.226057-19.797149 7.91886zM762.977839 739.699771a34.133015 34.133015 0 0 1-7.952993 28.466935 50.243798 50.243798 0 0 0-8.294322 18.500094 46.455033 46.455033 0 0 1-8.703919 16.861709c-5.256484 6.348741-11.09323 6.382874-16.725177 0.307197a17.305438 17.305438 0 0 1-5.017553-10.478835c-0.955724-15.632921 1.02399-30.719713 14.506531-40.959618a37.955912 37.955912 0 0 0 15.086793-26.521353c0.716793-4.573824 1.740784-7.918859 7.509263-7.748194a8.94285 8.94285 0 0 1 9.454845 8.157791 88.336242 88.336242 0 0 1 0.136532 13.414274zM386.320021 198.589088c0 2.218646 0.34133 4.30076-1.604252 5.154086-6.348741 2.696508-12.424417 6.382874-19.967813 3.003705-3.413301-1.535986-4.232494-2.696508-3.174371-6.280475 2.116247-7.1338 4.710356-14.131068 6.280475-21.469666 0.921591-4.437292 5.631947-6.519406 8.874584-9.386579 1.46772-1.297055 2.321045 0 2.662375 1.433586 2.355178 9.318313 4.710356 18.670759 6.929002 27.545343z" p-id="1477"></path></svg>