<?xml version="1.0" standalone="no"?><!DOCTYPE svg PUBLIC "-//W3C//DTD SVG 1.1//EN" "http://www.w3.org/Graphics/SVG/1.1/DTD/svg11.dtd"><svg t="1716004644498" class="icon" viewBox="0 0 1280 1024" version="1.1" xmlns="http://www.w3.org/2000/svg" p-id="11028" xmlns:xlink="http://www.w3.org/1999/xlink" width="250" height="200"><path d="M896 328c22 0 40 16.2 40 40v8h120c22 0 40 16.2 40 40 0 22-18 40-40 40h-4l-3.2 9c-17.8 47.2-45 93.2-79.4 130.8 1.8 1 3.6 0.4 5.4 3.2l37.8 22.6c19 11.4 25 36 13.6 55-11.2 19-35.8 25-54.8 13.6l-37.8-22.6c-8.8-5.4-19.4-11-26.2-17-21 15-43.8 28-67.8 38.8l-7.4 3.2c-20.2 9-43.8-0.2-52.8-20.4s0.2-43.8 20.4-52.8l7.2-3.2c12.8-5.8 25.2-14 37-19.6l-24.2-24.4c-15.8-15.6-15.8-40.8 0-56.4 15.6-15.8 40.8-15.8 56.4 0l29.2 29 1.2-0.6c24.8-24.4 45-54.8 59.6-90H752c-23.8 0-40-16.2-40-40 0-22 16.2-40 40-40h104v-8c0-22 16.2-40 40-40v1.8z m-576 138.4l38 85.6h-77.8l39.8-85.6zM0 256c0-70.7 57.3-128 128-128h1024c70.6 0 128 57.3 128 128v512c0 70.6-57.4 128-128 128H128c-70.7 0-128-57.4-128-128V256z m640 512h512V256H640v512zM356.6 351.8c-6.4-14.4-20.8-23.8-36.6-23.8s-30.2 9.4-36.6 23.8l-127.96 288c-8.96 18.4 0.12 43.8 20.32 52.8 20.18 9 43.84-0.2 52.84-20.4l17.8-42h147.2l17.8 42c9 20.2 32.6 29.4 52.8 20.4 20.2-9 29.4-34.4 20.4-52.8l-128-288z" p-id="11029" fill="#2c2c2c"></path></svg>