<?xml version="1.0" standalone="no"?><!DOCTYPE svg PUBLIC "-//W3C//DTD SVG 1.1//EN" "http://www.w3.org/Graphics/SVG/1.1/DTD/svg11.dtd"><svg t="1716004791415" class="icon" viewBox="0 0 1024 1024" version="1.1" xmlns="http://www.w3.org/2000/svg" p-id="12031" xmlns:xlink="http://www.w3.org/1999/xlink" width="200" height="200"><path d="M807.8 991v-118.2h-153.6V636.6h153.6v-55.2h63.2v55.2H1024v236.2h-153v118.2h-63.2z m64.6-169.8H966v-150.4h-93.8v150.4z m-160.4 0h94.2v-150.4H712v150.4z m-483.8 168.2c-6.2 0-11.8-2.8-15.6-8-2.4-3.2-3.6-7.2-3.6-11.2v-147H84.8C38 823.4 0 785.4 0 738.6V117.8c0-46.8 38-84.8 84.8-84.8h854.2c46.8 0 84.8 38 84.8 84.8v389h-71.2V104.2H71.2v648.2h209v116.2l160.4-116.2h93.6v71.2h-70.6L239.4 986c-3.4 2.2-7.2 3.4-11.2 3.4z m338-436.2l-15-62.6h-111.8l-15 62.6h-59l78.8-293.8h102.2l79 293.8h-59.2z m-117.8-99.8h94L506.8 302h-22.4l-36 151.4z" p-id="12032" fill="#2c2c2c"></path></svg>