<svg width="1920" height="1200" viewBox="0 0 1920 1200" fill="none" xmlns="http://www.w3.org/2000/svg">
<path d="M160.141 316.516C48.0603 286.484 -20.7966 167.22 9.23551 55.1391C39.2676 -56.942 158.531 -125.799 270.612 -95.7666C382.693 -65.7346 451.55 53.5286 421.518 165.61C391.486 277.691 272.222 346.548 160.141 316.516Z" fill="url(#paint0_linear_173_2339)"/>
<circle cx="1783" cy="1063" r="156" fill="url(#paint1_linear_173_2339)"/>
<circle cx="1077.5" cy="-0.5" r="72.5" fill="url(#paint2_linear_173_2339)"/>
<circle cx="837.5" cy="979.5" r="72.5" fill="url(#paint3_linear_173_2339)"/>
<path d="M1939 172.5C1939 238.017 1884.02 293 1818.5 293C1752.98 293 1698 238.017 1698 172.5C1698 106.983 1752.98 52 1818.5 52C1884.02 52 1939 106.983 1939 172.5Z" fill="url(#paint4_linear_173_2339)"/>
<path d="M195 824.5C195 890.017 140.017 945 74.5 945C8.98281 945 -46 890.017 -46 824.5C-46 758.983 8.98281 704 74.5 704C140.017 704 195 758.983 195 824.5Z" fill="url(#paint5_linear_173_2339)"/>
<defs>
<linearGradient id="paint0_linear_173_2339" x1="421.518" y1="165.61" x2="9.23551" y2="55.1391" gradientUnits="userSpaceOnUse">
<stop stop-color="#FBF7F2"/>
<stop offset="1" stop-color="#F7F3EE"/>
</linearGradient>
<linearGradient id="paint1_linear_173_2339" x1="1783" y1="907" x2="1783" y2="1219" gradientUnits="userSpaceOnUse">
<stop stop-color="#FBF7F2"/>
<stop offset="1" stop-color="#F7F3EE"/>
</linearGradient>
<linearGradient id="paint2_linear_173_2339" x1="1077.5" y1="-73" x2="1077.5" y2="72" gradientUnits="userSpaceOnUse">
<stop stop-color="#FBF7F2"/>
<stop offset="1" stop-color="#F7F3EE"/>
</linearGradient>
<linearGradient id="paint3_linear_173_2339" x1="837.5" y1="907" x2="837.5" y2="1052" gradientUnits="userSpaceOnUse">
<stop stop-color="#FBF7F2"/>
<stop offset="1" stop-color="#F7F3EE"/>
</linearGradient>
<linearGradient id="paint4_linear_173_2339" x1="1818.5" y1="52" x2="1818.5" y2="293" gradientUnits="userSpaceOnUse">
<stop stop-color="#FBF7F2"/>
<stop offset="1" stop-color="#F7F3EE"/>
</linearGradient>
<linearGradient id="paint5_linear_173_2339" x1="74.5" y1="704" x2="74.5" y2="945" gradientUnits="userSpaceOnUse">
<stop stop-color="#FBF7F2"/>
<stop offset="1" stop-color="#F7F3EE"/>
</linearGradient>
</defs>
</svg>
