<svg width="350" height="364" viewBox="0 0 350 364" fill="none" xmlns="http://www.w3.org/2000/svg">
    <path
        d="M174.518 0C78.1134 0 0 32.1383 0 71.7766C0 93.9264 24.3995 113.728 62.7364 126.906C92.9988 137.315 131.968 143.553 174.518 143.553C217.067 143.553 256.036 137.28 286.299 126.906C324.636 113.728 349.035 93.9264 349.035 71.7766C349 32.1383 270.887 0 174.518 0Z"
        fill="#FAF8F5" />
    <path
        d="M174.518 110.224C78.1134 110.224 0 142.362 0 182C0 204.15 24.3995 223.952 62.7364 237.129C92.9988 247.538 131.968 253.777 174.518 253.777C217.067 253.777 256.036 247.503 286.299 237.129C324.636 223.952 349.035 204.15 349.035 182C349.035 142.362 270.922 110.224 174.518 110.224Z"
        fill="#FAF8F5" />
    <path
        d="M286.263 126.905C256.001 116.496 217.032 110.258 174.482 110.258C131.932 110.258 92.9986 116.531 62.7012 126.905C92.9635 137.314 131.932 143.553 174.482 143.553C217.032 143.553 255.966 137.279 286.263 126.905Z"
        fill="#6478F0" />
    <path
        d="M174.518 220.447C78.1134 220.447 0 252.586 0 292.224C0 314.374 24.3995 334.175 62.7364 347.353C92.9988 357.762 131.968 364.001 174.518 364.001C217.067 364.001 256.036 357.727 286.299 347.353C324.636 334.175 349.035 314.374 349.035 292.224C349.035 252.586 270.922 220.447 174.518 220.447Z"
        fill="#FAF8F5" />
    <path
        d="M286.263 237.13C256.001 226.721 217.032 220.482 174.482 220.482C131.932 220.482 92.9986 226.756 62.7012 237.13C92.9635 247.539 131.932 253.777 174.482 253.777C217.032 253.777 255.966 247.504 286.263 237.13Z"
        fill="#6478F0" />
</svg>