<svg width="446" height="369" viewBox="0 0 446 369" fill="none" xmlns="http://www.w3.org/2000/svg">
    <path
        d="M323.572 368.398C390.979 368.398 445.623 286.09 445.623 184.557C445.623 83.0251 390.979 0.716797 323.572 0.716797C256.165 0.716797 201.521 83.0251 201.521 184.557C201.521 286.09 256.165 368.398 323.572 368.398Z"
        fill="#FAF8F5" />
    <path
        d="M132.438 368.398C164.278 368.398 190.09 286.09 190.09 184.557C190.09 83.0251 164.278 0.716797 132.438 0.716797C100.598 0.716797 74.7861 83.0251 74.7861 184.557C74.7861 286.09 100.598 368.398 132.438 368.398Z"
        fill="#FAF8F5" />
    <path
        d="M30.6401 368.398C47.5622 368.398 61.2802 286.09 61.2802 184.557C61.2802 83.0251 47.5622 0.716797 30.6401 0.716797C13.718 0.716797 0 83.0251 0 184.557C0 286.09 13.718 368.398 30.6401 368.398Z"
        fill="#FAF8F5" />
</svg>