<svg width="24" height="24" viewBox="0 0 24 24" fill="none" xmlns="http://www.w3.org/2000/svg">
<path d="M11.6773 5.84033C12.0103 4.99644 13.2047 4.99635 13.5376 5.84033L14.5503 8.40967C14.9569 9.44049 15.7734 10.256 16.8043 10.6626L19.3736 11.6763C20.2175 12.0093 20.2175 13.2036 19.3736 13.5366L16.8043 14.5503C15.7734 14.9569 14.9569 15.7724 14.5503 16.8032L13.5376 19.3726C13.2047 20.2166 12.0103 20.2166 11.6773 19.3726L10.6636 16.8032C10.2571 15.7726 9.44128 14.9569 8.4107 14.5503L5.84136 13.5366C4.9972 13.2037 4.9972 12.0092 5.84136 11.6763L8.4107 10.6626C9.44129 10.256 10.2571 9.44031 10.6636 8.40967L11.6773 5.84033ZM5.81304 3.70752C5.91296 3.45442 6.27073 3.45443 6.37066 3.70752L6.91851 5.09619C6.94901 5.17342 7.01021 5.23466 7.08745 5.26514L8.47613 5.81299C8.72915 5.91295 8.7292 6.27069 8.47613 6.37061L7.08745 6.91846C7.0102 6.94897 6.94898 7.01014 6.91851 7.08741L6.37066 8.47608C6.27065 8.72892 5.91303 8.72893 5.81304 8.47608L5.26519 7.08741C5.23471 7.01012 5.17351 6.94897 5.09624 6.91846L3.70757 6.37061C3.45455 6.27068 3.4546 5.91297 3.70757 5.81299L5.09624 5.26514C5.17349 5.23466 5.23468 5.17343 5.26519 5.09619L5.81304 3.70752Z" fill="white"/>
</svg>
