<svg width="240" height="240" viewBox="0 0 240 240" fill="none" xmlns="http://www.w3.org/2000/svg">
<g opacity="0.6">
<path d="M64.668 121.752C72.732 132.372 82.704 143.184 94.26 153.468C102.756 161.028 111.432 167.688 119.988 173.388C113.076 183.264 101.628 189.732 88.656 189.732C67.548 189.732 50.436 172.62 50.436 151.512C50.436 139.476 55.992 128.76 64.668 121.752Z" fill="#FA9874"/>
<path d="M194.833 187.912C209.965 170.904 188.728 127.308 147.399 90.5379C106.071 53.7673 60.3 37.7465 45.168 54.7543C30.036 71.7622 51.2727 115.358 92.6016 152.129C133.93 188.899 179.701 204.92 194.833 187.912Z" fill="#6478F0"/>
<path d="M153.636 121.74C174.744 121.74 191.856 104.628 191.856 83.52C191.856 62.4117 174.744 45.3 153.636 45.3C132.528 45.3 115.416 62.4117 115.416 83.52C115.416 104.628 132.528 121.74 153.636 121.74Z" fill="#88E2B4"/>
<path d="M147.396 90.54C137.844 82.044 128.052 74.664 118.464 68.532C116.496 73.14 115.416 78.204 115.416 83.52C115.416 104.628 132.528 121.74 153.636 121.74C160.548 121.74 167.016 119.904 172.608 116.688C165.408 107.892 156.948 99.036 147.396 90.54Z" fill="#3EB1CC"/>
</g>
</svg>
