<svg width="240" height="240" viewBox="0 0 240 240" fill="none" xmlns="http://www.w3.org/2000/svg">
<g opacity="0.6">
<path d="M79.9425 186.285L61.4872 167.83L43.0319 186.285L61.4872 204.74L79.9425 186.285Z" fill="#FA9874"/>
<path d="M162.048 204.744C185.907 204.744 205.248 185.403 205.248 161.544C205.248 137.685 185.907 118.344 162.048 118.344C138.189 118.344 118.848 137.685 118.848 161.544C118.848 185.403 138.189 204.744 162.048 204.744Z" fill="#88E2B4"/>
<path d="M101.352 168.48C138.141 168.48 167.964 138.657 167.964 101.868C167.964 65.0793 138.141 35.2561 101.352 35.2561C64.5632 35.2561 34.74 65.0793 34.74 101.868C34.74 138.657 64.5632 168.48 101.352 168.48Z" fill="#6478F0"/>
<path d="M165.864 118.524C164.604 118.416 163.332 118.344 162.048 118.344C138.192 118.344 118.848 137.688 118.848 161.544C118.848 163.068 118.932 164.58 119.088 166.068C141.972 159.768 159.936 141.564 165.864 118.524Z" fill="#FA9874"/>
</g>
</svg>
