<svg width="16" height="16" viewBox="0 0 16 16" fill="none" xmlns="http://www.w3.org/2000/svg">
<path d="M8 0C12.4183 0 16 3.58172 16 8C16 12.4183 12.4183 16 8 16C3.58172 16 0 12.4183 0 8C0 3.58172 3.58172 0 8 0ZM11.7197 5.25684C11.3469 4.91334 10.743 4.91457 10.3721 5.25977L6.50098 8.86523L5.62793 8.05176C5.25705 7.70619 4.65325 7.70521 4.28027 8.04883C3.90779 8.39249 3.90663 8.95146 4.27734 9.29688L5.82617 10.7402C6.00492 10.9067 6.24848 11 6.50195 11C6.75523 10.9999 6.99809 10.9065 7.17676 10.7402L11.7227 6.50488C12.0932 6.15945 12.0922 5.60045 11.7197 5.25684Z" fill="#13172E"/>
</svg>
