<svg width="30" height="30" viewBox="0 0 30 30" fill="none" xmlns="http://www.w3.org/2000/svg">
<path d="M14.9266 4.25177C15.3151 3.26693 16.7091 3.26693 17.0975 4.25177L19.5702 10.5203C20.0445 11.723 20.9964 12.6759 22.1991 13.1502L28.4686 15.6219C29.4534 16.0103 29.4532 17.4042 28.4686 17.7928L22.1991 20.2654C20.9965 20.7397 20.0446 21.6918 19.5702 22.8943L17.0975 29.1639C16.7091 30.1487 15.3151 30.1487 14.9266 29.1639L12.454 22.8943C11.9796 21.6918 11.0277 20.7397 9.82507 20.2654L3.55554 17.7928C2.57096 17.4042 2.5708 16.0103 3.55554 15.6219L9.82507 13.1502C11.0278 12.6759 11.9796 11.723 12.454 10.5203L14.9266 4.25177ZM4.82703 0.825989C4.94355 0.530538 5.36187 0.530538 5.47839 0.825989L6.55457 3.5545C6.59018 3.64457 6.66172 3.71623 6.75183 3.75177L9.48035 4.82697C9.7758 4.94349 9.7758 5.36181 9.48035 5.47833L6.75183 6.5545C6.66165 6.59007 6.59015 6.6616 6.55457 6.75177L5.47839 9.48029C5.36187 9.77574 4.94355 9.77574 4.82703 9.48029L3.75085 6.75177C3.71528 6.6618 3.64452 6.59009 3.55457 6.5545L0.825073 5.47833C0.530179 5.36158 0.530014 4.94355 0.825073 4.82697L3.55457 3.75177C3.64449 3.71623 3.71524 3.6444 3.75085 3.5545L4.82703 0.825989Z" fill="#6478F0"/>
</svg>
