<svg width="24" height="24" viewBox="0 0 24 24" fill="none" xmlns="http://www.w3.org/2000/svg">
<path d="M11.6777 5.84039C12.0108 4.99649 13.2051 4.9964 13.5381 5.84039L14.5508 8.40972C14.9573 9.44054 15.7739 10.2561 16.8047 10.6627L19.374 11.6763C20.2179 12.0093 20.2179 13.2037 19.374 13.5367L16.8047 14.5503C15.7739 14.9569 14.9573 15.7725 14.5508 16.8033L13.5381 19.3726C13.2052 20.2167 12.0107 20.2166 11.6777 19.3726L10.6641 16.8033C10.2575 15.7727 9.44172 14.9569 8.41113 14.5503L5.8418 13.5367C4.99764 13.2038 4.99764 12.0092 5.8418 11.6763L8.41113 10.6627C9.44173 10.256 10.2575 9.44036 10.6641 8.40972L11.6777 5.84039ZM5.81348 3.70757C5.9134 3.45447 6.27116 3.45448 6.37109 3.70757L6.91895 5.09624C6.94945 5.17347 7.01065 5.23471 7.08789 5.26519L8.47656 5.81304C8.72959 5.91301 8.72963 6.27074 8.47656 6.37066L7.08789 6.91851C7.01064 6.94902 6.94942 7.01019 6.91895 7.08746L6.37109 8.47613C6.27109 8.72897 5.91347 8.72898 5.81348 8.47613L5.26562 7.08746C5.23514 7.01017 5.17395 6.94902 5.09668 6.91851L3.70801 6.37066C3.45499 6.27073 3.45503 5.91302 3.70801 5.81304L5.09668 5.26519C5.17393 5.23471 5.23511 5.17348 5.26562 5.09624L5.81348 3.70757Z" fill="#152124"/>
</svg>
