<svg width="80" height="32" viewBox="0 0 80 32" fill="none" xmlns="http://www.w3.org/2000/svg">
<path d="M60.3447 14.7198C60.5454 15.2492 61.1271 15.5998 61.6895 15.5176C62.231 15.4639 62.7018 15.0201 62.791 14.4834C62.8638 14.1637 62.759 13.8407 62.623 13.5537C61.8565 11.8292 60.8787 10.1988 59.7109 8.71585C57.0562 5.33564 53.4276 2.72672 49.3682 1.30276C46.6699 0.346027 43.7905 -0.0846519 40.9297 0.0137024C37.5347 0.128336 34.1662 1.00732 31.1553 2.58206C26.5325 4.98091 22.7728 9.01129 20.7422 13.8086C20.5674 14.2545 20.6783 14.7971 21.0176 15.1367C21.3054 15.4438 21.7543 15.5864 22.167 15.5069C22.595 15.4366 22.9624 15.123 23.1221 14.7227C23.8599 13 24.8382 11.3804 26.0234 9.92776C28.819 6.48003 32.7833 3.99909 37.1123 3.00296C40.1442 2.29662 43.3359 2.29641 46.3672 3.00491C48.7177 3.55108 50.9675 4.52668 52.9736 5.86624C56.2189 8.0215 58.8203 11.1353 60.3447 14.7198ZM50.0117 28.0655C50.8187 28.2621 51.6923 28.2575 52.4775 27.9688C53.0281 27.7643 53.4718 27.3526 53.8154 26.8867C53.8863 27.1707 53.9343 27.461 54.0273 27.7403C54.0867 27.9066 54.2557 28.0183 54.4297 28.0293C54.6765 28.0465 54.9251 28.0463 55.1729 28.0332C55.378 28.0198 55.597 27.8478 55.5811 27.626C55.5826 23.3255 55.582 19.0247 55.582 14.7237C55.6164 14.4601 55.3498 14.283 55.1123 14.2852C54.8011 14.2817 54.4894 14.2742 54.1787 14.291C53.9844 14.3079 53.7603 14.4475 53.7734 14.666C53.7697 16.4319 53.7681 18.1977 53.7744 19.9629C53.5485 19.6513 53.2956 19.3532 52.9795 19.1309C52.3108 18.6418 51.4348 18.506 50.627 18.6241C49.7591 18.7317 48.8994 19.1431 48.375 19.8604C47.6798 20.7066 47.4759 21.8321 47.4541 22.8985C47.4156 24.1464 47.4887 25.4624 48.1025 26.5811C48.4938 27.314 49.2008 27.8706 50.0117 28.0655ZM38.2422 28.1358C38.4649 28.141 38.6949 28.1429 38.8633 27.9805C39.0041 27.8625 38.9713 27.6676 38.9756 27.5059C38.9765 26.105 38.9679 24.7037 38.9795 23.3018C40.1154 24.7235 41.2403 26.153 42.3721 27.5772C42.5112 27.7449 42.6298 27.9442 42.8242 28.0557C43.0085 28.1601 43.2277 28.1311 43.4307 28.1358C43.8212 28.1264 44.212 28.1478 44.6016 28.126C44.7791 28.1182 44.9326 27.9165 44.8398 27.751C44.7133 27.5396 44.5249 27.3764 44.374 27.1846C43.2006 25.835 42.0381 24.4765 40.8594 23.1319C42.0796 21.902 43.3107 20.6816 44.5371 19.4571C44.6481 19.339 44.7843 19.2366 44.8584 19.0879C44.9215 18.8954 44.7196 18.7299 44.5391 18.7461C44.0704 18.7455 43.6009 18.7346 43.1328 18.7539C42.7855 18.7828 42.6091 19.1159 42.3857 19.336C41.2514 20.5881 40.1108 21.8369 38.9805 23.0928C38.9646 20.3037 38.9826 17.5151 38.9717 14.7276C38.9724 14.4903 38.7251 14.35 38.5137 14.3428C38.2095 14.3385 37.9051 14.3356 37.6016 14.3438C37.3678 14.3497 37.1313 14.536 37.1484 14.7852C37.145 19.0657 37.1496 23.3472 37.1465 27.6289C37.1421 27.7616 37.1718 27.9107 37.2842 27.9981C37.4356 28.1355 37.6369 28.1389 37.833 28.1358H38.2422ZM20.0605 28.17C21.1625 28.3026 22.3422 28.141 23.2812 27.5186C24.1599 26.9478 24.7431 26.0006 24.9922 24.9961C25.2566 23.9064 25.2573 22.7491 24.9658 21.6651C24.7206 20.7571 24.1958 19.91 23.4229 19.3604C22.5586 18.7406 21.4612 18.5227 20.4141 18.5869C20.0286 18.6197 19.6424 18.6737 19.2725 18.7891C18.3854 19.0508 17.5902 19.6247 17.0898 20.4053C16.4136 21.4427 16.2267 22.7286 16.3232 23.9434C16.4026 25.0387 16.7844 26.1468 17.5527 26.9512C18.2065 27.6425 19.1215 28.0544 20.0605 28.17ZM29.8359 28.127C30.0644 28.1182 30.3265 27.9463 30.3047 27.6934C30.3056 26.1556 30.3047 24.6169 30.3047 23.0791C30.3078 22.7132 30.2883 22.3427 30.3564 21.9805C30.4424 21.4793 30.6343 20.9745 31.0039 20.6133C31.2329 20.3806 31.542 20.2012 31.877 20.209C32.3567 20.1935 32.8162 20.3475 33.2842 20.4278C33.4922 20.4693 33.7397 20.3905 33.8184 20.1778C33.9246 19.8811 34.0008 19.5754 34.0898 19.2735C34.1779 19.033 33.9509 18.8376 33.7559 18.7461C33.2001 18.5058 32.5606 18.5405 31.9932 18.7227C31.2876 18.9553 30.716 19.4766 30.2852 20.0674C30.142 19.7039 30.0695 19.3144 29.917 18.9541C29.7161 18.6436 29.2943 18.7595 28.9854 18.7393C28.739 18.7127 28.425 18.8672 28.4443 19.1504C28.4406 21.9981 28.4421 24.8448 28.4434 27.6924C28.414 27.9472 28.669 28.1131 28.8955 28.125C29.2089 28.136 29.5222 28.1314 29.8359 28.127ZM61.9355 28.0899C62.6986 28.2388 63.5321 28.2594 64.2451 27.9073C64.7132 27.6803 65.0487 27.2756 65.3721 26.8828C65.4542 27.1928 65.4814 27.5218 65.6094 27.8164C65.7408 28.0667 66.0578 28.046 66.2988 28.0479C66.5138 28.0345 66.7526 28.0863 66.9453 27.9678C67.0594 27.895 67.1483 27.7708 67.1357 27.6309C67.1389 26.4834 67.1387 25.3353 67.1387 24.1875C67.1378 23.5514 67.1645 22.9117 67.0723 22.2803C66.966 21.4616 66.7106 20.6401 66.2051 19.9776C65.7269 19.3312 64.9979 18.8951 64.2197 18.7149C63.3823 18.5235 62.495 18.5362 61.666 18.7657C60.8154 19.0008 60.0464 19.5405 59.5674 20.2852C58.9683 21.196 58.7579 22.3091 58.7656 23.3858C58.7569 24.4903 58.9842 25.6337 59.6133 26.5596C60.1413 27.3546 61.0019 27.9056 61.9355 28.0899ZM4.3916 28.1319C4.66836 28.1531 5.04038 28.0877 5.10156 27.7627C5.64187 25.7539 6.18457 23.7439 6.72363 21.7354C6.88918 21.125 6.93738 20.4934 7.03516 19.8721C7.11515 20.57 7.1922 21.2736 7.38281 21.9522C7.90937 23.9029 8.4304 25.8556 8.96191 27.8047C8.99952 28.0285 9.22476 28.1421 9.4375 28.1289C10.0312 28.1258 10.6261 28.1405 11.2197 28.1211C11.4519 28.1174 11.6501 27.9402 11.6914 27.7129C12.4604 24.8786 13.2264 22.0424 13.9951 19.208C14.0751 19.0057 13.9448 18.7548 13.7178 18.7481C13.3354 18.7287 12.9514 18.7391 12.5684 18.7412C12.3427 18.7344 12.0862 18.8567 12.0459 19.0987C11.7725 20.3033 11.5086 21.5093 11.2383 22.7139C10.9108 24.2281 10.5122 25.733 10.3594 27.2793C10.3035 27.0102 10.2659 26.7379 10.2275 26.4668C10.0884 25.4826 9.76641 24.5393 9.52051 23.5801C9.11526 22.0991 8.71349 20.6165 8.30664 19.1367C8.24539 18.8767 7.97278 18.7284 7.71875 18.7403C7.2451 18.7403 6.77052 18.7323 6.29688 18.7442C6.06542 18.7442 5.84733 18.9084 5.80469 19.1397C5.25938 21.1691 4.71559 23.1995 4.1709 25.2295C3.98565 25.8998 3.88872 26.5902 3.78125 27.2764C3.70321 26.7958 3.68757 26.3088 3.60547 25.8291C3.52578 25.2949 3.37609 24.7743 3.25391 24.2491C2.8374 22.5484 2.42717 20.8456 2.00879 19.1455C1.97723 18.9448 1.82818 18.7554 1.6123 18.7491C1.18699 18.7294 0.759609 18.7381 0.333984 18.7422C0.18889 18.7321 0.0871051 18.8406 0 18.9405C0.00592154 19.0644 0.00243924 19.1902 0.0292969 19.3135C0.804884 22.1359 1.57758 24.9602 2.35254 27.7832C2.38785 27.9687 2.53977 28.1217 2.73633 28.1211C3.28768 28.1439 3.83963 28.1219 4.3916 28.1319ZM71.1592 31.9649C71.4576 32.0716 71.744 31.8808 72.0215 31.795C72.8157 31.513 73.5384 30.9922 73.9844 30.2686C74.2952 29.7934 74.4446 29.2403 74.6377 28.7119C75.7486 25.5401 76.8573 22.3672 77.9697 19.1963C78.0094 19.0917 78.0299 18.9576 77.9346 18.877C77.8243 18.7609 77.6676 18.744 77.5146 18.7422H76.8701C76.705 18.741 76.5396 18.7427 76.375 18.7549C76.1721 18.7719 75.9815 18.9082 75.9258 19.1084C75.5502 20.2601 75.1758 21.4122 74.8018 22.5635C74.4658 23.6282 74.0823 24.6781 73.7949 25.7569C73.7299 25.3659 73.6287 24.9805 73.4834 24.6114C72.7882 22.7925 72.0966 20.9713 71.4004 19.1534C71.3232 18.9193 71.0928 18.7517 70.8477 18.7481C70.4447 18.7396 70.0397 18.7412 69.6367 18.7481C69.4736 18.7537 69.2525 18.8383 69.25 19.0303C69.2682 19.2049 69.3627 19.3585 69.4268 19.5196C70.4902 21.9824 71.5514 24.4474 72.6123 26.9112C72.7536 27.2717 72.9485 27.614 73.0537 27.9864C72.8984 28.8253 72.4903 29.6497 71.8311 30.2071C71.5598 30.4434 71.2188 30.571 70.8838 30.6866C70.7127 30.735 70.5675 30.8825 70.5527 31.0635C70.5215 31.2462 70.6717 31.3826 70.7529 31.5293C70.8659 31.691 70.9475 31.9109 71.1592 31.9649ZM53.0439 26.2998C52.5315 26.8691 51.6829 27.0161 50.9619 26.8428C50.4909 26.7404 50.0924 26.4064 49.873 25.9834C49.5486 25.3552 49.4726 24.6362 49.4326 23.9405C49.4077 22.8757 49.4184 21.7486 49.9189 20.7803C50.1752 20.2569 50.7297 19.9265 51.3037 19.8897C51.8394 19.8273 52.4104 19.9668 52.8203 20.3272C53.2478 20.7019 53.4863 21.241 53.627 21.7803C53.8316 22.5868 53.8285 23.4281 53.7764 24.252C53.7004 24.9747 53.5376 25.7382 53.0439 26.2998ZM20.6855 26.9219C20.0362 26.9319 19.3675 26.6712 18.9609 26.1524C18.4159 25.4623 18.2791 24.551 18.2441 23.6973C18.222 22.7543 18.2787 21.7514 18.7695 20.92C19.0632 20.4073 19.5904 20.047 20.1689 19.9395C20.7732 19.8471 21.4325 19.8775 21.9658 20.2041C22.5389 20.5417 22.8705 21.1692 23.0273 21.7959C23.2244 22.5376 23.2095 23.3108 23.1768 24.0703C23.1024 24.8438 22.9286 25.6648 22.3877 26.2559C21.9644 26.7304 21.31 26.9418 20.6855 26.9219ZM63.04 26.8809C62.4845 26.908 61.8908 26.7568 61.4971 26.3438C61.0136 25.8566 60.8486 25.153 60.7617 24.4942C60.6689 23.5975 60.666 22.6817 60.8457 21.795C60.9691 21.236 61.2004 20.6601 61.666 20.2979C61.8988 20.1178 62.1778 20.002 62.4658 19.9434C63.062 19.8522 63.7173 19.884 64.2354 20.2237C64.7057 20.5194 64.9842 21.0357 65.1367 21.5547C65.3779 22.3877 65.3777 23.2661 65.333 24.1241C65.2627 24.8538 65.1264 25.6286 64.6445 26.211C64.2592 26.68 63.6375 26.9024 63.04 26.8809ZM77.5078 27.0782C77.6381 27.7158 78.3261 28.1788 78.9658 28.043C79.5339 27.9478 80.032 27.4195 79.9951 26.8282C80.0433 26.3323 79.7237 25.8551 79.2793 25.6534C79.0184 25.5232 78.7128 25.527 78.4316 25.5713C77.7857 25.715 77.3398 26.4365 77.5078 27.0782ZM79.0742 27.793C78.5118 28.0068 77.8373 27.6113 77.7139 27.0323C77.593 26.5389 77.8922 25.9923 78.3662 25.8184C78.9223 25.5892 79.6183 25.9355 79.7598 26.5215C79.9207 27.0427 79.5929 27.6347 79.0742 27.793ZM79.3779 27.4717C79.2759 27.2696 79.1642 27.0724 79.084 26.8604C79.3627 26.7745 79.4822 26.3708 79.2354 26.1856C78.9292 25.9963 78.5479 26.0926 78.208 26.0733C78.2058 26.5391 78.208 27.006 78.207 27.4727C78.3249 27.4736 78.4424 27.475 78.5625 27.4766C78.5625 27.2878 78.5625 27.099 78.5635 26.9102C78.6171 26.9111 78.672 26.9116 78.7275 26.9131C78.8149 27.1019 78.9046 27.2913 78.9961 27.4785C79.1225 27.4764 79.2494 27.4742 79.3779 27.4717ZM78.5635 26.292C78.7063 26.3045 78.8752 26.2752 78.9883 26.3858C79.018 26.4788 79.0283 26.6178 78.9189 26.6631C78.8027 26.6953 78.6813 26.6882 78.5635 26.6953C78.5619 26.5603 78.5625 26.4261 78.5635 26.292Z" fill="black"/>
</svg>
