<svg width="115" height="28" viewBox="0 0 115 28" fill="none" xmlns="http://www.w3.org/2000/svg">
<path d="M113.082 24.2082C112.58 24.2131 112.101 24.4162 111.748 24.7732C111.396 25.1301 111.199 25.6119 111.201 26.1132C111.204 26.6144 111.405 27.0943 111.761 27.4479C112.117 27.8015 112.599 28 113.101 28C113.603 28 114.085 27.8015 114.44 27.4479C114.796 27.0943 114.998 26.6144 115 26.1132C115.002 25.6119 114.806 25.1301 114.453 24.7732C114.101 24.4162 113.621 24.2131 113.119 24.2082H113.082ZM113.082 27.7829C112.753 27.7884 112.43 27.6963 112.153 27.5182C111.876 27.3401 111.658 27.084 111.527 26.7824C111.396 26.4807 111.357 26.1471 111.416 25.8236C111.475 25.5 111.629 25.2012 111.858 24.9649C112.087 24.7285 112.381 24.5653 112.703 24.4958C113.025 24.4263 113.36 24.4536 113.666 24.5744C113.973 24.6951 114.236 24.9039 114.424 25.1742C114.611 25.4445 114.714 25.7642 114.72 26.093V26.1209C114.729 26.5522 114.566 26.9695 114.267 27.281C113.969 27.5925 113.558 27.7727 113.126 27.7821H113.083M105.792 23.6903H101.665V17.2386C101.665 15.7002 101.637 13.7197 99.5182 13.7197C97.3687 13.7197 97.0398 15.3959 97.0398 17.1266V23.6898H92.9128V10.4226H96.8747V12.2357H96.9302C97.3267 11.559 97.8996 11.0023 98.588 10.6249C99.2764 10.2475 100.054 10.0635 100.839 10.0926C105.022 10.0926 105.793 12.8391 105.793 16.4121L105.792 23.6903ZM88.2561 8.6091C87.7824 8.60918 87.3193 8.46905 86.9254 8.20643C86.5315 7.9438 86.2245 7.57048 86.0431 7.13366C85.8618 6.69685 85.8143 6.21616 85.9066 5.75239C85.9989 5.28862 86.227 4.86259 86.5618 4.52818C86.8967 4.19377 87.3234 3.966 87.788 3.87367C88.2526 3.78134 88.7341 3.8286 89.1718 4.00947C89.6094 4.19034 89.9835 4.4967 90.2468 4.8898C90.51 5.28291 90.6505 5.74511 90.6506 6.21795C90.6507 6.5319 90.5888 6.84279 90.4685 7.13287C90.3482 7.42295 90.1718 7.68653 89.9495 7.90857C89.7271 8.13061 89.4631 8.30675 89.1726 8.42695C88.882 8.54715 88.5706 8.60904 88.2561 8.6091ZM90.3196 23.6903H86.1883V10.4226H90.3196V23.6903ZM107.849 0.00189359H84.1144C83.5757 -0.00417499 83.0566 0.2035 82.6712 0.579283C82.2858 0.955066 82.0656 1.46821 82.0591 2.00596V25.7969C82.0654 26.3349 82.2854 26.8484 82.6708 27.2246C83.0562 27.6008 83.5754 27.8088 84.1144 27.8031H107.849C108.389 27.8099 108.91 27.6024 109.297 27.2262C109.684 26.8501 109.905 26.336 109.913 25.7969V2.00425C109.905 1.46543 109.683 0.951701 109.296 0.575927C108.91 0.200153 108.389 -0.00692931 107.849 0.000177039M70.8262 13.6249C68.7626 13.6249 67.5245 15.0002 67.5245 17.0043C67.5245 19.0084 68.7622 20.385 70.8262 20.385C72.8901 20.385 74.1308 19.0118 74.1308 17.0043C74.1308 14.9968 72.8923 13.6249 70.8262 13.6249ZM77.9303 23.6825H74.1308V21.9231H74.0745C73.5978 22.5631 72.9796 23.0845 72.2679 23.4469C71.5563 23.8092 70.7704 24.0027 69.9715 24.0121C66.0061 24.0121 63.3941 21.1553 63.3941 17.1155C63.3941 13.4051 65.7056 9.99821 69.5055 9.99821C71.2135 9.99821 72.8089 10.4647 73.7448 11.7577H73.7989V4.11002H77.9299L77.9303 23.6825ZM58.0951 15.5083C58.103 15.1741 58.0428 14.8418 57.9183 14.5314C57.7937 14.2211 57.6073 13.9392 57.3704 13.7029C57.1335 13.4666 56.851 13.2807 56.54 13.1566C56.2291 13.0324 55.8961 12.9726 55.5613 12.9807C54.8402 12.9359 54.1303 13.1758 53.5847 13.6486C53.0392 14.1215 52.7016 14.7894 52.6448 15.5083H58.0951ZM61.591 21.3875C60.9052 22.2177 60.0431 22.8852 59.067 23.3417C58.0908 23.7983 57.0252 24.0324 55.9473 24.0271C51.8203 24.0271 48.516 21.2772 48.516 17.0189C48.516 12.7606 51.8198 10.0119 55.9473 10.0119C59.8048 10.0119 62.2239 12.7584 62.2239 17.0189V18.3106H52.6448C52.7641 19.0432 53.1445 19.708 53.7161 20.1827C54.2877 20.6573 55.0118 20.9098 55.7551 20.8936C56.3426 20.8899 56.9198 20.7397 57.4342 20.4565C57.9486 20.1734 58.3839 19.7663 58.7004 19.2723L61.591 21.3875ZM20.5639 10.4192H24.5271V12.2323H24.5835C24.9793 11.5553 25.552 10.9983 26.2402 10.6209C26.9285 10.2434 27.7065 10.0596 28.4913 10.0892C32.6763 10.0892 33.4467 12.8378 33.4467 16.4087V23.6843H29.3197V17.2339C29.3197 15.6942 29.2913 13.715 27.1702 13.715C25.025 13.715 24.6939 15.3916 24.6939 17.1219V23.6825H20.5669L20.5639 10.4192ZM35.5395 4.11131H39.6665V15.8117L44.3438 10.4119H49.4038L43.987 16.5541L49.2899 23.6907H44.1027L39.7216 17.1326H39.6674V23.6898H35.5403L35.5395 4.11131ZM14.1485 10.4179H18.2755V23.6851H14.1485V10.4179ZM16.212 3.82207C16.6855 3.82216 17.1483 3.96239 17.542 4.22505C17.9356 4.4877 18.2424 4.86097 18.4236 5.29767C18.6047 5.73437 18.6521 6.21488 18.5596 6.67844C18.4672 7.142 18.2391 7.56779 17.9043 7.90198C17.5695 8.23616 17.1429 8.46373 16.6785 8.55591C16.2141 8.64809 15.7327 8.60074 15.2953 8.41984C14.8578 8.23895 14.4839 7.93263 14.2209 7.53963C13.9578 7.14663 13.8174 6.68459 13.8174 6.21194C13.8174 5.89806 13.8794 5.58726 13.9997 5.29728C14.1201 5.0073 14.2965 4.74382 14.5188 4.5219C14.7412 4.29997 15.0052 4.12394 15.2957 4.00387C15.5862 3.88379 15.8976 3.82202 16.212 3.82207ZM0 4.11432H4.296V19.7349H12.2492V23.6924H0V4.11432ZM113.384 26.2243C113.454 26.225 113.525 26.2112 113.59 26.1838C113.655 26.1563 113.714 26.1158 113.762 26.0647C113.811 26.0137 113.849 25.9532 113.873 25.8869C113.898 25.8207 113.908 25.7502 113.904 25.6797C113.904 25.2935 113.671 25.109 113.192 25.109H112.418V27.1311H112.709V26.2496H113.067L113.075 26.2604L113.63 27.1311H113.941L113.344 26.2299L113.384 26.2243ZM113.047 26.0218H112.71V25.3382H113.137C113.358 25.3382 113.61 25.3742 113.61 25.663C113.61 25.9952 113.355 26.0218 113.045 26.0218" fill="black"/>
</svg>
