<svg width="101" height="101" viewBox="0 0 101 101" fill="none" xmlns="http://www.w3.org/2000/svg">
<g clip-path="url(#clip0_278_39)">
<path d="M6.6768 76.2955C1.0692 73.8727 -1.51275 67.3631 0.909822 61.7555L24.7047 6.67684C27.1272 1.06925 33.637 -1.51276 39.2446 0.909812L94.3235 24.7046C99.9306 27.1272 102.513 33.637 100.09 39.2447L76.2955 94.3229C73.8727 99.9306 67.3631 102.513 61.7554 100.09L6.6768 76.2955Z" fill="#FCC1AC"/>
<path d="M28.8006 66.9527L24.4876 57.6256L21.3348 59.0836L20.6801 57.6677L28.6935 53.9622L29.3482 55.378L26.1808 56.8427L30.4938 66.1697L28.8006 66.9527ZM37.5327 63.1451C35.5476 64.063 33.0435 63.3606 31.8151 60.7041C30.5732 58.0184 31.653 55.641 33.6381 54.723C35.6232 53.8051 38.134 54.5221 39.376 57.2078C40.6044 59.8643 39.5178 62.2271 37.5327 63.1451ZM36.8982 61.773C38.1681 61.1858 38.4366 59.6974 37.6536 58.0042C36.8639 56.2965 35.5492 55.5225 34.2794 56.1097C33.0241 56.6901 32.7624 58.1931 33.5521 59.9009C34.335 61.5941 35.643 62.3535 36.8982 61.773ZM45.6374 59.3973C43.9296 60.187 42.6655 59.4073 41.7205 57.3638L39.3852 52.3135L41.0637 51.5373L43.3046 56.3833C43.9458 57.7699 44.5897 58.1277 45.5384 57.689C46.2829 57.3448 46.6317 56.7582 46.9117 55.6012L44.3333 50.0254L46.0119 49.2492L49.7242 57.2771L48.3521 57.9116L47.6606 56.7608L47.6168 56.7811C47.2784 57.9652 46.7467 58.8843 45.6374 59.3973ZM52.2511 56.1086L48.5387 48.0807L49.9108 47.4462L50.7104 48.8305L50.7542 48.8102C50.8442 47.5107 51.4073 46.5061 52.2685 46.1079C52.6626 45.9257 52.9523 45.8626 53.2544 45.8646L53.6229 47.466C53.3051 47.5066 53.0805 47.5573 52.7593 47.7058C52.1025 48.0096 51.5236 48.8265 51.5999 50.3326L53.915 55.3392L52.2511 56.1086ZM58.2236 53.3468L54.5112 45.3188L56.1752 44.5494L59.8875 52.5773L58.2236 53.3468ZM54.648 43.4307C54.035 43.7142 53.3935 43.5147 53.1235 42.9309C52.8468 42.3324 53.117 41.7291 53.7301 41.4456C54.3431 41.1621 54.9924 41.3402 55.2692 41.9387C55.5392 42.5225 55.2611 43.1472 54.648 43.4307ZM64.6769 50.593C63.5676 51.1059 62.2131 51.1653 61.1425 50.8808L61.4312 49.4362C62.4097 49.6747 63.2723 49.7011 64.1335 49.3028C65.0968 48.8574 65.3333 48.181 65.0498 47.568C64.7123 46.8382 63.6589 46.9355 62.6279 47.0048C61.3733 47.0888 59.884 47.0866 59.2563 45.7291C58.6353 44.3862 59.2497 42.8796 61.0159 42.0629C62.096 41.5634 63.1743 41.5963 64.0673 41.8035L63.7584 43.2043C63.0147 43.0521 62.3105 43.0234 61.639 43.3339C60.7633 43.7389 60.5571 44.3657 60.8135 44.9204C61.1308 45.6064 62.0843 45.4844 63.1085 45.4006C64.4282 45.3041 65.8984 45.2267 66.6003 46.7447C67.2213 48.0876 66.662 49.675 64.6769 50.593ZM69.4274 48.1659L65.715 40.1379L67.0871 39.5035L67.7382 40.5666L67.782 40.5464C68.1305 39.4993 68.6566 38.5297 69.6491 38.0707C70.846 37.5172 71.7739 37.7614 72.5495 38.519C72.9462 37.3079 73.4733 36.3023 74.4805 35.8365C76.1591 35.0603 77.4737 35.8344 78.4187 37.8778L80.7541 42.9282L79.0755 43.7044L76.8346 38.8584C76.1934 37.4718 75.499 37.1196 74.594 37.5381C74.0394 37.7946 73.6243 38.4294 73.2903 39.4697L75.9227 45.1623L74.2441 45.9385L72.0032 41.0925C71.362 39.7059 70.6822 39.347 69.7627 39.7722C69.2226 40.0219 68.7929 40.6636 68.459 41.7039L71.0913 47.3964L69.4274 48.1659Z" fill="#54555D"/>
</g>
<defs>
<clipPath id="clip0_278_39">
<rect width="100.489" height="100.489" fill="white" transform="scale(1.00508)"/>
</clipPath>
</defs>
</svg>
