<svg width="96" height="96" viewBox="0 0 96 96" fill="none" xmlns="http://www.w3.org/2000/svg">
<path d="M73.9359 11.6435C76.9216 11.8464 78.4144 11.9479 79.621 12.4756C81.367 13.2392 82.7608 14.633 83.5244 16.3789C84.0521 17.5856 84.1536 19.0784 84.3565 22.0641L84.8195 28.8776C84.9015 30.0851 84.9426 30.6889 85.0738 31.2657C85.2635 32.0991 85.5929 32.8944 86.0481 33.6178C86.3631 34.1184 86.761 34.5744 87.5569 35.4863L92.0473 40.6315C94.0151 42.8862 94.9989 44.0136 95.479 45.2399C96.1737 47.0144 96.1737 48.9856 95.479 50.7601C94.9989 51.9864 94.0151 53.1138 92.0473 55.3685L87.5569 60.5137C86.761 61.4256 86.3631 61.8816 86.0481 62.3822C85.5929 63.1056 85.2635 63.9009 85.0738 64.7343C84.9426 65.3111 84.9015 65.9149 84.8195 67.1224L84.3565 73.9359C84.1536 76.9216 84.0521 78.4144 83.5244 79.6211C82.7609 81.367 81.367 82.7608 79.6211 83.5244C78.4144 84.0521 76.9216 84.1536 73.9359 84.3565L67.1224 84.8195C65.9149 84.9015 65.3111 84.9426 64.7343 85.0738C63.9009 85.2635 63.1056 85.5929 62.3822 86.0481C61.8816 86.3631 61.4256 86.761 60.5137 87.5569L55.3685 92.0473C53.1138 94.0151 51.9864 94.9989 50.7601 95.479C48.9856 96.1737 47.0144 96.1737 45.2399 95.479C44.0136 94.9989 42.8862 94.0151 40.6315 92.0473L35.4863 87.5569C34.5744 86.761 34.1184 86.3631 33.6178 86.0481C32.8944 85.5929 32.0991 85.2635 31.2657 85.0738C30.6889 84.9426 30.0851 84.9015 28.8776 84.8195L22.0641 84.3565C19.0784 84.1536 17.5856 84.0521 16.3789 83.5244C14.633 82.7608 13.2392 81.367 12.4756 79.6211C11.9479 78.4144 11.8464 76.9216 11.6435 73.9359L11.1805 67.1224C11.0985 65.9149 11.0574 65.3111 10.9262 64.7343C10.7365 63.9009 10.4071 63.1056 9.9519 62.3822C9.63689 61.8816 9.23896 61.4256 8.44312 60.5137L3.95267 55.3685C1.98493 53.1138 1.00106 51.9864 0.520986 50.7601C-0.173662 48.9856 -0.173662 47.0144 0.520987 45.2399C1.00106 44.0136 1.98493 42.8862 3.95267 40.6315L8.44312 35.4863C9.23896 34.5744 9.63688 34.1184 9.9519 33.6178C10.4071 32.8944 10.7365 32.0991 10.9262 31.2657C11.0574 30.6889 11.0985 30.0851 11.1805 28.8776L11.6435 22.0641C11.8464 19.0784 11.9479 17.5856 12.4756 16.3789C13.2392 14.633 14.633 13.2392 16.3789 12.4756C17.5856 11.9479 19.0784 11.8464 22.0641 11.6435L28.8776 11.1805C30.0851 11.0985 30.6889 11.0574 31.2657 10.9262C32.0991 10.7365 32.8944 10.4071 33.6178 9.9519C34.1184 9.63689 34.5744 9.23896 35.4863 8.44312L40.6315 3.95267C42.8862 1.98493 44.0136 1.00106 45.2399 0.520987C47.0144 -0.173662 48.9856 -0.173662 50.7601 0.520987C51.9864 1.00106 53.1138 1.98493 55.3685 3.95267L60.5137 8.44312C61.4256 9.23896 61.8816 9.63689 62.3822 9.9519C63.1056 10.4071 63.9009 10.7365 64.7343 10.9262C65.3111 11.0574 65.9149 11.0985 67.1224 11.1805L73.9359 11.6435Z" fill="#A0E8C3"/>
<path d="M29.0024 54L26.5864 42.224H28.5064L29.6104 48.352L30.2344 52.128H30.2984C30.5544 50.864 30.8264 49.6 31.0984 48.352L32.6184 42.224H34.2504L35.7864 48.352C36.0584 49.584 36.3144 50.848 36.5864 52.128H36.6664C36.8584 50.848 37.0664 49.584 37.2584 48.352L38.3784 42.224H40.1544L37.8344 54H35.5464L33.9624 47.456C33.7544 46.528 33.5784 45.648 33.4184 44.752H33.3384C33.1784 45.648 32.9864 46.528 32.7944 47.456L31.2424 54H29.0024ZM45.5872 54.208C43.2032 54.208 41.2992 52.512 41.2992 49.616C41.2992 46.752 43.2512 44.976 45.3152 44.976C47.6512 44.976 48.8992 46.656 48.8992 49.152C48.8992 49.504 48.8672 49.872 48.8192 50.08H43.1072C43.2512 51.76 44.3072 52.768 45.8272 52.768C46.6112 52.768 47.2832 52.528 47.9232 52.112L48.5632 53.28C47.7472 53.824 46.7392 54.208 45.5872 54.208ZM43.0912 48.816H47.3152C47.3152 47.296 46.6272 46.416 45.3472 46.416C44.2432 46.416 43.2672 47.264 43.0912 48.816ZM55.0661 54.208C54.2661 54.208 53.3861 53.808 52.6341 53.088H52.5861L52.4101 54H50.9701V41.248H52.7941V44.624L52.7461 46.128C53.4981 45.472 54.4421 44.976 55.3701 44.976C57.5941 44.976 58.8581 46.752 58.8581 49.456C58.8581 52.48 57.0501 54.208 55.0661 54.208ZM54.7141 52.688C55.9941 52.688 56.9541 51.552 56.9541 49.488C56.9541 47.648 56.3621 46.512 54.8901 46.512C54.2021 46.512 53.5301 46.864 52.7941 47.584V51.888C53.4661 52.48 54.1701 52.688 54.7141 52.688ZM63.9286 54.208C62.0726 54.208 60.8726 53.472 60.0886 52.592L60.9846 51.408C61.6726 52.112 62.5526 52.704 63.7686 52.704C65.0966 52.704 66.0086 51.968 66.0086 50.752C66.0086 49.44 65.1766 48.592 62.5206 48.592V47.232C64.8406 47.232 65.6086 46.352 65.6086 45.168C65.6086 44.128 64.9206 43.472 63.8006 43.456C62.8886 43.472 62.1206 43.92 61.4486 44.576L60.4886 43.424C61.4166 42.592 62.5046 42 63.8646 42C65.9766 42 67.4646 43.088 67.4646 45.04C67.4646 46.4 66.6806 47.344 65.4326 47.808V47.888C66.7926 48.224 67.8646 49.248 67.8646 50.832C67.8646 52.96 66.0886 54.208 63.9286 54.208Z" fill="#54555D"/>
</svg>
