<svg width="133" height="70" viewBox="0 0 133 70" fill="none" xmlns="http://www.w3.org/2000/svg">
<path d="M19.7926 0.178123L121.829 16.8108C129.082 17.9959 134.004 24.8336 132.826 32.0877L128.481 58.7759C127.315 65.9538 120.609 70.8497 113.441 69.8093L113.21 69.7737L11.1711 53.1379C3.91819 51.9528 -1.00389 45.115 0.174201 37.861L4.51886 11.1727C5.68459 3.99478 12.3907 -0.901051 19.5589 0.139312L19.7903 0.174936C19.7912 0.175085 19.7921 0.175234 19.7926 0.178123Z" fill="#A0E8C3"/>
<path d="M36.0376 36.4852L38.0194 24.8645L39.8509 25.1769L37.8692 36.7976L36.0376 36.4852ZM40.7522 37.2892L42.2331 28.6053L43.7172 28.8584L43.6547 30.0826L43.7021 30.0906C44.6392 29.4543 45.6338 28.9577 46.818 29.1597C48.6653 29.4747 49.2763 30.8463 48.8994 33.0567L47.9677 38.5197L46.152 38.2101L47.0459 32.9681C47.3017 31.4682 46.962 30.7928 45.9357 30.6178C45.1304 30.4805 44.5078 30.7967 43.6022 31.4385L42.5521 37.5962L40.7522 37.2892ZM53.4908 39.6728C51.533 39.339 51.0614 38.0074 51.3737 36.1759L52.1223 31.7865L50.8592 31.5711L51.0907 30.2133L52.4489 30.3474L53.0635 27.9825L54.595 28.2437L54.1857 30.6436L56.4436 31.0286L56.1958 32.4812L53.938 32.0962L53.1868 36.5013C53.0091 37.5434 53.2807 38.1422 54.1807 38.2956C54.4806 38.3468 54.8757 38.3167 55.1472 38.2492L55.2499 39.6478C54.7335 39.7223 54.1224 39.7805 53.4908 39.6728ZM60.1835 40.8142C57.831 40.413 56.2375 38.4189 56.7248 35.5611C57.2068 32.7349 59.432 31.3108 61.4687 31.6581C63.7739 32.0512 64.7228 33.9191 64.3027 36.3822C64.2435 36.7295 64.15 37.0873 64.0676 37.2845L58.4309 36.3232C58.2903 38.0053 59.1628 39.1777 60.6627 39.4335C61.4364 39.5655 62.1399 39.4417 62.8415 39.1389L63.2765 40.3992C62.3797 40.7987 61.3204 41.008 60.1835 40.8142ZM58.6278 35.0732L62.7962 35.7841C63.0519 34.2841 62.5211 33.2999 61.258 33.0845C60.1685 32.8987 59.0627 33.5713 58.6278 35.0732ZM65.5304 41.5148L67.0114 32.8308L68.4955 33.0839L68.3711 34.6712L68.4184 34.6793C69.2254 33.6633 70.2542 33.1563 71.1858 33.3152C71.6121 33.3879 71.8855 33.4995 72.1324 33.6716L71.5316 35.194C71.2477 35.0481 71.0348 34.963 70.6874 34.9038C69.9769 34.7826 69.0408 35.1267 68.2539 36.4061L67.3304 41.8217L65.5304 41.5148ZM71.991 42.6165L73.4719 33.9325L74.9561 34.1856L74.8935 35.4098L74.9409 35.4179C75.8781 34.7816 76.8727 34.285 78.0568 34.487C79.9042 34.802 80.5152 36.1735 80.1382 38.384L79.2066 43.847L77.3908 43.5374L78.2848 38.2954C78.5406 36.7954 78.2008 36.1201 77.1745 35.9451C76.3693 35.8077 75.7466 36.124 74.841 36.7657L73.7909 42.9235L71.991 42.6165ZM85.4244 45.1186C83.0718 44.7174 81.4784 42.7233 81.9657 39.8655C82.4477 37.0393 84.6728 35.6152 86.7096 35.9625C89.0148 36.3557 89.9636 38.2235 89.5436 40.6866C89.4843 41.034 89.3908 41.3917 89.3085 41.5889L83.6718 40.6277C83.5312 42.3098 84.4036 43.4822 85.9036 43.738C86.6772 43.8699 87.3808 43.7462 88.0823 43.4433L88.5173 44.7036C87.6205 45.1031 86.5612 45.3125 85.4244 45.1186ZM83.8687 39.3776L88.037 40.0885C88.2928 38.5885 87.762 37.6043 86.4988 37.3889C85.4094 37.2032 84.3036 37.8757 83.8687 39.3776ZM93.4877 46.4936C91.5298 46.1598 91.0582 44.8282 91.3706 42.9967L92.1191 38.6074L90.856 38.3919L91.0875 37.0341L92.4458 37.1682L93.0603 34.8033L94.5918 35.0645L94.1826 37.4644L96.4404 37.8494L96.1927 39.302L93.9348 38.917L93.1836 43.3221C93.0059 44.3642 93.2775 44.963 94.1775 45.1164C94.4775 45.1676 94.8726 45.1375 95.144 45.0701L95.2467 46.4687C94.7303 46.5431 94.1192 46.6013 93.4877 46.4936Z" fill="#54555D"/>
</svg>
