<svg width="112" height="112" viewBox="0 0 112 112" fill="none" xmlns="http://www.w3.org/2000/svg">
<path d="M8.60609 25.9221C9.08771 23.8434 10.3754 22.0412 12.1858 20.9119L43.7557 1.2192C45.5661 0.0898897 47.751 -0.273972 49.8297 0.20765L86.0778 8.60611C88.1565 9.08774 89.9588 10.3754 91.0881 12.1858L110.781 43.7557C111.91 45.5661 112.274 47.751 111.792 49.8297L103.394 86.0779C102.912 88.1566 101.625 89.9588 99.8142 91.0881L68.2443 110.781C66.4338 111.91 64.2489 112.274 62.1702 111.792L25.9221 103.394C23.8434 102.912 22.0412 101.625 20.9119 99.8142L1.21918 68.2443C0.0898705 66.4338 -0.273992 64.249 0.20763 62.1703L8.60609 25.9221Z" fill="#C1C9F9"/>
<path d="M27.7028 59.6164C24.7452 60.3242 22.1447 58.5145 21.257 54.8057C20.3694 51.097 21.8875 48.3842 24.8452 47.6763C27.8028 46.9685 30.4003 48.6962 31.2879 52.405C32.1755 56.1137 30.6605 58.9085 27.7028 59.6164ZM27.3246 58.0358C29.2337 57.5789 30.0736 55.5579 29.4257 52.8507C28.7777 50.1434 27.1326 48.7999 25.2234 49.2569C23.3143 49.7138 22.4713 51.6528 23.1192 54.36C23.7672 57.0673 25.4154 58.4928 27.3246 58.0358ZM36.8072 57.2223L31.6958 49.3458L33.5423 48.9038L36.1219 53.1838C36.5589 53.9727 37.0347 54.7853 37.4873 55.5704L37.5499 55.5555C37.598 54.6505 37.6543 53.7105 37.6868 52.8093L38.0492 47.8252L39.8019 47.4057L38.8885 56.7241L36.8072 57.2223ZM46.9817 55.0022C44.65 55.5603 42.3908 54.3472 41.7129 51.5148C41.0425 48.7137 42.5359 46.5197 44.5546 46.0366C46.8393 45.4897 48.4532 46.8407 49.0374 49.2819C49.1198 49.6262 49.1747 49.9936 49.1764 50.2083L43.5898 51.5454C44.1239 53.1548 45.3927 53.8935 46.8793 53.5377C47.6461 53.3542 48.2472 52.9621 48.7757 52.4054L49.6751 53.398C49.0044 54.1211 48.1084 54.7326 46.9817 55.0022ZM43.2783 50.3129L47.4096 49.3241C47.0538 47.8375 46.1749 47.1378 44.923 47.4375C43.8432 47.6959 43.0871 48.7537 43.2783 50.3129ZM52.1977 53.5388L50.1378 44.9319L51.6087 44.5799L52.1204 46.0954L52.1673 46.0842C52.5117 44.827 53.262 43.9526 54.1853 43.7316C54.6078 43.6305 54.9045 43.6256 55.2005 43.6872L55.2464 45.3307C54.9266 45.308 54.6963 45.3134 54.352 45.3958C53.6478 45.5644 52.9189 46.2517 52.697 47.7443L53.9817 53.1118L52.1977 53.5388ZM60.8895 51.6736C59.7002 51.9582 58.3598 51.7496 57.3656 51.2596L57.9335 49.8993C58.8463 50.3261 59.6874 50.5219 60.6106 50.3009C61.6435 50.0537 62.0087 49.4368 61.8514 48.7796C61.6641 47.9972 60.6115 47.8851 59.5865 47.7499C58.3392 47.5851 56.8787 47.2894 56.5303 45.8341C56.1858 44.3944 57.0854 43.0375 58.9789 42.5843C60.1369 42.3072 61.1882 42.5519 62.0234 42.9311L61.4443 44.2444C60.7448 43.9485 60.0596 43.7816 59.3397 43.9539C58.4008 44.1786 58.075 44.753 58.2173 45.3476C58.3934 46.0831 59.3528 46.1513 60.3741 46.2709C61.6877 46.4363 63.1451 46.65 63.5347 48.2775C63.8792 49.7172 63.0178 51.1642 60.8895 51.6736ZM69.6602 49.5745C67.3285 50.1325 65.0693 48.9194 64.3914 46.087C63.721 43.2859 65.2144 41.0919 67.2331 40.6088C69.5178 40.062 71.1317 41.4129 71.716 43.8542C71.7984 44.1984 71.8532 44.5658 71.855 44.7805L66.2683 46.1176C66.8024 47.727 68.0712 48.4657 69.5578 48.1099C70.3246 47.9264 70.9257 47.5343 71.4543 46.9776L72.3536 47.9702C71.6829 48.6933 70.7869 49.3048 69.6602 49.5745ZM65.9568 44.8851L70.0881 43.8963C69.7323 42.4097 68.8534 41.71 67.6015 42.0097C66.5217 42.2681 65.7656 43.3259 65.9568 44.8851ZM76.73 47.8824C75.2434 48.2382 73.9627 47.5189 73.5994 46.001C73.1575 44.1544 74.4939 42.8253 77.9838 41.5764C77.7285 40.5786 77.1588 39.7884 75.8913 40.0918C74.9836 40.309 74.236 40.9182 73.6128 41.5636L72.6478 40.5041C73.405 39.7272 74.4751 38.8755 75.8522 38.5459C77.9961 38.0328 79.3078 39.1583 79.8546 41.443L81.0943 46.6228L79.6233 46.9748L79.2309 46.0264L79.1839 46.0376C78.5625 46.8978 77.7628 47.6352 76.73 47.8824ZM76.9369 46.3273C77.688 46.1475 78.2122 45.6415 78.7628 44.8314L78.2572 42.7188C75.7814 43.6422 75.0743 44.4898 75.3065 45.46C75.5087 46.3051 76.1701 46.5108 76.9369 46.3273ZM86.0285 45.6569C84.8392 45.9416 83.4987 45.7329 82.5045 45.2429L83.0724 43.8826C83.9853 44.3094 84.8263 44.5052 85.7496 44.2842C86.7824 44.0371 87.1476 43.4202 86.9903 42.7629C86.8031 41.9805 85.7505 41.8684 84.7254 41.7332C83.4782 41.5685 82.0176 41.2728 81.6693 39.8174C81.3247 38.3778 82.2243 37.0208 84.1178 36.5677C85.2758 36.2905 86.3271 36.5352 87.1624 36.9144L86.5833 38.2277C85.8837 37.9319 85.1985 37.765 84.4787 37.9373C83.5397 38.162 83.2139 38.7363 83.3563 39.331C83.5323 40.0665 84.4917 40.1346 85.513 40.2542C86.8266 40.4196 88.2841 40.6333 88.6736 42.2608C89.0182 43.7005 88.1567 45.1476 86.0285 45.6569ZM24.2253 80.9151L21.4688 69.3975L28.276 67.7683L28.6393 69.2863L23.6473 70.481L24.4151 73.689L28.6403 72.6778L29.0073 74.2114L24.7822 75.2226L25.6735 78.947L30.8376 77.7111L31.2047 79.2446L24.2253 80.9151ZM36.3059 78.2388C34.1463 78.7557 32.3603 77.4459 31.6787 74.5978C31.0083 71.7967 32.3608 69.6364 34.2856 69.1758C35.2715 68.9398 35.9874 69.1656 36.8339 69.5917L36.4148 68.1864L35.6508 64.994L37.4504 64.5633L40.4354 77.0354L38.9644 77.3875L38.5757 76.4547L38.5288 76.4659C38.0445 77.2767 37.2761 78.0066 36.3059 78.2388ZM36.3726 76.6511C37.0924 76.4788 37.6241 76.0041 38.0777 75.1344L37.0702 70.9249C36.2901 70.4995 35.6311 70.4421 34.9895 70.5957C33.7845 70.884 33.0877 72.2586 33.5334 74.1208C34.0016 76.0769 35.0268 76.9732 36.3726 76.6511ZM45.7089 75.9883C43.878 76.4265 42.7916 75.4126 42.2672 73.2218L40.9713 67.8073L42.7709 67.3766L44.0144 72.572C44.3702 74.0586 44.9313 74.5365 45.9485 74.293C46.7466 74.102 47.2044 73.5954 47.707 72.5155L46.2763 66.5376L48.0759 66.1069L50.1358 74.7137L48.6648 75.0658L48.2131 73.8007L48.1662 73.8119C47.601 74.9068 46.8983 75.7037 45.7089 75.9883ZM56.3989 73.4298C54.0672 73.9879 51.89 72.7717 51.2084 69.9237C50.5192 67.0443 52.1096 64.9098 54.3787 64.3668C55.4741 64.1046 56.3771 64.3518 57.1341 64.7497L56.523 66.1368C55.9524 65.8266 55.4074 65.6924 54.8127 65.8347C53.3731 66.1793 52.6324 67.6471 53.0706 69.478C53.505 71.2932 54.7793 72.2622 56.219 71.9177C56.9388 71.7454 57.498 71.2475 57.9096 70.6858L58.9297 71.6991C58.3158 72.5905 57.3848 73.1939 56.3989 73.4298ZM62.844 71.8873C61.3574 72.2431 60.0767 71.5238 59.7134 70.0059C59.2715 68.1593 60.6079 66.8302 64.0978 65.5813C63.8425 64.5835 63.2728 63.7933 62.0052 64.0967C61.0976 64.3139 60.35 64.9231 59.7268 65.5686L58.7618 64.509C59.5189 63.7322 60.5891 62.8804 61.9662 62.5508C64.11 62.0377 65.4218 63.1632 65.9686 65.4479L67.2083 70.6277L65.7373 70.9797L65.3449 70.0313L65.2979 70.0426C64.6765 70.9027 63.8768 71.6401 62.844 71.8873ZM63.0509 70.3322C63.802 70.1524 64.3262 69.6464 64.8768 68.8363L64.3712 66.7237C61.8954 67.6471 61.1882 68.4947 61.4205 69.465C61.6227 70.31 62.2841 70.5157 63.0509 70.3322ZM72.446 69.5892C70.5056 70.0536 69.5443 69.0097 69.1098 67.1944L68.0686 62.8441L66.8167 63.1437L66.4946 61.7979L67.8023 61.3857L67.4364 58.9584L68.9544 58.5951L69.5237 60.9737L71.7614 60.4381L72.106 61.8778L69.8682 62.4134L70.9132 66.7794C71.1604 67.8122 71.6476 68.2581 72.5396 68.0446C72.8369 67.9735 73.19 67.7897 73.4142 67.6202L74.0612 68.8717C73.6135 69.1443 73.072 69.4394 72.446 69.5892ZM75.7068 68.5937L73.6469 59.9868L75.4308 59.5599L77.4908 68.1667L75.7068 68.5937ZM74.1531 58.1615C73.4958 58.3188 72.9059 57.9968 72.756 57.3708C72.6025 56.7292 72.9865 56.1906 73.6437 56.0333C74.301 55.876 74.9029 56.1787 75.0564 56.8203C75.2062 57.4462 74.8103 58.0042 74.1531 58.1615ZM83.6911 66.8978C81.5629 67.4072 79.2448 66.2247 78.5632 63.3767C77.8741 60.4973 79.4019 58.3778 81.5301 57.8685C83.6583 57.3591 85.9801 58.5572 86.6693 61.4366C87.3509 64.2847 85.8194 66.3885 83.6911 66.8978ZM83.3391 65.4268C84.7005 65.101 85.2572 63.6938 84.8227 61.8785C84.3845 60.0476 83.2473 59.0293 81.8859 59.3551C80.5401 59.6772 79.9872 61.1001 80.4254 62.931C80.8599 64.7462 81.9933 65.7489 83.3391 65.4268ZM89.8121 65.2178L87.7522 56.6109L89.2232 56.2589L89.6487 57.4145L89.6956 57.4032C90.3102 56.4454 91.0329 55.5941 92.2066 55.3132C94.0375 54.875 95.1434 55.9008 95.6677 58.0917L96.9636 63.5061L95.164 63.9369L93.9206 58.7415C93.5647 57.2548 92.9843 56.765 91.9671 57.0085C91.169 57.1995 90.7187 57.7375 90.1354 58.6878L91.5961 64.7908L89.8121 65.2178Z" fill="#54555D"/>
</svg>
