<svg width="132" height="67" viewBox="0 0 132 67" fill="none" xmlns="http://www.w3.org/2000/svg">
<g clip-path="url(#clip0_278_44)">
<path d="M60.2638 0.647042C62.0414 0.013334 63.9509 -0.158284 65.8136 0.147185L125.086 9.87552C127.59 10.2865 129.498 12.3354 129.726 14.8569L131.977 39.7559C132.205 42.2774 130.696 44.6339 128.306 45.4854L71.7363 65.6463C69.9587 66.28 68.0493 66.4516 66.1865 66.1461L6.91393 56.4178C4.41039 56.0068 2.50224 53.958 2.27422 51.4365L0.0226866 26.5374C-0.205328 24.0159 1.30445 21.6594 3.69379 20.808L60.2638 0.647042Z" fill="#C1C9F9"/>
<path d="M22.3649 44.1815L21.0754 32.4596L28.0034 31.6975L28.1733 33.2424L23.0928 33.8013L23.452 37.0662L27.7521 36.5931L27.9238 38.1539L23.6237 38.627L24.0407 42.4174L29.2964 41.8393L29.4681 43.4001L22.3649 44.1815ZM30.6977 39.3962L30.5488 38.0425L34.7533 37.5799L34.9023 38.9337L30.6977 39.3962ZM42.2006 42.2089C39.2542 42.533 36.7509 40.584 36.3286 36.7457C35.9082 32.9234 37.9811 30.3742 40.9434 30.0483C42.4087 29.8871 43.6324 30.4618 44.435 31.1633L43.5613 32.4522C42.8877 31.8977 42.1078 31.5483 41.1522 31.6534C39.1296 31.8759 37.9138 33.7183 38.2169 36.4735C38.5235 39.2607 40.0169 40.8211 42.0873 40.5933C43.1544 40.476 43.93 39.9071 44.5467 39.0655L45.662 40.1195C44.8415 41.3059 43.7136 42.0425 42.2006 42.2089ZM51.2704 41.2112C49.1044 41.4494 46.9615 39.9927 46.6426 37.0941C46.3203 34.1636 48.0935 32.2599 50.2595 32.0216C52.4255 31.7834 54.5701 33.2561 54.8925 36.1865C55.2114 39.0851 53.4364 40.9729 51.2704 41.2112ZM51.1057 39.7141C52.4913 39.5617 53.2164 38.2407 53.0132 36.3933C52.8082 34.5299 51.8115 33.3822 50.4259 33.5347C49.0563 33.6853 48.3329 35.0222 48.5379 36.8856C48.7411 38.733 49.7361 39.8648 51.1057 39.7141ZM57.5267 40.3134L56.5631 31.5539L58.0602 31.3892L58.3384 32.5997L58.3862 32.5945C59.0472 31.7158 59.8513 30.9665 60.9343 30.8473C62.2402 30.7037 63.0394 31.2283 63.532 32.1896C64.2904 31.1713 65.107 30.3883 66.2059 30.2674C68.0374 30.0659 69.0341 31.2136 69.2794 33.4433L69.8856 38.9538L68.0541 39.1553L67.4724 33.8677C67.306 32.3547 66.7616 31.8021 65.7742 31.9107C65.1689 31.9773 64.5757 32.4455 63.9307 33.3224L64.614 39.5337L62.7824 39.7352L62.2008 34.4476C62.0343 32.9346 61.5059 32.3802 60.5025 32.4906C59.9132 32.5554 59.3041 33.0254 58.6591 33.9024L59.3423 40.1136L57.5267 40.3134ZM72.5355 38.6623L71.5719 29.9028L73.0689 29.7381L73.3472 30.9487L73.395 30.9434C74.0559 30.0647 74.86 29.3154 75.943 29.1963C77.249 29.0526 78.0482 29.5772 78.5408 30.5385C79.2992 29.5202 80.1157 28.7372 81.2146 28.6163C83.0462 28.4148 84.0429 29.5625 84.2881 31.7922L84.8944 37.3027L83.0628 37.5042L82.4811 32.2166C82.3147 30.7036 81.7703 30.151 80.7829 30.2596C80.1777 30.3262 79.5844 30.7944 78.9394 31.6713L79.6227 37.8826L77.7912 38.0841L77.2095 32.7966C77.0431 31.2836 76.5146 30.7292 75.5113 30.8395C74.922 30.9044 74.3128 31.3744 73.6678 32.2513L74.3511 38.4626L72.5355 38.6623ZM91.2141 36.817C88.8411 37.0781 86.7602 35.5984 86.443 32.7157C86.1294 29.8649 87.878 27.8833 89.9325 27.6573C92.2577 27.4015 93.6839 28.9371 93.9573 31.4216C93.9958 31.772 94.0043 32.1418 93.9792 32.3541L88.2935 32.9796C88.6208 34.6361 89.7824 35.5238 91.2954 35.3574C92.0757 35.2715 92.7184 34.9591 93.3099 34.4749L94.0748 35.5674C93.3222 36.1983 92.3608 36.6909 91.2141 36.817ZM88.1392 31.7232L92.3438 31.2606C92.1773 29.7476 91.3961 28.947 90.122 29.0872C89.0231 29.2081 88.1444 30.159 88.1392 31.7232ZM96.5495 36.0206L95.5859 27.261L97.0829 27.0964L97.3997 28.6573L97.4475 28.652C97.9442 27.4529 98.7944 26.6824 99.734 26.579C100.164 26.5317 100.458 26.5639 100.742 26.6615L100.583 28.291C100.27 28.2287 100.042 28.2054 99.6915 28.244C98.9748 28.3228 98.1691 28.9112 97.7641 30.3581L98.3651 35.8208L96.5495 36.0206ZM106.485 35.1371C104.112 35.3981 102.113 33.9256 101.794 31.027C101.472 28.0965 103.309 26.1858 105.618 25.9318C106.733 25.8091 107.594 26.1657 108.292 26.6531L107.516 27.9474C106.991 27.57 106.469 27.3695 105.864 27.436C104.399 27.5972 103.484 28.9551 103.689 30.8185C103.892 32.666 105.031 33.7819 106.496 33.6207C107.229 33.5401 107.843 33.1179 108.319 32.6142L109.201 33.7422C108.484 34.5465 107.489 35.0267 106.485 35.1371ZM114.373 34.2694C112 34.5305 109.919 33.0508 109.602 30.1681C109.288 27.3173 111.037 25.3357 113.091 25.1097C115.416 24.8539 116.843 26.3895 117.116 28.874C117.154 29.2244 117.163 29.5942 117.138 29.8065L111.452 30.432C111.779 32.0885 112.941 32.9762 114.454 32.8098C115.234 32.7239 115.877 32.4114 116.468 31.9273L117.233 33.0198C116.481 33.6506 115.519 34.1433 114.373 34.2694ZM111.298 29.1755L115.502 28.713C115.336 27.2 114.555 26.3994 113.281 26.5395C112.182 26.6604 111.303 27.6114 111.298 29.1755Z" fill="#54555D"/>
</g>
<defs>
<clipPath id="clip0_278_44">
<rect width="131.815" height="66.2004" fill="white" transform="scale(1.0014)"/>
</clipPath>
</defs>
</svg>
