<svg width="140" height="85" viewBox="0 0 140 85" fill="none" xmlns="http://www.w3.org/2000/svg">
<g clip-path="url(#clip0_6327_1803)">
<g clip-path="url(#clip1_6327_1803)">
<path d="M59.642 10.9833C61.3071 10.1008 63.1692 9.65593 65.0539 9.68919L125.026 10.7556C127.559 10.8008 129.74 12.5501 130.329 15.0088L136.144 39.2878C136.733 41.7465 135.58 44.2927 133.342 45.4786L80.3506 73.5571C78.6855 74.4396 76.8234 74.8845 74.9387 74.8512L14.9668 73.7848C12.4337 73.7397 10.2527 71.9903 9.66384 69.5316L3.84884 45.2527C3.25996 42.794 4.41203 40.2477 6.65025 39.0618L59.642 10.9833Z" fill="#E1DCD4"/>
<path d="M69.6543 43.7773L72.7667 42.9678L71.9189 41.5516C71.2096 40.4135 70.5387 39.2324 69.8482 38.0398L69.7863 38.0559C69.7994 39.4412 69.7695 40.7881 69.7201 42.1235L69.6543 43.7773ZM75.3727 47.2662L73.5668 44.2641L69.6027 45.2952L69.473 48.8007L67.6458 49.276L68.4597 36.8965L70.5347 36.3568L77.2773 46.7708L75.3727 47.2662ZM78.7804 46.3798L75.816 34.983L77.6123 34.5158L80.5766 45.9126L78.7804 46.3798Z" fill="#54555D"/>
</g>
</g>
<defs>
<clipPath id="clip0_6327_1803">
<rect width="131.815" height="66.2008" fill="white" transform="translate(0 19.0331) rotate(-8.30208)"/>
</clipPath>
<clipPath id="clip1_6327_1803">
<rect width="131.815" height="66.2004" fill="white" transform="translate(0 19.0334) rotate(-8.30208)"/>
</clipPath>
</defs>
</svg>
