<svg width="26" height="26" viewBox="0 0 26 26" fill="none" xmlns="http://www.w3.org/2000/svg">
<path d="M17.4503 11.8061C17.3702 11.7669 17.2888 11.7292 17.2064 11.693C17.0629 8.99076 15.6176 7.44372 13.1908 7.42789C13.1798 7.42782 13.1689 7.42782 13.1579 7.42782C11.7064 7.42782 10.4991 8.06082 9.7561 9.21267L11.0908 10.148C11.6458 9.28764 12.517 9.10423 13.1585 9.10423C13.1659 9.10423 13.1734 9.10423 13.1807 9.10429C13.9798 9.1095 14.5827 9.34685 14.973 9.80972C15.257 10.1467 15.4469 10.6124 15.541 11.2001C14.8325 11.077 14.0663 11.0392 13.2473 11.0872C10.94 11.223 9.45671 12.5978 9.55633 14.5081C9.60689 15.4771 10.0794 16.3107 10.8868 16.8553C11.5694 17.3156 12.4486 17.5407 13.3623 17.4898C14.569 17.4222 15.5156 16.9518 16.176 16.0918C16.6775 15.4387 16.9948 14.5923 17.1348 13.5258C17.7099 13.8804 18.1361 14.347 18.3715 14.9079C18.7717 15.8613 18.795 17.4281 17.5437 18.7055C16.4473 19.8245 15.1294 20.3086 13.1377 20.3235C10.9283 20.3068 9.25744 19.5829 8.17107 18.172C7.15377 16.8508 6.62802 14.9425 6.60841 12.5C6.62802 10.0575 7.15377 8.14916 8.17107 6.82798C9.25744 5.41705 10.9283 4.69318 13.1377 4.6764C15.363 4.69331 17.0631 5.42066 18.191 6.8384C18.7441 7.53364 19.1611 8.40795 19.436 9.42737L21 9.00105C20.6668 7.74626 20.1425 6.66499 19.429 5.76826C17.983 3.95066 15.8681 3.01931 13.1431 3H13.1322C10.4128 3.01924 8.32159 3.95414 6.91673 5.77868C5.66659 7.4023 5.02174 9.66145 5.00007 12.4933L5 12.5L5.00007 12.5067C5.02174 15.3385 5.66659 17.5977 6.91673 19.2213C8.32159 21.0458 10.4128 21.9808 13.1322 22H13.1431C15.5608 21.9829 17.265 21.3362 18.6689 19.9032C20.5057 18.0284 20.4504 15.6784 19.845 14.2358C19.4107 13.2013 18.5826 12.3611 17.4503 11.8061ZM13.2759 15.8158C12.2647 15.874 11.2141 15.4103 11.1623 14.417C11.1239 13.6806 11.6753 12.8588 13.338 12.7609C13.5284 12.7497 13.7152 12.7442 13.8988 12.7442C14.5027 12.7442 15.0677 12.8042 15.5814 12.9189C15.3898 15.3634 14.266 15.7603 13.2759 15.8158Z" fill="black"/>
</svg>
