<svg width="20" height="20" viewBox="0 0 20 20" fill="none" xmlns="http://www.w3.org/2000/svg">
                    <g clip-path="url(#clip0_3493_161)">
                        <path d="M18.5277 8.86223L16.8335 7.16776V4.77226C16.8335 4.34572 16.6641 3.93666 16.3625 3.63506C16.061 3.33345 15.652 3.16401 15.2255 3.16401H12.8304L11.1362 1.46954C10.5102 0.843486 9.49069 0.843486 8.86099 1.46954L7.16678 3.16401H4.77166C4.5605 3.16401 4.3514 3.20561 4.15631 3.28643C3.96122 3.36725 3.78395 3.48572 3.63464 3.63506C3.48532 3.7844 3.36688 3.96169 3.28607 4.15681C3.20526 4.35193 3.16367 4.56106 3.16367 4.77226V7.16776L1.46947 8.86223C0.843511 9.48829 0.843511 10.508 1.46947 11.1378L3.16367 12.8322V15.2277C3.16367 15.4389 3.20526 15.6481 3.28607 15.8432C3.36688 16.0383 3.48532 16.2156 3.63464 16.3649C3.78395 16.5143 3.96122 16.6327 4.15631 16.7136C4.3514 16.7944 4.5605 16.836 4.77166 16.836H7.16678L8.86099 18.5305C9.48694 19.1565 10.5065 19.1565 11.1362 18.5305L12.8304 16.836H15.2255C15.4367 16.836 15.6458 16.7944 15.8408 16.7136C16.0359 16.6327 16.2132 16.5143 16.3625 16.3649C16.5118 16.2156 16.6303 16.0383 16.7111 15.8432C16.7919 15.6481 16.8335 15.4389 16.8335 15.2277V12.8322L18.5277 11.1378C18.6774 10.9885 18.7962 10.8112 18.8772 10.616C18.9583 10.4207 19 10.2114 19 10C19 9.7886 18.9583 9.57927 18.8772 9.38403C18.7962 9.18879 18.6774 9.01147 18.5277 8.86223Z" stroke="#54555D" stroke-width="1.25" />
                        <path d="M13.5 8L8.5 12.5L6 10.2273" stroke="#54555D" stroke-width="1.25" stroke-linecap="round" stroke-linejoin="round" />
                    </g>
                    <defs>
                        <clipPath id="clip0_3493_161">
                            <rect width="20" height="20" fill="white" />
                        </clipPath>
                    </defs>
                </svg>