<svg width="20" height="20" viewBox="0 0 20 20" fill="none" xmlns="http://www.w3.org/2000/svg">
<path d="M10.0614 13.5039C9.22299 13.9276 8.27985 14.0995 7.34583 13.999C6.41181 13.8985 5.52685 13.5298 4.79776 12.9374C4.06866 12.3451 3.52661 11.5543 3.23701 10.6607C2.94742 9.767 2.92266 8.80862 3.16574 7.90121L7.49615 9.06142C7.07245 8.22299 6.90048 7.27985 7.00099 6.34583C7.1015 5.41181 7.47019 4.52685 8.06257 3.79776C8.65495 3.06866 9.44569 2.52661 10.3393 2.23701C11.233 1.94742 12.1914 1.92266 13.0988 2.16574L11.9386 6.49615C12.777 6.07245 13.7202 5.90048 14.6542 6.00099C15.5882 6.1015 16.4731 6.47019 17.2022 7.06257C17.9313 7.65495 18.4734 8.44569 18.763 9.33934C19.0526 10.233 19.0773 11.1914 18.8343 12.0988L14.5039 10.9386C14.9276 11.777 15.0995 12.7202 14.999 13.6542C14.8985 14.5882 14.5298 15.4731 13.9374 16.2022C13.3451 16.9313 12.5543 17.4734 11.6607 17.763C10.767 18.0526 9.80862 18.0773 8.90121 17.8343L10.0614 13.5039Z" stroke="#646464" stroke-width="1.25" stroke-linecap="round" stroke-linejoin="round"/>
<path d="M11 10V10.0083" stroke="#646464" stroke-width="1.25" stroke-linecap="round" stroke-linejoin="round"/>
</svg>
