<svg width="20" height="20" viewBox="0 0 20 20" fill="none" xmlns="http://www.w3.org/2000/svg">
<path d="M16.7895 7.07692V4.76923C16.7895 4.56522 16.7118 4.36956 16.5737 4.2253C16.4355 4.08104 16.2481 4 16.0526 4H6.47368C6.08284 4 5.708 4.16209 5.43163 4.4506C5.15526 4.73912 5 5.13044 5 5.53846C5 5.94649 5.15526 6.3378 5.43163 6.62632C5.708 6.91484 6.08284 7.07692 6.47368 7.07692H17.5263C17.7217 7.07692 17.9092 7.15797 18.0473 7.30223C18.1855 7.44648 18.2632 7.64214 18.2632 7.84615V10.9231M18.2632 10.9231H16.0526C15.6618 10.9231 15.2869 11.0852 15.0106 11.3737C14.7342 11.6622 14.5789 12.0535 14.5789 12.4615C14.5789 12.8696 14.7342 13.2609 15.0106 13.5494C15.2869 13.8379 15.6618 14 16.0526 14H18.2632C18.4586 14 18.646 13.919 18.7842 13.7747C18.9224 13.6304 19 13.4348 19 13.2308V11.6923C19 11.4883 18.9224 11.2926 18.7842 11.1484C18.646 11.0041 18.4586 10.9231 18.2632 10.9231Z" stroke="#646464" stroke-width="1.25" stroke-linecap="round" stroke-linejoin="round"/>
<path d="M5 5V16.375C5 16.806 5.16389 17.2193 5.45561 17.524C5.74733 17.8288 6.143 18 6.55556 18H18.2222C18.4285 18 18.6263 17.9144 18.7722 17.762C18.9181 17.6097 19 17.403 19 17.1875V13.9375" stroke="#646464" stroke-width="1.25" stroke-linecap="round" stroke-linejoin="round"/>
</svg>
