<svg width="20" height="20" viewBox="0 0 20 20" fill="none" xmlns="http://www.w3.org/2000/svg">
<path d="M10 7.49994C9.25644 7.48796 8.53022 7.72497 7.93687 8.17327C7.34352 8.62158 6.91713 9.25542 6.72551 9.97397C6.5339 10.6925 6.58807 11.4545 6.87941 12.1387C7.17076 12.823 7.68253 13.3901 8.33334 13.7499" stroke="#646464" stroke-width="1.25" stroke-linecap="round" stroke-linejoin="round"/>
<path d="M10 2.5V4.16667" stroke="#646464" stroke-width="1.25" stroke-linecap="round" stroke-linejoin="round"/>
<path d="M5.5 15.3333L4.33334 16.4999" stroke="#646464" stroke-width="1.25" stroke-linecap="round" stroke-linejoin="round"/>
<path d="M16.6667 3.33341V12.1167C17.3021 12.4836 17.7988 13.05 18.0796 13.7279C18.3604 14.4058 18.4097 15.1575 18.2198 15.8662C18.0298 16.575 17.6114 17.2013 17.0292 17.648C16.4471 18.0947 15.7338 18.3368 15 18.3368C14.2662 18.3368 13.5529 18.0947 12.9708 17.648C12.3887 17.2013 11.9702 16.575 11.7803 15.8662C11.5903 15.1575 11.6396 14.4058 11.9204 13.7279C12.2012 13.05 12.6979 12.4836 13.3333 12.1167V3.33341C13.3333 2.89139 13.5089 2.46746 13.8215 2.1549C14.1341 1.84234 14.558 1.66675 15 1.66675C15.442 1.66675 15.866 1.84234 16.1785 2.1549C16.4911 2.46746 16.6667 2.89139 16.6667 3.33341Z" stroke="#646464" stroke-width="1.25" stroke-linecap="round" stroke-linejoin="round"/>
<path d="M3.33333 10.8333H1.66666" stroke="#646464" stroke-width="1.25" stroke-linecap="round" stroke-linejoin="round"/>
<path d="M5.28333 6.11665L4.10833 4.94165" stroke="#646464" stroke-width="1.25" stroke-linecap="round" stroke-linejoin="round"/>
</svg>
