<svg width="20" height="20" viewBox="0 0 20 20" fill="none" xmlns="http://www.w3.org/2000/svg">
<path d="M14.3334 8.33325H16" stroke="#646464" stroke-width="1.25" stroke-linecap="round" stroke-linejoin="round"/>
<path d="M14.3334 11.6667H16" stroke="#646464" stroke-width="1.25" stroke-linecap="round" stroke-linejoin="round"/>
<path d="M6.14172 12.5C6.31351 12.0116 6.63264 11.5887 7.05507 11.2895C7.4775 10.9903 7.9824 10.8296 8.50006 10.8296C9.01772 10.8296 9.52261 10.9903 9.94504 11.2895C10.3675 11.5887 10.6866 12.0116 10.8584 12.5" stroke="#646464" stroke-width="1.25" stroke-linecap="round" stroke-linejoin="round"/>
<path d="M8.50004 10.8333C9.42052 10.8333 10.1667 10.0871 10.1667 9.16667C10.1667 8.24619 9.42052 7.5 8.50004 7.5C7.57957 7.5 6.83337 8.24619 6.83337 9.16667C6.83337 10.0871 7.57957 10.8333 8.50004 10.8333Z" stroke="#646464" stroke-width="1.25" stroke-linecap="round" stroke-linejoin="round"/>
<path d="M17.6666 4.16675H4.33329C3.41282 4.16675 2.66663 4.91294 2.66663 5.83341V14.1667C2.66663 15.0872 3.41282 15.8334 4.33329 15.8334H17.6666C18.5871 15.8334 19.3333 15.0872 19.3333 14.1667V5.83341C19.3333 4.91294 18.5871 4.16675 17.6666 4.16675Z" stroke="#646464" stroke-width="1.25" stroke-linecap="round" stroke-linejoin="round"/>
</svg>
